<svg width="34" height="30" viewBox="0 0 34 30" fill="none" xmlns="http://www.w3.org/2000/svg">
<path d="M17 1H5C2.79086 1 1 2.79086 1 5V25C1 27.2091 2.79086 29 5 29H29C31.2091 29 33 27.2091 33 25V5C33 2.79086 31.2091 1 29 1H17Z" stroke="#88EEBC" stroke-width="2"/>
<line x1="1" y1="7" x2="33" y2="7" stroke="#88EEBC" stroke-width="2"/>
<path d="M21.7269 24.1451C22.1175 24.5356 22.7506 24.5356 23.1412 24.1451C23.5317 23.7545 23.5317 23.1214 23.1412 22.7308L21.7269 24.1451ZM17.4843 19.9024L21.7269 24.1451L23.1412 22.7308L18.8985 18.4882L17.4843 19.9024Z" fill="#88EEBC"/>
<circle cx="16.0711" cy="17.0703" r="4" transform="rotate(-45 16.0711 17.0703)" stroke="#88EEBC" stroke-width="2"/>
</svg>
