<svg width="64" height="64" viewBox="0 0 64 64" fill="none" xmlns="http://www.w3.org/2000/svg">
<rect x="0.5" y="0.5" width="63" height="63" rx="11.5" fill="#1C1C1C" stroke="url(#paint0_linear_5031_97388)"/>
<path d="M17 29.5L30.6354 16.7737C31.4038 16.0565 32.5962 16.0565 33.3646 16.7737L47 29.5" stroke="#88EEBC" stroke-width="2"/>
<path d="M32 37L17.4472 29.7236C16.7823 29.3912 16 29.8747 16 30.618V45C16 47.2091 17.7909 49 20 49H44C46.2091 49 48 47.2091 48 45V30.618C48 29.8747 47.2177 29.3912 46.5528 29.7236L32 37Z" stroke="#88EEBC" stroke-width="2"/>
<path d="M32.8555 22.0018L32.8574 21.9H32.7556H31.2444H31.1426L31.1445 22.0018L31.2556 28.1796L31.2573 28.2778H31.3556H32.6444H32.7427L32.7444 28.1796L32.8555 22.0018ZM32.5515 31.4191L32.5521 31.4187C32.7176 31.3178 32.8497 31.1839 32.947 31.018C33.049 30.8503 33.1 30.6658 33.1 30.4667C33.1 30.1657 32.991 29.9052 32.7763 29.6904C32.5615 29.4756 32.301 29.3667 32 29.3667C31.699 29.3667 31.4385 29.4756 31.2237 29.6904C31.009 29.9052 30.9 30.1657 30.9 30.4667C30.9 30.7676 31.009 31.0282 31.2237 31.2429C31.4385 31.4577 31.699 31.5667 32 31.5667C32.202 31.5667 32.3866 31.518 32.5515 31.4191Z" fill="#88EEBC" stroke="#88EEBC" stroke-width="0.2"/>
<defs>
<linearGradient id="paint0_linear_5031_97388" x1="32" y1="0" x2="32" y2="64" gradientUnits="userSpaceOnUse">
<stop stop-color="#A2FACF" stop-opacity="0.16"/>
<stop offset="1" stop-color="#A2FACF" stop-opacity="0.07"/>
</linearGradient>
</defs>
</svg>
