<svg width="34" height="35" viewBox="0 0 34 35" fill="none" xmlns="http://www.w3.org/2000/svg">
<path d="M2 14.5L15.6354 1.77366C16.4038 1.05647 17.5962 1.05647 18.3646 1.77366L32 14.5" stroke="#88EEBC" stroke-width="2"/>
<path d="M17 22L2.44721 14.7236C1.78231 14.3912 1 14.8747 1 15.618V30C1 32.2091 2.79086 34 5 34H29C31.2091 34 33 32.2091 33 30V15.618C33 14.8747 32.2177 14.3912 31.5528 14.7236L17 22Z" stroke="#88EEBC" stroke-width="2"/>
<path d="M17.8555 7.0018L17.8574 6.9H17.7556H16.2444H16.1426L16.1445 7.0018L16.2556 13.1796L16.2573 13.2778H16.3556H17.6444H17.7427L17.7444 13.1796L17.8555 7.0018ZM17.5515 16.4191L17.5521 16.4187C17.7176 16.3178 17.8497 16.1839 17.947 16.018C18.049 15.8503 18.1 15.6658 18.1 15.4667C18.1 15.1657 17.991 14.9052 17.7763 14.6904C17.5615 14.4756 17.301 14.3667 17 14.3667C16.699 14.3667 16.4385 14.4756 16.2237 14.6904C16.009 14.9052 15.9 15.1657 15.9 15.4667C15.9 15.7676 16.009 16.0282 16.2237 16.2429C16.4385 16.4577 16.699 16.5667 17 16.5667C17.202 16.5667 17.3866 16.518 17.5515 16.4191Z" fill="#88EEBC" stroke="#88EEBC" stroke-width="0.2"/>
</svg>
