<svg width="1276" height="486" viewBox="0 0 1276 486" fill="none" xmlns="http://www.w3.org/2000/svg">
<mask id="mask0_4994_95983" style="mask-type:alpha" maskUnits="userSpaceOnUse" x="0" y="0" width="486" height="486">
<circle cx="243" cy="243" r="243" fill="url(#paint0_radial_4994_95983)"/>
</mask>
<g mask="url(#mask0_4994_95983)">
<rect x="16.6484" y="60.4766" width="60.519" height="60.519" stroke="#1F1F1F"/>
<rect x="16.6484" y="-0.273438" width="60.519" height="60.519" stroke="#1F1F1F"/>
<rect x="-44.1016" y="60.4766" width="60.519" height="60.519" fill="url(#paint1_linear_4994_95983)" fill-opacity="0.08" stroke="#1F1F1F"/>
<rect x="-44.1016" y="-0.273438" width="60.519" height="60.519" fill="url(#paint2_linear_4994_95983)" fill-opacity="0.08" stroke="#1F1F1F"/>
<rect x="138.148" y="60.4766" width="60.519" height="60.519" stroke="#1F1F1F"/>
<rect x="138.148" y="-0.273438" width="60.519" height="60.519" stroke="#1F1F1F"/>
<rect x="77.3984" y="60.4766" width="60.519" height="60.519" stroke="#1F1F1F"/>
<rect x="77.3984" y="-0.273438" width="60.519" height="60.519" stroke="#1F1F1F"/>
<rect x="198.898" y="60.4766" width="60.519" height="60.519" fill="url(#paint3_linear_4994_95983)" fill-opacity="0.08" stroke="#1F1F1F"/>
<rect x="198.898" y="-0.273438" width="60.519" height="60.519" fill="url(#paint4_linear_4994_95983)" fill-opacity="0.08" stroke="#1F1F1F"/>
<rect x="259.648" y="60.4766" width="60.519" height="60.519" stroke="#1F1F1F"/>
<rect x="259.648" y="-0.273438" width="60.519" height="60.519" stroke="#1F1F1F"/>
<rect x="381.148" y="60.4766" width="60.519" height="60.519" stroke="#1F1F1F"/>
<rect x="381.148" y="-0.273438" width="60.519" height="60.519" stroke="#1F1F1F"/>
<rect x="320.398" y="60.4766" width="60.519" height="60.519" stroke="#1F1F1F"/>
<rect x="320.398" y="-0.273438" width="60.519" height="60.519" stroke="#1F1F1F"/>
<rect x="441.898" y="60.4766" width="60.519" height="60.519" stroke="#1F1F1F"/>
<rect x="441.898" y="-0.273438" width="60.519" height="60.519" stroke="#1F1F1F"/>
<rect x="16.6484" y="121.227" width="60.519" height="60.519" stroke="#1F1F1F"/>
<rect x="16.6484" y="181.977" width="60.519" height="60.519" stroke="#1F1F1F"/>
<rect x="16.6484" y="364.227" width="60.519" height="60.519" stroke="#1F1F1F"/>
<rect x="16.6484" y="424.977" width="60.519" height="60.519" stroke="#1F1F1F"/>
<rect x="16.6484" y="242.727" width="60.519" height="60.519" stroke="#1F1F1F"/>
<rect x="16.6484" y="303.477" width="60.519" height="60.519" stroke="#1F1F1F"/>
<rect x="-44.1016" y="121.227" width="60.519" height="60.519" stroke="#1F1F1F"/>
<rect x="-44.1016" y="181.977" width="60.519" height="60.519" stroke="#1F1F1F"/>
<rect x="-44.1016" y="364.227" width="60.519" height="60.519" stroke="#1F1F1F"/>
<rect x="-44.1016" y="424.977" width="60.519" height="60.519" fill="url(#paint5_linear_4994_95983)" fill-opacity="0.08" stroke="#1F1F1F"/>
<rect x="-44.1016" y="242.727" width="60.519" height="60.519" fill="url(#paint6_linear_4994_95983)" fill-opacity="0.08" stroke="#1F1F1F"/>
<rect x="-44.1016" y="303.477" width="60.519" height="60.519" stroke="#1F1F1F"/>
<rect x="138.148" y="121.227" width="60.519" height="60.519" stroke="#1F1F1F"/>
<rect x="138.148" y="181.977" width="60.519" height="60.519" fill="url(#paint7_linear_4994_95983)" fill-opacity="0.08" stroke="#1F1F1F"/>
<rect x="138.148" y="364.227" width="60.519" height="60.519" stroke="#1F1F1F"/>
<rect x="138.148" y="424.977" width="60.519" height="60.519" stroke="#1F1F1F"/>
<rect x="138.148" y="242.727" width="60.519" height="60.519" stroke="#1F1F1F"/>
<rect x="138.148" y="303.477" width="60.519" height="60.519" stroke="#1F1F1F"/>
<rect x="77.3984" y="121.227" width="60.519" height="60.519" fill="url(#paint8_linear_4994_95983)" fill-opacity="0.08" stroke="#1F1F1F"/>
<rect x="77.3984" y="181.977" width="60.519" height="60.519" stroke="#1F1F1F"/>
<rect x="77.3984" y="364.227" width="60.519" height="60.519" stroke="#1F1F1F"/>
<rect x="77.3984" y="424.977" width="60.519" height="60.519" fill="url(#paint9_linear_4994_95983)" fill-opacity="0.08" stroke="#1F1F1F"/>
<rect x="77.3984" y="242.727" width="60.519" height="60.519" stroke="#1F1F1F"/>
<rect x="77.3984" y="303.477" width="60.519" height="60.519" fill="url(#paint10_linear_4994_95983)" fill-opacity="0.08" stroke="#1F1F1F"/>
<rect x="198.898" y="121.227" width="60.519" height="60.519" stroke="#1F1F1F"/>
<rect x="198.898" y="181.977" width="60.519" height="60.519" stroke="#1F1F1F"/>
<rect x="198.898" y="364.227" width="60.519" height="60.519" fill="url(#paint11_linear_4994_95983)" fill-opacity="0.08" stroke="#1F1F1F"/>
<rect x="198.898" y="242.727" width="60.519" height="60.519" stroke="#1F1F1F"/>
<rect x="198.898" y="303.477" width="60.519" height="60.519" stroke="#1F1F1F"/>
<rect x="259.648" y="121.227" width="60.519" height="60.519" fill="url(#paint12_linear_4994_95983)" fill-opacity="0.08" stroke="#1F1F1F"/>
<rect x="259.648" y="181.977" width="60.519" height="60.519" stroke="#1F1F1F"/>
<rect x="259.648" y="364.227" width="60.519" height="60.519" stroke="#1F1F1F"/>
<rect x="259.648" y="424.977" width="60.519" height="60.519" stroke="#1F1F1F"/>
<rect x="259.648" y="242.727" width="60.519" height="60.519" fill="url(#paint13_linear_4994_95983)" fill-opacity="0.08" stroke="#1F1F1F"/>
<rect x="259.648" y="303.477" width="60.519" height="60.519" stroke="#1F1F1F"/>
<rect x="381.148" y="121.227" width="60.519" height="60.519" fill="url(#paint14_linear_4994_95983)" fill-opacity="0.08" stroke="#1F1F1F"/>
<rect x="381.148" y="181.977" width="60.519" height="60.519" stroke="#1F1F1F"/>
<rect x="381.148" y="364.227" width="60.519" height="60.519" stroke="#1F1F1F"/>
<rect x="381.148" y="424.977" width="60.519" height="60.519" stroke="#1F1F1F"/>
<rect x="381.148" y="242.727" width="60.519" height="60.519" stroke="#1F1F1F"/>
<rect x="381.148" y="303.477" width="60.519" height="60.519" stroke="#1F1F1F"/>
<rect x="320.398" y="121.227" width="60.519" height="60.519" stroke="#1F1F1F"/>
<rect x="320.398" y="181.977" width="60.519" height="60.519" stroke="#1F1F1F"/>
<rect x="320.398" y="364.227" width="60.519" height="60.519" fill="url(#paint15_linear_4994_95983)" fill-opacity="0.08" stroke="#1F1F1F"/>
<rect x="320.398" y="424.977" width="60.519" height="60.519" stroke="#1F1F1F"/>
<rect x="320.398" y="242.727" width="60.519" height="60.519" stroke="#1F1F1F"/>
<rect x="320.398" y="303.477" width="60.519" height="60.519" stroke="#1F1F1F"/>
<rect x="441.898" y="121.227" width="60.519" height="60.519" stroke="#1F1F1F"/>
<rect x="441.898" y="181.977" width="60.519" height="60.519" stroke="#1F1F1F"/>
<rect x="441.898" y="364.227" width="60.519" height="60.519" stroke="#1F1F1F"/>
<rect x="441.898" y="424.977" width="60.519" height="60.519" fill="url(#paint16_linear_4994_95983)" fill-opacity="0.08" stroke="#1F1F1F"/>
<rect x="441.898" y="242.727" width="60.519" height="60.519" fill="url(#paint17_linear_4994_95983)" fill-opacity="0.08" stroke="#1F1F1F"/>
<rect x="441.898" y="303.477" width="60.519" height="60.519" stroke="#1F1F1F"/>
<line y1="-0.5" x2="60.75" y2="-0.5" transform="matrix(1 0 0 -1 380.648 59.9766)" stroke="url(#paint18_linear_4994_95983)"/>
<line y1="-0.5" x2="60.75" y2="-0.5" transform="matrix(1 0 0 -1 441.398 -0.773438)" stroke="url(#paint19_linear_4994_95983)"/>
<line x1="16.1484" y1="424.742" x2="77.6674" y2="424.742" stroke="url(#paint20_linear_4994_95983)"/>
<line x1="-44.6016" y1="485.492" x2="16.9174" y2="485.492" stroke="url(#paint21_linear_4994_95983)"/>
<line x1="16.6484" y1="425.242" x2="16.6484" y2="485.992" stroke="url(#paint22_linear_4994_95983)"/>
<line x1="441.898" y1="-0.773438" x2="441.898" y2="60.7455" stroke="url(#paint23_linear_4994_95983)"/>
</g>
<mask id="mask1_4994_95983" style="mask-type:alpha" maskUnits="userSpaceOnUse" x="790" y="0" width="486" height="486">
<circle cx="1033" cy="243" r="243" fill="url(#paint24_radial_4994_95983)"/>
</mask>
<g mask="url(#mask1_4994_95983)">
<rect x="806.648" y="60.4766" width="60.519" height="60.519" stroke="#1F1F1F"/>
<rect x="806.648" y="-0.273438" width="60.519" height="60.519" stroke="#1F1F1F"/>
<rect x="745.898" y="60.4766" width="60.519" height="60.519" fill="url(#paint25_linear_4994_95983)" fill-opacity="0.08" stroke="#1F1F1F"/>
<rect x="745.898" y="-0.273438" width="60.519" height="60.519" fill="url(#paint26_linear_4994_95983)" fill-opacity="0.08" stroke="#1F1F1F"/>
<rect x="928.148" y="60.4766" width="60.519" height="60.519" stroke="#1F1F1F"/>
<rect x="928.148" y="-0.273438" width="60.519" height="60.519" stroke="#1F1F1F"/>
<rect x="867.398" y="60.4766" width="60.519" height="60.519" stroke="#1F1F1F"/>
<rect x="867.398" y="-0.273438" width="60.519" height="60.519" stroke="#1F1F1F"/>
<rect x="988.898" y="60.4766" width="60.519" height="60.519" fill="url(#paint27_linear_4994_95983)" fill-opacity="0.08" stroke="#1F1F1F"/>
<rect x="988.898" y="-0.273438" width="60.519" height="60.519" fill="url(#paint28_linear_4994_95983)" fill-opacity="0.08" stroke="#1F1F1F"/>
<rect x="1049.65" y="60.4766" width="60.519" height="60.519" stroke="#1F1F1F"/>
<rect x="1049.65" y="-0.273438" width="60.519" height="60.519" stroke="#1F1F1F"/>
<rect x="1171.15" y="60.4766" width="60.519" height="60.519" stroke="#1F1F1F"/>
<rect x="1171.15" y="-0.273438" width="60.519" height="60.519" stroke="#1F1F1F"/>
<rect x="1110.4" y="60.4766" width="60.519" height="60.519" stroke="#1F1F1F"/>
<rect x="1110.4" y="-0.273438" width="60.519" height="60.519" stroke="#1F1F1F"/>
<rect x="1231.9" y="60.4766" width="60.519" height="60.519" stroke="#1F1F1F"/>
<rect x="1231.9" y="-0.273438" width="60.519" height="60.519" stroke="#1F1F1F"/>
<rect x="806.648" y="121.227" width="60.519" height="60.519" stroke="#1F1F1F"/>
<rect x="806.648" y="181.977" width="60.519" height="60.519" stroke="#1F1F1F"/>
<rect x="806.648" y="364.227" width="60.519" height="60.519" stroke="#1F1F1F"/>
<rect x="806.648" y="424.977" width="60.519" height="60.519" stroke="#1F1F1F"/>
<rect x="806.648" y="242.727" width="60.519" height="60.519" stroke="#1F1F1F"/>
<rect x="806.648" y="303.477" width="60.519" height="60.519" stroke="#1F1F1F"/>
<rect x="745.898" y="121.227" width="60.519" height="60.519" stroke="#1F1F1F"/>
<rect x="745.898" y="181.977" width="60.519" height="60.519" stroke="#1F1F1F"/>
<rect x="745.898" y="364.227" width="60.519" height="60.519" stroke="#1F1F1F"/>
<rect x="745.898" y="424.977" width="60.519" height="60.519" fill="url(#paint29_linear_4994_95983)" fill-opacity="0.08" stroke="#1F1F1F"/>
<rect x="745.898" y="242.727" width="60.519" height="60.519" fill="url(#paint30_linear_4994_95983)" fill-opacity="0.08" stroke="#1F1F1F"/>
<rect x="745.898" y="303.477" width="60.519" height="60.519" stroke="#1F1F1F"/>
<rect x="928.148" y="121.227" width="60.519" height="60.519" stroke="#1F1F1F"/>
<rect x="928.148" y="181.977" width="60.519" height="60.519" fill="url(#paint31_linear_4994_95983)" fill-opacity="0.08" stroke="#1F1F1F"/>
<rect x="928.148" y="364.227" width="60.519" height="60.519" stroke="#1F1F1F"/>
<rect x="928.148" y="424.977" width="60.519" height="60.519" stroke="#1F1F1F"/>
<rect x="928.148" y="242.727" width="60.519" height="60.519" stroke="#1F1F1F"/>
<rect x="928.148" y="303.477" width="60.519" height="60.519" stroke="#1F1F1F"/>
<rect x="867.398" y="121.227" width="60.519" height="60.519" fill="url(#paint32_linear_4994_95983)" fill-opacity="0.08" stroke="#1F1F1F"/>
<rect x="867.398" y="181.977" width="60.519" height="60.519" stroke="#1F1F1F"/>
<rect x="867.398" y="364.227" width="60.519" height="60.519" stroke="#1F1F1F"/>
<rect x="867.398" y="424.977" width="60.519" height="60.519" fill="url(#paint33_linear_4994_95983)" fill-opacity="0.08" stroke="#1F1F1F"/>
<rect x="867.398" y="242.727" width="60.519" height="60.519" stroke="#1F1F1F"/>
<rect x="867.398" y="303.477" width="60.519" height="60.519" fill="url(#paint34_linear_4994_95983)" fill-opacity="0.08" stroke="#1F1F1F"/>
<rect x="988.898" y="121.227" width="60.519" height="60.519" stroke="#1F1F1F"/>
<rect x="988.898" y="181.977" width="60.519" height="60.519" stroke="#1F1F1F"/>
<rect x="988.898" y="364.227" width="60.519" height="60.519" fill="url(#paint35_linear_4994_95983)" fill-opacity="0.08" stroke="#1F1F1F"/>
<rect x="988.898" y="242.727" width="60.519" height="60.519" stroke="#1F1F1F"/>
<rect x="988.898" y="303.477" width="60.519" height="60.519" stroke="#1F1F1F"/>
<rect x="1049.65" y="121.227" width="60.519" height="60.519" fill="url(#paint36_linear_4994_95983)" fill-opacity="0.08" stroke="#1F1F1F"/>
<rect x="1049.65" y="181.977" width="60.519" height="60.519" stroke="#1F1F1F"/>
<rect x="1049.65" y="364.227" width="60.519" height="60.519" stroke="#1F1F1F"/>
<rect x="1049.65" y="424.977" width="60.519" height="60.519" stroke="#1F1F1F"/>
<rect x="1049.65" y="242.727" width="60.519" height="60.519" fill="url(#paint37_linear_4994_95983)" fill-opacity="0.08" stroke="#1F1F1F"/>
<rect x="1049.65" y="303.477" width="60.519" height="60.519" stroke="#1F1F1F"/>
<rect x="1171.15" y="121.227" width="60.519" height="60.519" fill="url(#paint38_linear_4994_95983)" fill-opacity="0.08" stroke="#1F1F1F"/>
<rect x="1171.15" y="181.977" width="60.519" height="60.519" stroke="#1F1F1F"/>
<rect x="1171.15" y="364.227" width="60.519" height="60.519" stroke="#1F1F1F"/>
<rect x="1171.15" y="424.977" width="60.519" height="60.519" stroke="#1F1F1F"/>
<rect x="1171.15" y="242.727" width="60.519" height="60.519" stroke="#1F1F1F"/>
<rect x="1171.15" y="303.477" width="60.519" height="60.519" stroke="#1F1F1F"/>
<rect x="1110.4" y="121.227" width="60.519" height="60.519" stroke="#1F1F1F"/>
<rect x="1110.4" y="181.977" width="60.519" height="60.519" stroke="#1F1F1F"/>
<rect x="1110.4" y="364.227" width="60.519" height="60.519" fill="url(#paint39_linear_4994_95983)" fill-opacity="0.08" stroke="#1F1F1F"/>
<rect x="1110.4" y="424.977" width="60.519" height="60.519" stroke="#1F1F1F"/>
<rect x="1110.4" y="242.727" width="60.519" height="60.519" stroke="#1F1F1F"/>
<rect x="1110.4" y="303.477" width="60.519" height="60.519" stroke="#1F1F1F"/>
<rect x="1231.9" y="121.227" width="60.519" height="60.519" stroke="#1F1F1F"/>
<rect x="1231.9" y="181.977" width="60.519" height="60.519" stroke="#1F1F1F"/>
<rect x="1231.9" y="364.227" width="60.519" height="60.519" stroke="#1F1F1F"/>
<rect x="1231.9" y="424.977" width="60.519" height="60.519" fill="url(#paint40_linear_4994_95983)" fill-opacity="0.08" stroke="#1F1F1F"/>
<rect x="1231.9" y="242.727" width="60.519" height="60.519" fill="url(#paint41_linear_4994_95983)" fill-opacity="0.08" stroke="#1F1F1F"/>
<rect x="1231.9" y="303.477" width="60.519" height="60.519" stroke="#1F1F1F"/>
<line y1="-0.5" x2="60.75" y2="-0.5" transform="matrix(1 0 0 -1 1170.65 59.9766)" stroke="url(#paint42_linear_4994_95983)"/>
<line y1="-0.5" x2="60.75" y2="-0.5" transform="matrix(1 0 0 -1 1231.4 -0.773438)" stroke="url(#paint43_linear_4994_95983)"/>
<line x1="806.148" y1="424.742" x2="867.667" y2="424.742" stroke="url(#paint44_linear_4994_95983)"/>
<line x1="745.398" y1="485.492" x2="806.917" y2="485.492" stroke="url(#paint45_linear_4994_95983)"/>
<line x1="806.648" y1="425.242" x2="806.648" y2="485.992" stroke="url(#paint46_linear_4994_95983)"/>
<line x1="1231.9" y1="-0.773438" x2="1231.9" y2="60.7455" stroke="url(#paint47_linear_4994_95983)"/>
</g>
<mask id="mask2_4994_95983" style="mask-type:alpha" maskUnits="userSpaceOnUse" x="365" y="0" width="486" height="486">
<circle cx="608" cy="243" r="243" fill="url(#paint48_radial_4994_95983)"/>
</mask>
<g mask="url(#mask2_4994_95983)">
<rect x="381.648" y="60.4766" width="60.519" height="60.519" stroke="#1F1F1F"/>
<rect x="381.648" y="-0.273438" width="60.519" height="60.519" stroke="#1F1F1F"/>
<rect x="320.898" y="60.4766" width="60.519" height="60.519" fill="url(#paint49_linear_4994_95983)" fill-opacity="0.08" stroke="#1F1F1F"/>
<rect x="320.898" y="-0.273438" width="60.519" height="60.519" fill="url(#paint50_linear_4994_95983)" fill-opacity="0.08" stroke="#1F1F1F"/>
<rect x="503.148" y="60.4766" width="60.519" height="60.519" stroke="#1F1F1F"/>
<rect x="503.148" y="-0.273438" width="60.519" height="60.519" stroke="#1F1F1F"/>
<rect x="442.398" y="60.4766" width="60.519" height="60.519" stroke="#1F1F1F"/>
<rect x="442.398" y="-0.273438" width="60.519" height="60.519" stroke="#1F1F1F"/>
<rect x="563.898" y="60.4766" width="60.519" height="60.519" fill="url(#paint51_linear_4994_95983)" fill-opacity="0.08" stroke="#1F1F1F"/>
<rect x="563.898" y="-0.273438" width="60.519" height="60.519" fill="url(#paint52_linear_4994_95983)" fill-opacity="0.08" stroke="#1F1F1F"/>
<rect x="624.648" y="60.4766" width="60.519" height="60.519" stroke="#1F1F1F"/>
<rect x="624.648" y="-0.273438" width="60.519" height="60.519" stroke="#1F1F1F"/>
<rect x="746.148" y="60.4766" width="60.519" height="60.519" stroke="#1F1F1F"/>
<rect x="746.148" y="-0.273438" width="60.519" height="60.519" stroke="#1F1F1F"/>
<rect x="685.398" y="60.4766" width="60.519" height="60.519" stroke="#1F1F1F"/>
<rect x="685.398" y="-0.273438" width="60.519" height="60.519" stroke="#1F1F1F"/>
<rect x="806.898" y="60.4766" width="60.519" height="60.519" stroke="#1F1F1F"/>
<rect x="806.898" y="-0.273438" width="60.519" height="60.519" stroke="#1F1F1F"/>
<rect x="381.648" y="121.227" width="60.519" height="60.519" stroke="#1F1F1F"/>
<rect x="381.648" y="181.977" width="60.519" height="60.519" stroke="#1F1F1F"/>
<rect x="381.648" y="364.227" width="60.519" height="60.519" stroke="#1F1F1F"/>
<rect x="381.648" y="424.977" width="60.519" height="60.519" stroke="#1F1F1F"/>
<rect x="381.648" y="242.727" width="60.519" height="60.519" stroke="#1F1F1F"/>
<rect x="381.648" y="303.477" width="60.519" height="60.519" stroke="#1F1F1F"/>
<rect x="320.898" y="121.227" width="60.519" height="60.519" stroke="#1F1F1F"/>
<rect x="320.898" y="181.977" width="60.519" height="60.519" stroke="#1F1F1F"/>
<rect x="320.898" y="364.227" width="60.519" height="60.519" stroke="#1F1F1F"/>
<rect x="320.898" y="424.977" width="60.519" height="60.519" fill="url(#paint53_linear_4994_95983)" fill-opacity="0.08" stroke="#1F1F1F"/>
<rect x="320.898" y="242.727" width="60.519" height="60.519" fill="url(#paint54_linear_4994_95983)" fill-opacity="0.08" stroke="#1F1F1F"/>
<rect x="320.898" y="303.477" width="60.519" height="60.519" stroke="#1F1F1F"/>
<rect x="503.148" y="121.227" width="60.519" height="60.519" stroke="#1F1F1F"/>
<rect x="503.148" y="181.977" width="60.519" height="60.519" fill="url(#paint55_linear_4994_95983)" fill-opacity="0.08" stroke="#1F1F1F"/>
<rect x="503.148" y="364.227" width="60.519" height="60.519" stroke="#1F1F1F"/>
<rect x="503.148" y="424.977" width="60.519" height="60.519" stroke="#1F1F1F"/>
<rect x="503.148" y="242.727" width="60.519" height="60.519" stroke="#1F1F1F"/>
<rect x="503.148" y="303.477" width="60.519" height="60.519" stroke="#1F1F1F"/>
<rect x="442.398" y="121.227" width="60.519" height="60.519" fill="url(#paint56_linear_4994_95983)" fill-opacity="0.08" stroke="#1F1F1F"/>
<rect x="442.398" y="181.977" width="60.519" height="60.519" stroke="#1F1F1F"/>
<rect x="442.398" y="364.227" width="60.519" height="60.519" stroke="#1F1F1F"/>
<rect x="442.398" y="424.977" width="60.519" height="60.519" fill="url(#paint57_linear_4994_95983)" fill-opacity="0.08" stroke="#1F1F1F"/>
<rect x="442.398" y="242.727" width="60.519" height="60.519" stroke="#1F1F1F"/>
<rect x="442.398" y="303.477" width="60.519" height="60.519" fill="url(#paint58_linear_4994_95983)" fill-opacity="0.08" stroke="#1F1F1F"/>
<rect x="563.898" y="121.227" width="60.519" height="60.519" stroke="#1F1F1F"/>
<rect x="563.898" y="181.977" width="60.519" height="60.519" stroke="#1F1F1F"/>
<rect x="563.898" y="364.227" width="60.519" height="60.519" fill="url(#paint59_linear_4994_95983)" fill-opacity="0.08" stroke="#1F1F1F"/>
<rect x="563.898" y="242.727" width="60.519" height="60.519" stroke="#1F1F1F"/>
<rect x="563.898" y="303.477" width="60.519" height="60.519" stroke="#1F1F1F"/>
<rect x="624.648" y="121.227" width="60.519" height="60.519" fill="url(#paint60_linear_4994_95983)" fill-opacity="0.08" stroke="#1F1F1F"/>
<rect x="624.648" y="181.977" width="60.519" height="60.519" stroke="#1F1F1F"/>
<rect x="624.648" y="364.227" width="60.519" height="60.519" stroke="#1F1F1F"/>
<rect x="624.648" y="424.977" width="60.519" height="60.519" stroke="#1F1F1F"/>
<rect x="624.648" y="242.727" width="60.519" height="60.519" fill="url(#paint61_linear_4994_95983)" fill-opacity="0.08" stroke="#1F1F1F"/>
<rect x="624.648" y="303.477" width="60.519" height="60.519" stroke="#1F1F1F"/>
<rect x="746.148" y="121.227" width="60.519" height="60.519" fill="url(#paint62_linear_4994_95983)" fill-opacity="0.08" stroke="#1F1F1F"/>
<rect x="746.148" y="181.977" width="60.519" height="60.519" stroke="#1F1F1F"/>
<rect x="746.148" y="364.227" width="60.519" height="60.519" stroke="#1F1F1F"/>
<rect x="746.148" y="424.977" width="60.519" height="60.519" stroke="#1F1F1F"/>
<rect x="746.148" y="242.727" width="60.519" height="60.519" stroke="#1F1F1F"/>
<rect x="746.148" y="303.477" width="60.519" height="60.519" stroke="#1F1F1F"/>
<rect x="685.398" y="121.227" width="60.519" height="60.519" stroke="#1F1F1F"/>
<rect x="685.398" y="181.977" width="60.519" height="60.519" stroke="#1F1F1F"/>
<rect x="685.398" y="364.227" width="60.519" height="60.519" fill="url(#paint63_linear_4994_95983)" fill-opacity="0.08" stroke="#1F1F1F"/>
<rect x="685.398" y="424.977" width="60.519" height="60.519" stroke="#1F1F1F"/>
<rect x="685.398" y="242.727" width="60.519" height="60.519" stroke="#1F1F1F"/>
<rect x="685.398" y="303.477" width="60.519" height="60.519" stroke="#1F1F1F"/>
<rect x="806.898" y="121.227" width="60.519" height="60.519" stroke="#1F1F1F"/>
<rect x="806.898" y="181.977" width="60.519" height="60.519" stroke="#1F1F1F"/>
<rect x="806.898" y="364.227" width="60.519" height="60.519" stroke="#1F1F1F"/>
<rect x="806.898" y="424.977" width="60.519" height="60.519" fill="url(#paint64_linear_4994_95983)" fill-opacity="0.08" stroke="#1F1F1F"/>
<rect x="806.898" y="242.727" width="60.519" height="60.519" fill="url(#paint65_linear_4994_95983)" fill-opacity="0.08" stroke="#1F1F1F"/>
<rect x="806.898" y="303.477" width="60.519" height="60.519" stroke="#1F1F1F"/>
<line y1="-0.5" x2="60.75" y2="-0.5" transform="matrix(1 0 0 -1 745.648 59.9766)" stroke="url(#paint66_linear_4994_95983)"/>
<line y1="-0.5" x2="60.75" y2="-0.5" transform="matrix(1 0 0 -1 806.398 -0.773438)" stroke="url(#paint67_linear_4994_95983)"/>
<line x1="381.148" y1="424.742" x2="442.667" y2="424.742" stroke="url(#paint68_linear_4994_95983)"/>
<line x1="320.398" y1="485.492" x2="381.917" y2="485.492" stroke="url(#paint69_linear_4994_95983)"/>
<line x1="381.648" y1="425.242" x2="381.648" y2="485.992" stroke="url(#paint70_linear_4994_95983)"/>
<line x1="806.898" y1="-0.773438" x2="806.898" y2="60.7455" stroke="url(#paint71_linear_4994_95983)"/>
</g>
<defs>
<radialGradient id="paint0_radial_4994_95983" cx="0" cy="0" r="1" gradientUnits="userSpaceOnUse" gradientTransform="translate(243 243) rotate(90) scale(243)">
<stop/>
<stop offset="1" stop-opacity="0"/>
</radialGradient>
<linearGradient id="paint1_linear_4994_95983" x1="-13.8421" y1="59.9766" x2="-13.8421" y2="121.496" gradientUnits="userSpaceOnUse">
<stop stop-color="#F1F1F1"/>
<stop offset="1" stop-color="#808080"/>
</linearGradient>
<linearGradient id="paint2_linear_4994_95983" x1="-13.8421" y1="-0.773438" x2="-13.8421" y2="60.7455" gradientUnits="userSpaceOnUse">
<stop stop-color="#F1F1F1"/>
<stop offset="1" stop-color="#808080"/>
</linearGradient>
<linearGradient id="paint3_linear_4994_95983" x1="229.158" y1="59.9766" x2="229.158" y2="121.496" gradientUnits="userSpaceOnUse">
<stop stop-color="#F1F1F1"/>
<stop offset="1" stop-color="#808080"/>
</linearGradient>
<linearGradient id="paint4_linear_4994_95983" x1="229.158" y1="-0.773438" x2="229.158" y2="60.7455" gradientUnits="userSpaceOnUse">
<stop stop-color="#F1F1F1"/>
<stop offset="1" stop-color="#808080"/>
</linearGradient>
<linearGradient id="paint5_linear_4994_95983" x1="-13.8421" y1="424.477" x2="-13.8421" y2="485.996" gradientUnits="userSpaceOnUse">
<stop stop-color="#F1F1F1"/>
<stop offset="1" stop-color="#808080"/>
</linearGradient>
<linearGradient id="paint6_linear_4994_95983" x1="-13.8421" y1="242.227" x2="-13.8421" y2="303.746" gradientUnits="userSpaceOnUse">
<stop stop-color="#F1F1F1"/>
<stop offset="1" stop-color="#808080"/>
</linearGradient>
<linearGradient id="paint7_linear_4994_95983" x1="168.408" y1="181.477" x2="168.408" y2="242.996" gradientUnits="userSpaceOnUse">
<stop stop-color="#F1F1F1"/>
<stop offset="1" stop-color="#808080"/>
</linearGradient>
<linearGradient id="paint8_linear_4994_95983" x1="107.658" y1="120.727" x2="107.658" y2="182.246" gradientUnits="userSpaceOnUse">
<stop stop-color="#F1F1F1"/>
<stop offset="1" stop-color="#808080"/>
</linearGradient>
<linearGradient id="paint9_linear_4994_95983" x1="107.658" y1="424.477" x2="107.658" y2="485.996" gradientUnits="userSpaceOnUse">
<stop stop-color="#F1F1F1"/>
<stop offset="1" stop-color="#808080"/>
</linearGradient>
<linearGradient id="paint10_linear_4994_95983" x1="107.658" y1="302.977" x2="107.658" y2="364.496" gradientUnits="userSpaceOnUse">
<stop stop-color="#F1F1F1"/>
<stop offset="1" stop-color="#808080"/>
</linearGradient>
<linearGradient id="paint11_linear_4994_95983" x1="229.158" y1="363.727" x2="229.158" y2="425.246" gradientUnits="userSpaceOnUse">
<stop stop-color="#F1F1F1"/>
<stop offset="1" stop-color="#808080"/>
</linearGradient>
<linearGradient id="paint12_linear_4994_95983" x1="289.908" y1="120.727" x2="289.908" y2="182.246" gradientUnits="userSpaceOnUse">
<stop stop-color="#F1F1F1"/>
<stop offset="1" stop-color="#808080"/>
</linearGradient>
<linearGradient id="paint13_linear_4994_95983" x1="289.908" y1="242.227" x2="289.908" y2="303.746" gradientUnits="userSpaceOnUse">
<stop stop-color="#F1F1F1"/>
<stop offset="1" stop-color="#808080"/>
</linearGradient>
<linearGradient id="paint14_linear_4994_95983" x1="411.408" y1="120.727" x2="411.408" y2="182.246" gradientUnits="userSpaceOnUse">
<stop stop-color="#F1F1F1"/>
<stop offset="1" stop-color="#808080"/>
</linearGradient>
<linearGradient id="paint15_linear_4994_95983" x1="350.658" y1="363.727" x2="350.658" y2="425.246" gradientUnits="userSpaceOnUse">
<stop stop-color="#F1F1F1"/>
<stop offset="1" stop-color="#808080"/>
</linearGradient>
<linearGradient id="paint16_linear_4994_95983" x1="472.158" y1="424.477" x2="472.158" y2="485.996" gradientUnits="userSpaceOnUse">
<stop stop-color="#F1F1F1"/>
<stop offset="1" stop-color="#808080"/>
</linearGradient>
<linearGradient id="paint17_linear_4994_95983" x1="472.158" y1="242.227" x2="472.158" y2="303.746" gradientUnits="userSpaceOnUse">
<stop stop-color="#F1F1F1"/>
<stop offset="1" stop-color="#808080"/>
</linearGradient>
<linearGradient id="paint18_linear_4994_95983" x1="30.9207" y1="-1.50011" x2="-0.000930411" y2="-1.43394" gradientUnits="userSpaceOnUse">
<stop stop-color="#FFE993"/>
<stop offset="1" stop-color="#EB831C"/>
</linearGradient>
<linearGradient id="paint19_linear_4994_95983" x1="30.9207" y1="-1.50011" x2="-0.000930411" y2="-1.43394" gradientUnits="userSpaceOnUse">
<stop stop-color="#FFE993"/>
<stop offset="1" stop-color="#EB831C"/>
</linearGradient>
<linearGradient id="paint20_linear_4994_95983" x1="47.4605" y1="423.742" x2="16.1475" y2="423.81" gradientUnits="userSpaceOnUse">
<stop stop-color="#FFE993"/>
<stop offset="1" stop-color="#EB831C"/>
</linearGradient>
<linearGradient id="paint21_linear_4994_95983" x1="-13.2895" y1="484.492" x2="-44.6025" y2="484.56" gradientUnits="userSpaceOnUse">
<stop stop-color="#FFE993"/>
<stop offset="1" stop-color="#EB831C"/>
</linearGradient>
<linearGradient id="paint22_linear_4994_95983" x1="17.6485" y1="456.163" x2="17.5824" y2="425.241" gradientUnits="userSpaceOnUse">
<stop stop-color="#FFE993"/>
<stop offset="1" stop-color="#EB831C"/>
</linearGradient>
<linearGradient id="paint23_linear_4994_95983" x1="442.899" y1="30.5386" x2="442.831" y2="-0.774376" gradientUnits="userSpaceOnUse">
<stop stop-color="#FFE993"/>
<stop offset="1" stop-color="#EB831C"/>
</linearGradient>
<radialGradient id="paint24_radial_4994_95983" cx="0" cy="0" r="1" gradientUnits="userSpaceOnUse" gradientTransform="translate(1033 243) rotate(90) scale(243)">
<stop/>
<stop offset="1" stop-opacity="0"/>
</radialGradient>
<linearGradient id="paint25_linear_4994_95983" x1="776.158" y1="59.9766" x2="776.158" y2="121.496" gradientUnits="userSpaceOnUse">
<stop stop-color="#F1F1F1"/>
<stop offset="1" stop-color="#808080"/>
</linearGradient>
<linearGradient id="paint26_linear_4994_95983" x1="776.158" y1="-0.773438" x2="776.158" y2="60.7455" gradientUnits="userSpaceOnUse">
<stop stop-color="#F1F1F1"/>
<stop offset="1" stop-color="#808080"/>
</linearGradient>
<linearGradient id="paint27_linear_4994_95983" x1="1019.16" y1="59.9766" x2="1019.16" y2="121.496" gradientUnits="userSpaceOnUse">
<stop stop-color="#F1F1F1"/>
<stop offset="1" stop-color="#808080"/>
</linearGradient>
<linearGradient id="paint28_linear_4994_95983" x1="1019.16" y1="-0.773438" x2="1019.16" y2="60.7455" gradientUnits="userSpaceOnUse">
<stop stop-color="#F1F1F1"/>
<stop offset="1" stop-color="#808080"/>
</linearGradient>
<linearGradient id="paint29_linear_4994_95983" x1="776.158" y1="424.477" x2="776.158" y2="485.996" gradientUnits="userSpaceOnUse">
<stop stop-color="#F1F1F1"/>
<stop offset="1" stop-color="#808080"/>
</linearGradient>
<linearGradient id="paint30_linear_4994_95983" x1="776.158" y1="242.227" x2="776.158" y2="303.746" gradientUnits="userSpaceOnUse">
<stop stop-color="#F1F1F1"/>
<stop offset="1" stop-color="#808080"/>
</linearGradient>
<linearGradient id="paint31_linear_4994_95983" x1="958.408" y1="181.477" x2="958.408" y2="242.996" gradientUnits="userSpaceOnUse">
<stop stop-color="#F1F1F1"/>
<stop offset="1" stop-color="#808080"/>
</linearGradient>
<linearGradient id="paint32_linear_4994_95983" x1="897.658" y1="120.727" x2="897.658" y2="182.246" gradientUnits="userSpaceOnUse">
<stop stop-color="#F1F1F1"/>
<stop offset="1" stop-color="#808080"/>
</linearGradient>
<linearGradient id="paint33_linear_4994_95983" x1="897.658" y1="424.477" x2="897.658" y2="485.996" gradientUnits="userSpaceOnUse">
<stop stop-color="#F1F1F1"/>
<stop offset="1" stop-color="#808080"/>
</linearGradient>
<linearGradient id="paint34_linear_4994_95983" x1="897.658" y1="302.977" x2="897.658" y2="364.496" gradientUnits="userSpaceOnUse">
<stop stop-color="#F1F1F1"/>
<stop offset="1" stop-color="#808080"/>
</linearGradient>
<linearGradient id="paint35_linear_4994_95983" x1="1019.16" y1="363.727" x2="1019.16" y2="425.246" gradientUnits="userSpaceOnUse">
<stop stop-color="#F1F1F1"/>
<stop offset="1" stop-color="#808080"/>
</linearGradient>
<linearGradient id="paint36_linear_4994_95983" x1="1079.91" y1="120.727" x2="1079.91" y2="182.246" gradientUnits="userSpaceOnUse">
<stop stop-color="#F1F1F1"/>
<stop offset="1" stop-color="#808080"/>
</linearGradient>
<linearGradient id="paint37_linear_4994_95983" x1="1079.91" y1="242.227" x2="1079.91" y2="303.746" gradientUnits="userSpaceOnUse">
<stop stop-color="#F1F1F1"/>
<stop offset="1" stop-color="#808080"/>
</linearGradient>
<linearGradient id="paint38_linear_4994_95983" x1="1201.41" y1="120.727" x2="1201.41" y2="182.246" gradientUnits="userSpaceOnUse">
<stop stop-color="#F1F1F1"/>
<stop offset="1" stop-color="#808080"/>
</linearGradient>
<linearGradient id="paint39_linear_4994_95983" x1="1140.66" y1="363.727" x2="1140.66" y2="425.246" gradientUnits="userSpaceOnUse">
<stop stop-color="#F1F1F1"/>
<stop offset="1" stop-color="#808080"/>
</linearGradient>
<linearGradient id="paint40_linear_4994_95983" x1="1262.16" y1="424.477" x2="1262.16" y2="485.996" gradientUnits="userSpaceOnUse">
<stop stop-color="#F1F1F1"/>
<stop offset="1" stop-color="#808080"/>
</linearGradient>
<linearGradient id="paint41_linear_4994_95983" x1="1262.16" y1="242.227" x2="1262.16" y2="303.746" gradientUnits="userSpaceOnUse">
<stop stop-color="#F1F1F1"/>
<stop offset="1" stop-color="#808080"/>
</linearGradient>
<linearGradient id="paint42_linear_4994_95983" x1="30.9207" y1="-1.50011" x2="-0.000930411" y2="-1.43394" gradientUnits="userSpaceOnUse">
<stop stop-color="#FFE993"/>
<stop offset="1" stop-color="#EB831C"/>
</linearGradient>
<linearGradient id="paint43_linear_4994_95983" x1="30.9207" y1="-1.50011" x2="-0.000930411" y2="-1.43394" gradientUnits="userSpaceOnUse">
<stop stop-color="#FFE993"/>
<stop offset="1" stop-color="#EB831C"/>
</linearGradient>
<linearGradient id="paint44_linear_4994_95983" x1="837.46" y1="423.742" x2="806.147" y2="423.81" gradientUnits="userSpaceOnUse">
<stop stop-color="#FFE993"/>
<stop offset="1" stop-color="#EB831C"/>
</linearGradient>
<linearGradient id="paint45_linear_4994_95983" x1="776.71" y1="484.492" x2="745.397" y2="484.56" gradientUnits="userSpaceOnUse">
<stop stop-color="#FFE993"/>
<stop offset="1" stop-color="#EB831C"/>
</linearGradient>
<linearGradient id="paint46_linear_4994_95983" x1="807.649" y1="456.163" x2="807.582" y2="425.241" gradientUnits="userSpaceOnUse">
<stop stop-color="#FFE993"/>
<stop offset="1" stop-color="#EB831C"/>
</linearGradient>
<linearGradient id="paint47_linear_4994_95983" x1="1232.9" y1="30.5386" x2="1232.83" y2="-0.774376" gradientUnits="userSpaceOnUse">
<stop stop-color="#FFE993"/>
<stop offset="1" stop-color="#EB831C"/>
</linearGradient>
<radialGradient id="paint48_radial_4994_95983" cx="0" cy="0" r="1" gradientUnits="userSpaceOnUse" gradientTransform="translate(608 243) rotate(90) scale(243)">
<stop/>
<stop offset="1" stop-opacity="0"/>
</radialGradient>
<linearGradient id="paint49_linear_4994_95983" x1="351.158" y1="59.9766" x2="351.158" y2="121.496" gradientUnits="userSpaceOnUse">
<stop stop-color="#F1F1F1"/>
<stop offset="1" stop-color="#808080"/>
</linearGradient>
<linearGradient id="paint50_linear_4994_95983" x1="351.158" y1="-0.773438" x2="351.158" y2="60.7455" gradientUnits="userSpaceOnUse">
<stop stop-color="#F1F1F1"/>
<stop offset="1" stop-color="#808080"/>
</linearGradient>
<linearGradient id="paint51_linear_4994_95983" x1="594.158" y1="59.9766" x2="594.158" y2="121.496" gradientUnits="userSpaceOnUse">
<stop stop-color="#F1F1F1"/>
<stop offset="1" stop-color="#808080"/>
</linearGradient>
<linearGradient id="paint52_linear_4994_95983" x1="594.158" y1="-0.773438" x2="594.158" y2="60.7455" gradientUnits="userSpaceOnUse">
<stop stop-color="#F1F1F1"/>
<stop offset="1" stop-color="#808080"/>
</linearGradient>
<linearGradient id="paint53_linear_4994_95983" x1="351.158" y1="424.477" x2="351.158" y2="485.996" gradientUnits="userSpaceOnUse">
<stop stop-color="#F1F1F1"/>
<stop offset="1" stop-color="#808080"/>
</linearGradient>
<linearGradient id="paint54_linear_4994_95983" x1="351.158" y1="242.227" x2="351.158" y2="303.746" gradientUnits="userSpaceOnUse">
<stop stop-color="#F1F1F1"/>
<stop offset="1" stop-color="#808080"/>
</linearGradient>
<linearGradient id="paint55_linear_4994_95983" x1="533.408" y1="181.477" x2="533.408" y2="242.996" gradientUnits="userSpaceOnUse">
<stop stop-color="#F1F1F1"/>
<stop offset="1" stop-color="#808080"/>
</linearGradient>
<linearGradient id="paint56_linear_4994_95983" x1="472.658" y1="120.727" x2="472.658" y2="182.246" gradientUnits="userSpaceOnUse">
<stop stop-color="#F1F1F1"/>
<stop offset="1" stop-color="#808080"/>
</linearGradient>
<linearGradient id="paint57_linear_4994_95983" x1="472.658" y1="424.477" x2="472.658" y2="485.996" gradientUnits="userSpaceOnUse">
<stop stop-color="#F1F1F1"/>
<stop offset="1" stop-color="#808080"/>
</linearGradient>
<linearGradient id="paint58_linear_4994_95983" x1="472.658" y1="302.977" x2="472.658" y2="364.496" gradientUnits="userSpaceOnUse">
<stop stop-color="#F1F1F1"/>
<stop offset="1" stop-color="#808080"/>
</linearGradient>
<linearGradient id="paint59_linear_4994_95983" x1="594.158" y1="363.727" x2="594.158" y2="425.246" gradientUnits="userSpaceOnUse">
<stop stop-color="#F1F1F1"/>
<stop offset="1" stop-color="#808080"/>
</linearGradient>
<linearGradient id="paint60_linear_4994_95983" x1="654.908" y1="120.727" x2="654.908" y2="182.246" gradientUnits="userSpaceOnUse">
<stop stop-color="#F1F1F1"/>
<stop offset="1" stop-color="#808080"/>
</linearGradient>
<linearGradient id="paint61_linear_4994_95983" x1="654.908" y1="242.227" x2="654.908" y2="303.746" gradientUnits="userSpaceOnUse">
<stop stop-color="#F1F1F1"/>
<stop offset="1" stop-color="#808080"/>
</linearGradient>
<linearGradient id="paint62_linear_4994_95983" x1="776.408" y1="120.727" x2="776.408" y2="182.246" gradientUnits="userSpaceOnUse">
<stop stop-color="#F1F1F1"/>
<stop offset="1" stop-color="#808080"/>
</linearGradient>
<linearGradient id="paint63_linear_4994_95983" x1="715.658" y1="363.727" x2="715.658" y2="425.246" gradientUnits="userSpaceOnUse">
<stop stop-color="#F1F1F1"/>
<stop offset="1" stop-color="#808080"/>
</linearGradient>
<linearGradient id="paint64_linear_4994_95983" x1="837.158" y1="424.477" x2="837.158" y2="485.996" gradientUnits="userSpaceOnUse">
<stop stop-color="#F1F1F1"/>
<stop offset="1" stop-color="#808080"/>
</linearGradient>
<linearGradient id="paint65_linear_4994_95983" x1="837.158" y1="242.227" x2="837.158" y2="303.746" gradientUnits="userSpaceOnUse">
<stop stop-color="#F1F1F1"/>
<stop offset="1" stop-color="#808080"/>
</linearGradient>
<linearGradient id="paint66_linear_4994_95983" x1="30.9207" y1="-1.50011" x2="-0.000930411" y2="-1.43394" gradientUnits="userSpaceOnUse">
<stop stop-color="#FFE993"/>
<stop offset="1" stop-color="#EB831C"/>
</linearGradient>
<linearGradient id="paint67_linear_4994_95983" x1="30.9207" y1="-1.50011" x2="-0.000930411" y2="-1.43394" gradientUnits="userSpaceOnUse">
<stop stop-color="#FFE993"/>
<stop offset="1" stop-color="#EB831C"/>
</linearGradient>
<linearGradient id="paint68_linear_4994_95983" x1="412.46" y1="423.742" x2="381.147" y2="423.81" gradientUnits="userSpaceOnUse">
<stop stop-color="#FFE993"/>
<stop offset="1" stop-color="#EB831C"/>
</linearGradient>
<linearGradient id="paint69_linear_4994_95983" x1="351.71" y1="484.492" x2="320.397" y2="484.56" gradientUnits="userSpaceOnUse">
<stop stop-color="#FFE993"/>
<stop offset="1" stop-color="#EB831C"/>
</linearGradient>
<linearGradient id="paint70_linear_4994_95983" x1="382.649" y1="456.163" x2="382.582" y2="425.241" gradientUnits="userSpaceOnUse">
<stop stop-color="#FFE993"/>
<stop offset="1" stop-color="#EB831C"/>
</linearGradient>
<linearGradient id="paint71_linear_4994_95983" x1="807.899" y1="30.5386" x2="807.831" y2="-0.774376" gradientUnits="userSpaceOnUse">
<stop stop-color="#FFE993"/>
<stop offset="1" stop-color="#EB831C"/>
</linearGradient>
</defs>
</svg>
