<svg width="942" height="720" viewBox="0 0 942 720" fill="none" xmlns="http://www.w3.org/2000/svg">
<g style="mix-blend-mode:exclusion">
<mask id="mask0_5159_94817" style="mask-type:alpha" maskUnits="userSpaceOnUse" x="-228" y="-225" width="1736" height="1170">
<line y1="-0.5" x2="606" y2="-0.5" transform="matrix(4.37114e-08 1 1 -4.37114e-08 263.07 -225)" stroke="white"/>
<line y1="-0.5" x2="606" y2="-0.5" transform="matrix(4.37114e-08 1 1 -4.37114e-08 325.758 -225)" stroke="white"/>
<line y1="-0.5" x2="606" y2="-0.5" transform="matrix(4.37114e-08 1 1 -4.37114e-08 200.379 -225)" stroke="white"/>
<line y1="-0.5" x2="606" y2="-0.5" transform="matrix(4.37114e-08 1 1 -4.37114e-08 137.688 -225)" stroke="white"/>
<line y1="-0.5" x2="606" y2="-0.5" transform="matrix(4.37114e-08 1 1 -4.37114e-08 75 -225)" stroke="white"/>
<line y1="-0.5" x2="606" y2="-0.5" transform="matrix(4.37114e-08 1 1 -4.37114e-08 12.3125 -225)" stroke="white"/>
<line y1="-0.5" x2="606" y2="-0.5" transform="matrix(1 -8.74228e-08 -8.74228e-08 -1 -228 213.828)" stroke="white"/>
<line y1="-0.5" x2="606" y2="-0.5" transform="matrix(1 -8.74228e-08 -8.74228e-08 -1 -228 276.516)" stroke="white"/>
<line y1="-0.5" x2="606" y2="-0.5" transform="matrix(1 -8.74228e-08 -8.74228e-08 -1 -228 339.203)" stroke="white"/>
<line y1="-0.5" x2="606" y2="-0.5" transform="matrix(1 -8.74228e-08 -8.74228e-08 -1 -228 25.7578)" stroke="white"/>
<line y1="-0.5" x2="606" y2="-0.5" transform="matrix(1 -8.74228e-08 -8.74228e-08 -1 -228 88.4531)" stroke="white"/>
<line y1="-0.5" x2="606" y2="-0.5" transform="matrix(1 -8.74228e-08 -8.74228e-08 -1 -228 151.141)" stroke="white"/>
<line y1="-0.5" x2="606" y2="-0.5" transform="matrix(4.37114e-08 1 1 -4.37114e-08 263.07 339)" stroke="white"/>
<line y1="-0.5" x2="606" y2="-0.5" transform="matrix(4.37114e-08 1 1 -4.37114e-08 325.758 339)" stroke="white"/>
<line y1="-0.5" x2="606" y2="-0.5" transform="matrix(4.37114e-08 1 1 -4.37114e-08 200.379 339)" stroke="white"/>
<line y1="-0.5" x2="606" y2="-0.5" transform="matrix(4.37114e-08 1 1 -4.37114e-08 137.688 339)" stroke="white"/>
<line y1="-0.5" x2="606" y2="-0.5" transform="matrix(4.37114e-08 1 1 -4.37114e-08 75 339)" stroke="white"/>
<line y1="-0.5" x2="606" y2="-0.5" transform="matrix(4.37114e-08 1 1 -4.37114e-08 12.3125 339)" stroke="white"/>
<line y1="-0.5" x2="606" y2="-0.5" transform="matrix(1 -8.74228e-08 -8.74228e-08 -1 -228 401.688)" stroke="white"/>
<line y1="-0.5" x2="606" y2="-0.5" transform="matrix(1 -8.74228e-08 -8.74228e-08 -1 -228 464.375)" stroke="white"/>
<line y1="-0.5" x2="606" y2="-0.5" transform="matrix(1 -8.74228e-08 -8.74228e-08 -1 -228 527.07)" stroke="white"/>
<line y1="-0.5" x2="606" y2="-0.5" transform="matrix(1 -8.74228e-08 -8.74228e-08 -1 -228 589.758)" stroke="white"/>
<line y1="-0.5" x2="606" y2="-0.5" transform="matrix(1 -8.74228e-08 -8.74228e-08 -1 -228 652.453)" stroke="white"/>
<line y1="-0.5" x2="606" y2="-0.5" transform="matrix(1 -8.74228e-08 -8.74228e-08 -1 -228 715.141)" stroke="white"/>
<line y1="-0.5" x2="606" y2="-0.5" transform="matrix(4.37114e-08 1 1 -4.37114e-08 828.07 -225)" stroke="white"/>
<line y1="-0.5" x2="606" y2="-0.5" transform="matrix(4.37114e-08 1 1 -4.37114e-08 890.758 -225)" stroke="white"/>
<line y1="-0.5" x2="606" y2="-0.5" transform="matrix(4.37114e-08 1 1 -4.37114e-08 765.379 -225)" stroke="white"/>
<line y1="-0.5" x2="606" y2="-0.5" transform="matrix(4.37114e-08 1 1 -4.37114e-08 702.688 -225)" stroke="white"/>
<line y1="-0.5" x2="606" y2="-0.5" transform="matrix(4.37114e-08 1 1 -4.37114e-08 640 -225)" stroke="white"/>
<line y1="-0.5" x2="606" y2="-0.5" transform="matrix(4.37114e-08 1 1 -4.37114e-08 577.312 -225)" stroke="white"/>
<line y1="-0.5" x2="606" y2="-0.5" transform="matrix(4.37114e-08 1 1 -4.37114e-08 514.621 -225)" stroke="white"/>
<line y1="-0.5" x2="606" y2="-0.5" transform="matrix(4.37114e-08 1 1 -4.37114e-08 451.93 -225)" stroke="white"/>
<line y1="-0.5" x2="606" y2="-0.5" transform="matrix(4.37114e-08 1 1 -4.37114e-08 389.242 -225)" stroke="white"/>
<line y1="-0.5" x2="606" y2="-0.5" transform="matrix(1 -8.74228e-08 -8.74228e-08 -1 337 213.828)" stroke="white"/>
<line y1="-0.5" x2="606" y2="-0.5" transform="matrix(1 -8.74228e-08 -8.74228e-08 -1 337 276.516)" stroke="white"/>
<line y1="-0.5" x2="606" y2="-0.5" transform="matrix(1 -8.74228e-08 -8.74228e-08 -1 337 339.203)" stroke="white"/>
<line y1="-0.5" x2="606" y2="-0.5" transform="matrix(1 -8.74228e-08 -8.74228e-08 -1 337 25.7578)" stroke="white"/>
<line y1="-0.5" x2="606" y2="-0.5" transform="matrix(1 -8.74228e-08 -8.74228e-08 -1 337 88.4531)" stroke="white"/>
<line y1="-0.5" x2="606" y2="-0.5" transform="matrix(1 -8.74228e-08 -8.74228e-08 -1 337 151.141)" stroke="white"/>
<line y1="-0.5" x2="606" y2="-0.5" transform="matrix(4.37114e-08 1 1 -4.37114e-08 828.07 339)" stroke="white"/>
<line y1="-0.5" x2="606" y2="-0.5" transform="matrix(4.37114e-08 1 1 -4.37114e-08 890.758 339)" stroke="white"/>
<line y1="-0.5" x2="606" y2="-0.5" transform="matrix(4.37114e-08 1 1 -4.37114e-08 765.379 339)" stroke="white"/>
<line y1="-0.5" x2="606" y2="-0.5" transform="matrix(4.37114e-08 1 1 -4.37114e-08 702.688 339)" stroke="white"/>
<line y1="-0.5" x2="606" y2="-0.5" transform="matrix(4.37114e-08 1 1 -4.37114e-08 640 339)" stroke="white"/>
<line y1="-0.5" x2="606" y2="-0.5" transform="matrix(4.37114e-08 1 1 -4.37114e-08 577.312 339)" stroke="white"/>
<line y1="-0.5" x2="606" y2="-0.5" transform="matrix(4.37114e-08 1 1 -4.37114e-08 514.621 339)" stroke="white"/>
<line y1="-0.5" x2="606" y2="-0.5" transform="matrix(4.37114e-08 1 1 -4.37114e-08 451.93 339)" stroke="white"/>
<line y1="-0.5" x2="606" y2="-0.5" transform="matrix(4.37114e-08 1 1 -4.37114e-08 389.242 339)" stroke="white"/>
<line y1="-0.5" x2="606" y2="-0.5" transform="matrix(1 -8.74228e-08 -8.74228e-08 -1 337 401.688)" stroke="white"/>
<line y1="-0.5" x2="606" y2="-0.5" transform="matrix(1 -8.74228e-08 -8.74228e-08 -1 337 464.375)" stroke="white"/>
<line y1="-0.5" x2="606" y2="-0.5" transform="matrix(1 -8.74228e-08 -8.74228e-08 -1 337 527.07)" stroke="white"/>
<line y1="-0.5" x2="606" y2="-0.5" transform="matrix(1 -8.74228e-08 -8.74228e-08 -1 337 589.758)" stroke="white"/>
<line y1="-0.5" x2="606" y2="-0.5" transform="matrix(1 -8.74228e-08 -8.74228e-08 -1 337 652.453)" stroke="white"/>
<line y1="-0.5" x2="606" y2="-0.5" transform="matrix(1 -8.74228e-08 -8.74228e-08 -1 337 715.141)" stroke="white"/>
<line y1="-0.5" x2="606" y2="-0.5" transform="matrix(1 -8.74228e-08 -8.74228e-08 -1 902 213.828)" stroke="white"/>
<line y1="-0.5" x2="606" y2="-0.5" transform="matrix(1 -8.74228e-08 -8.74228e-08 -1 902 276.516)" stroke="white"/>
<line y1="-0.5" x2="606" y2="-0.5" transform="matrix(1 -8.74228e-08 -8.74228e-08 -1 902 339.203)" stroke="white"/>
<line y1="-0.5" x2="606" y2="-0.5" transform="matrix(1 -8.74228e-08 -8.74228e-08 -1 902 25.7578)" stroke="white"/>
<line y1="-0.5" x2="606" y2="-0.5" transform="matrix(1 -8.74228e-08 -8.74228e-08 -1 902 88.4531)" stroke="white"/>
<line y1="-0.5" x2="606" y2="-0.5" transform="matrix(1 -8.74228e-08 -8.74228e-08 -1 902 151.141)" stroke="white"/>
<line y1="-0.5" x2="606" y2="-0.5" transform="matrix(1 -8.74228e-08 -8.74228e-08 -1 902 401.688)" stroke="white"/>
<line y1="-0.5" x2="606" y2="-0.5" transform="matrix(1 -8.74228e-08 -8.74228e-08 -1 902 464.375)" stroke="white"/>
<line y1="-0.5" x2="606" y2="-0.5" transform="matrix(1 -8.74228e-08 -8.74228e-08 -1 902 527.07)" stroke="white"/>
<line y1="-0.5" x2="606" y2="-0.5" transform="matrix(1 -8.74228e-08 -8.74228e-08 -1 902 589.758)" stroke="white"/>
<line y1="-0.5" x2="606" y2="-0.5" transform="matrix(1 -8.74228e-08 -8.74228e-08 -1 902 652.453)" stroke="white"/>
<line y1="-0.5" x2="606" y2="-0.5" transform="matrix(1 -8.74228e-08 -8.74228e-08 -1 902 715.141)" stroke="white"/>
</mask>
<g mask="url(#mask0_5159_94817)">
<rect width="1280" height="720" fill="url(#paint0_radial_5159_94817)"/>
</g>
</g>
<defs>
<radialGradient id="paint0_radial_5159_94817" cx="0" cy="0" r="1" gradientUnits="userSpaceOnUse" gradientTransform="translate(598.5 289.5) rotate(90) scale(356 632.889)">
<stop stop-color="#8C9B85" stop-opacity="0.44"/>
<stop offset="1" stop-color="#282719" stop-opacity="0.02"/>
</radialGradient>
</defs>
</svg>
