<svg xmlns="http://www.w3.org/2000/svg" width="213" height="27" viewBox="0 0 213 27" fill="none">
<g id="Group 11979">
<path id="image 261 (Traced)" fill-rule="evenodd" clip-rule="evenodd" d="M66.6518 0.405994C66.4542 1.00176 66.5847 3.4513 66.8224 3.60348C66.9346 3.67531 67.6382 3.73522 68.3862 3.73682C70.1614 3.74038 70.3025 3.60331 70.3025 1.87451C70.3025 -0.0519851 70.3604 0.00597427 68.436 0.00597427C66.8808 0.00597427 66.7769 0.0292643 66.6518 0.405994ZM132.224 0.124559C132.159 0.189629 132.106 0.981133 132.106 1.8834C132.106 3.80421 132.038 3.73949 134.063 3.73949C135.261 3.73949 135.484 3.69096 135.642 3.39565C135.898 2.91421 135.876 0.483864 135.613 0.219318C135.387 -0.00736027 132.438 -0.0898514 132.224 0.124559ZM116.986 0.636583C116.926 0.794635 116.877 5.46171 116.877 11.0078C116.877 18.6136 116.929 21.1439 117.089 21.3048C117.398 21.6149 120.138 21.5909 120.398 21.276C120.543 21.1005 120.586 18.1953 120.553 10.7421L120.507 0.450441L118.802 0.399771C117.364 0.357102 117.079 0.39426 116.986 0.636583ZM124.599 0.642806C124.54 0.79748 124.491 5.46171 124.491 11.0078C124.491 18.6136 124.544 21.1439 124.704 21.3048C124.834 21.4357 125.471 21.5181 126.351 21.5181C127.23 21.5181 127.867 21.4357 127.998 21.3048C128.158 21.1439 128.21 18.6136 128.21 11.0078C128.21 5.46171 128.162 0.79748 128.103 0.642806C127.944 0.228208 124.757 0.228208 124.599 0.642806ZM93.4495 2.75331C92.7881 2.87349 92.1745 3.04453 92.0861 3.13342C91.9976 3.22231 91.9012 3.85505 91.872 4.53953L91.8187 5.78404L90.3135 5.87293L88.8082 5.96182L88.7533 6.8312C88.723 7.30927 88.7861 7.78929 88.8932 7.89792C89.0005 8.00637 89.7027 8.17527 90.4535 8.27305L91.8187 8.45084L91.9073 13.9622C91.9939 19.3477 92.0054 19.4903 92.4136 20.2055C92.6634 20.6431 93.0844 21.0586 93.4601 21.2385C94.205 21.595 96.6183 21.7807 97.7512 21.5686L98.5481 21.4195V20.1798V18.9402L97.1896 18.8513C96.4427 18.8025 95.7653 18.696 95.6844 18.6145C95.6036 18.5331 95.5376 16.253 95.5376 13.5476V8.62862L96.8578 8.57564C97.584 8.54648 98.2847 8.43377 98.4151 8.32514C98.5773 8.19002 98.6357 7.78645 98.6001 7.04472L98.5481 5.96182L97.1369 5.9092C96.289 5.87755 95.6683 5.77106 95.582 5.64252C95.503 5.52483 95.4494 4.86844 95.4627 4.18396C95.4761 3.49948 95.4784 2.83954 95.468 2.71722C95.4455 2.45374 95.0612 2.4605 93.4495 2.75331ZM192.228 5.70705C189.34 5.94209 187.493 7.64333 186.825 10.6835C186.478 12.2663 186.67 16.5629 187.142 17.7629C188.429 21.0351 190.841 22.1196 195.483 21.5146C196.203 21.4207 196.9 21.2534 197.033 21.1427C197.303 20.9181 197.368 19.0963 197.12 18.7043C197.004 18.5194 196.569 18.4956 195.104 18.5941C192.811 18.7484 192.127 18.63 191.349 17.9446C190.514 17.2086 190.315 16.1895 190.398 13.0733C190.45 11.1359 190.534 10.4566 190.774 10.0081C191.404 8.83699 192.583 8.50275 195.297 8.72605C196.252 8.80445 196.916 8.7849 197.053 8.67414C197.293 8.4816 197.36 6.63279 197.139 6.29695C196.839 5.83898 194.322 5.53673 192.228 5.70705ZM204.927 5.7195C202.577 5.93462 201.038 6.99103 200.041 9.07309C199.52 10.1626 199.483 10.3761 199.4 12.8066C199.264 16.7581 199.579 18.0904 201.022 19.6619C202.712 21.5027 204.994 22.003 209.432 21.5062C212.032 21.215 211.999 21.2392 211.937 19.6973L211.885 18.4069L208.504 18.4716C205.134 18.5361 205.121 18.5349 204.408 18.0828C203.606 17.5747 202.942 16.4082 202.942 15.5091V14.9459L207.679 14.8984L212.416 14.8512L212.467 13.285C212.558 10.516 212.014 8.74934 210.649 7.37949C209.281 6.00574 207.487 5.48518 204.927 5.7195ZM79.6882 5.85213C79.4447 5.93195 78.904 6.17214 78.4868 6.3862C77.6669 6.80666 77.386 6.76204 77.386 6.21126C77.386 5.88253 77.2792 5.86298 75.748 5.91062L74.1099 5.96182L74.0637 13.5949C74.0274 19.5835 74.0656 21.2588 74.2408 21.3704C74.5021 21.537 76.8735 21.5679 77.283 21.4102C77.5305 21.3149 77.5631 20.6246 77.5631 15.4732V9.64432L78.7585 9.16109C80.9081 8.29207 82.6804 8.60498 83.0436 9.91793C83.1526 10.3114 83.2283 12.7785 83.2289 15.9433C83.2298 20.6655 83.2632 21.3151 83.5101 21.4102C83.9266 21.5708 86.293 21.5356 86.5611 21.3649C86.7469 21.2467 86.7821 19.9977 86.7382 15.1008L86.6832 8.9842L86.1519 7.91748C85.7839 7.17842 85.3851 6.68719 84.8538 6.31829C84.126 5.81266 83.9873 5.78368 82.109 5.74652C81.0211 5.72501 79.9317 5.77248 79.6882 5.85213ZM104.392 5.98031C102.675 6.52096 101.222 8.02841 100.655 9.85819C100.277 11.0748 100.128 14.7381 100.394 16.2711C101.027 19.9197 103.429 21.6883 107.757 21.692C109.501 21.6936 112.569 21.2916 112.832 21.0271C112.924 20.9355 112.974 20.3085 112.945 19.6338L112.892 18.4069L112.095 18.4245C106.848 18.5399 106.102 18.5194 105.573 18.2446C104.72 17.8017 104.085 16.8324 103.989 15.8244L103.905 14.9459L108.664 14.8986L113.423 14.8512L113.477 13.4289C113.611 9.86477 112.463 7.46305 110.036 6.23046C109.299 5.85657 108.889 5.78599 107.225 5.74706C105.841 5.7147 105.021 5.78208 104.392 5.98031ZM159.732 5.86137C156.498 6.85271 155.103 9.64112 155.37 14.5845C155.502 17.0301 155.686 17.7635 156.471 18.9509C157.66 20.7496 159.303 21.5208 162.211 21.6438C163.974 21.7185 167.567 21.3557 167.848 21.0746C167.913 21.0091 167.967 20.384 167.967 19.6857V18.4158L164.395 18.4113C161.051 18.4072 160.791 18.3831 160.322 18.0346C159.626 17.5178 159.03 16.4007 159.027 15.6067L159.024 14.94H163.525C166.001 14.94 168.152 14.8915 168.306 14.8321C168.535 14.7439 168.586 14.4097 168.585 13.0098C168.584 11.1372 168.427 10.3364 167.794 8.9842C167.09 7.47977 165.798 6.36522 164.227 5.9076C163.43 5.67523 160.439 5.64465 159.732 5.86137ZM176.772 5.95631C176.356 6.08699 175.82 6.32167 175.583 6.47776C175 6.86107 174.82 6.83565 174.753 6.36184C174.698 5.97907 174.624 5.96182 173.014 5.96182H171.331L171.285 13.4971C171.252 18.9123 171.295 21.1009 171.44 21.2753C171.701 21.5909 174.44 21.6152 174.749 21.3048C174.906 21.1476 174.962 19.5851 174.962 15.3794V9.66725L175.803 9.28679C177.204 8.65298 178.034 8.50542 178.927 8.7312C180.404 9.10456 180.356 8.88997 180.416 15.3516C180.451 19.0649 180.536 21.14 180.659 21.289C180.892 21.5699 183.325 21.6044 183.828 21.3341C184.153 21.1592 184.17 20.9142 184.17 16.3959C184.17 9.70743 183.885 7.90219 182.641 6.72684C181.8 5.93178 180.991 5.6939 179.173 5.70705C178.269 5.71363 177.189 5.82582 176.772 5.95631ZM66.5836 13.6033V21.3336L66.9842 21.4346C67.2045 21.4901 67.9814 21.5116 68.7108 21.4824L70.0369 21.4293L70.0831 13.6511L70.1291 5.87293H68.3565H66.5836V13.6033ZM132.224 5.99151C132.159 6.05658 132.106 9.52822 132.106 13.7062C132.106 22.3594 131.916 21.5181 133.877 21.5181C135.839 21.5181 135.648 22.3753 135.648 13.5876V5.87293H133.995C133.086 5.87293 132.289 5.92627 132.224 5.99151ZM143.158 6.07454C141.955 6.34638 140.592 7.28402 140.001 8.24709C139.532 9.00909 139.462 9.30564 139.398 10.78C139.331 12.3099 139.364 12.5312 139.798 13.4219L140.272 14.3941L139.895 14.9064C139.161 15.9035 139.214 17.7196 140.006 18.6641L140.454 19.1986L140.023 19.7805C138.786 21.4533 138.928 24.072 140.332 25.4659C141.551 26.677 143.374 27.1033 146.805 26.9794C149.523 26.8814 150.208 26.7168 151.263 25.9086C152.31 25.1075 152.683 24.3807 152.775 22.9705C152.96 20.1039 151.538 19.1945 144.502 17.6796C142.91 17.3366 142.377 17.0335 142.377 16.4688C142.377 15.8379 142.758 15.6005 143.374 15.8466C144.154 16.1579 147.788 16.1067 148.948 15.7682C151.098 15.1408 152.253 13.7213 152.42 11.5015C152.497 10.4851 152.453 10.0506 152.23 9.60112C151.851 8.83823 151.865 8.58773 152.293 8.45119C152.488 8.38932 152.766 8.21811 152.913 8.07091C153.219 7.76334 153.266 6.72293 152.996 6.21677C152.822 5.89 152.592 5.87382 148.348 5.89195C145.892 5.90244 143.557 5.98458 143.158 6.07454ZM147.615 8.87663C148.803 9.41817 149.263 10.8915 148.65 12.1883C148.257 13.0192 147.475 13.34 145.839 13.34C143.651 13.34 142.909 12.7476 142.909 11.0028C142.909 9.29834 143.786 8.58631 145.919 8.55964C146.513 8.55235 147.175 8.67609 147.615 8.87663ZM108.138 9.00926C108.475 9.16963 108.941 9.55133 109.174 9.85766C109.649 10.4836 110.082 12.0939 109.818 12.2581C109.727 12.3154 108.358 12.3381 106.777 12.309L103.902 12.2558L104.005 11.3806C104.133 10.2952 104.701 9.48218 105.632 9.05247C106.513 8.64516 107.344 8.63075 108.138 9.00926ZM163.609 9.23754C164.263 9.70476 164.809 10.6943 164.895 11.5667L164.956 12.1844L161.966 12.2332L158.977 12.2821L159.065 11.492C159.258 9.77125 160.579 8.63734 162.233 8.7721C162.707 8.81068 163.286 9.00642 163.609 9.23754ZM207.156 8.96731C208.102 9.46137 208.669 10.3053 208.869 11.5177L208.994 12.2732H205.968H202.942V11.7328C202.942 11.1342 203.544 9.8253 203.986 9.46457C204.88 8.73352 206.287 8.51306 207.156 8.96731ZM145.898 20.908C148.919 21.7025 149.107 21.8163 149.107 22.8515C149.107 23.9446 148.649 24.2262 146.708 24.3284C143.723 24.4858 142.732 24.002 142.732 22.3889C142.732 21.6485 143.171 20.2736 143.408 20.2736C143.451 20.2736 144.572 20.5592 145.898 20.908Z" fill="white"/>
<path id="image 261 (Traced)_2" fill-rule="evenodd" clip-rule="evenodd" d="M32.3398 0.279407C32.2794 0.437459 32.23 1.23874 32.23 2.06012C32.23 3.81825 32.1863 3.78571 34.4442 3.7018L35.8604 3.649V1.87113V0.0932648L34.155 0.042595C32.7177 -7.37906e-05 32.4325 0.0370837 32.3398 0.279407ZM0.118118 0.47853C0.0531264 0.543599 0 5.14009 0 10.6929V20.7887L0.664081 20.9795C1.8952 21.3332 4.68239 21.6922 6.20517 21.6933C9.81546 21.6958 11.8824 20.3535 12.7449 17.4463C13.2699 15.6759 13.2623 11.5772 12.7305 9.84894C12.2782 8.37847 11.6039 7.35229 10.6579 6.69412C9.49635 5.8859 8.46623 5.64856 6.021 5.62545L3.80739 5.60465L3.75834 2.9823L3.70947 0.359945H1.97276C1.01755 0.359945 0.182932 0.413282 0.118118 0.47853ZM39.9261 0.582178C39.8795 0.704495 39.8622 5.44464 39.8873 11.116L39.9334 21.4277L41.524 21.4796C42.8672 21.5235 43.1497 21.4837 43.3391 21.2234C43.5141 20.9832 43.5637 18.7091 43.5637 10.9189C43.5637 5.42082 43.5153 0.795877 43.4562 0.641203C43.3687 0.412214 43.0383 0.359945 41.6798 0.359945C40.5079 0.359945 39.9856 0.426081 39.9261 0.582178ZM50.3841 2.67935C48.5827 2.98959 48.6992 2.87332 48.6992 4.36352V5.69354H47.3856C45.5457 5.69354 45.5117 5.71612 45.5117 6.93805C45.5117 8.10113 45.4996 8.09064 47.0334 8.27749C48.8446 8.49812 48.6992 8.00459 48.6992 13.935V19.1415L49.1862 20.1069C49.6182 20.9627 49.7735 21.1075 50.5587 21.3852C51.2297 21.6223 51.8783 21.6862 53.2364 21.6481C55.4495 21.5864 55.6057 21.4838 55.6057 20.0916C55.6057 18.8917 55.5495 18.8497 53.9442 18.8497C53.3239 18.8497 52.7503 18.7566 52.6306 18.6364C52.4755 18.4807 52.4181 17.0877 52.4181 13.4806V8.53813H53.8158C54.9271 8.53813 55.2356 8.48052 55.3211 8.25687C55.5095 7.76387 55.4366 6.12823 55.2161 5.90689C55.0898 5.78013 54.4817 5.69354 53.7177 5.69354H52.4319L52.3807 4.13791L52.3295 2.58228L51.7983 2.55472C51.5061 2.53961 50.8696 2.59579 50.3841 2.67935ZM15.8937 5.88555C15.6096 6.0516 15.5839 6.50069 15.5852 11.2583C15.5859 14.1135 15.6688 16.9586 15.7692 17.5807C15.9854 18.9175 16.6233 20.266 17.2881 20.791C18.0692 21.4079 19.5431 21.7466 21.062 21.6584C22.3133 21.5857 22.8527 21.4102 24.6595 20.4881C24.7325 20.4507 24.7923 20.5771 24.7923 20.7688C24.7923 21.3933 25.2004 21.5338 26.8556 21.4792L28.4226 21.4277L28.4689 13.8035C28.502 8.32247 28.4586 6.11081 28.3143 5.9364C28.1776 5.77088 27.6934 5.69354 26.7956 5.69354C24.6156 5.69354 24.7923 5.1536 24.7923 11.8135V17.5652L23.5986 18.0741C21.2894 19.0586 19.8084 18.6272 19.465 16.8699C19.3816 16.4432 19.3155 13.8678 19.3184 11.1468C19.3219 7.59799 19.2642 6.12805 19.1142 5.94653C18.865 5.64518 16.3851 5.59825 15.8937 5.88555ZM32.4425 5.90689C32.1371 6.21357 32.1371 20.9965 32.4425 21.3032C32.5729 21.434 33.2099 21.5165 34.0895 21.5165C34.9691 21.5165 35.6061 21.434 35.7364 21.3032C36.0419 20.9965 36.0419 6.21357 35.7364 5.90689C35.4507 5.62012 32.7282 5.62012 32.4425 5.90689ZM7.79453 8.93815C9.14342 9.62458 9.29713 10.0929 9.29713 13.5161C9.29713 16.9919 9.16821 17.4993 8.10975 18.1884C7.44744 18.6195 7.20129 18.672 5.84232 18.672C4.90215 18.672 4.20177 18.5868 4.0153 18.4497C3.74099 18.2483 3.71708 17.7878 3.76011 13.5161L3.80739 8.80481L4.4272 8.69493C5.82655 8.44674 6.99463 8.53102 7.79453 8.93815Z" fill="white"/>
</g>
</svg>