<svg width="64" height="64" viewBox="0 0 64 64" fill="none" xmlns="http://www.w3.org/2000/svg">
<rect x="0.5" y="0.5" width="63" height="63" rx="11.5" fill="#1C1C1C" stroke="url(#paint0_linear_13960_9249)"/>
<path fill-rule="evenodd" clip-rule="evenodd" d="M31.024 14.1174C29.9236 14.4692 29.0657 15.3115 28.7138 16.3855C28.5082 17.0131 28.5082 17.8677 28.7138 18.4954C29.0289 19.457 29.7135 20.2104 30.6381 20.6132L31.0338 20.7855V21.8678V22.9501L26.0559 22.9512C20.5367 22.9524 20.5968 22.9485 19.7875 23.3467C18.9586 23.7545 18.3557 24.3606 17.9716 25.1723C17.6411 25.8708 17.5769 26.3807 17.5769 28.3061V29.9957L16.8614 30.0385C15.6078 30.1136 14.9238 30.404 14.1354 31.196C13.5665 31.7676 13.2608 32.3243 13.107 33.069C12.9635 33.7635 12.9647 38.2791 13.1084 38.9194C13.2538 39.5664 13.5752 40.1783 14.025 40.664C14.8286 41.5318 15.8278 41.9431 17.1354 41.9445L17.5769 41.945V43.6429C17.5769 44.9328 17.5999 45.4622 17.6726 45.8458C17.9364 47.2361 18.8615 48.3066 20.2256 48.8004L20.7128 48.9767L31.8254 48.9937C41.9378 49.0091 42.9791 49.0017 43.3947 48.9108C44.532 48.6621 45.5381 47.855 46.0445 46.785C46.3753 46.0858 46.4392 45.5772 46.4392 43.6429V41.945L46.8807 41.9445C48.1839 41.9431 49.1684 41.5434 49.9624 40.6934C50.4599 40.1607 50.7727 39.5588 50.9139 38.8624C50.9987 38.4433 51.0104 37.9906 50.9933 35.7597L50.9732 33.1477L50.7889 32.6287C50.5607 31.9864 50.2598 31.5257 49.768 31.0663C49.0604 30.4053 48.301 30.1066 47.1547 30.0384L46.4392 29.9957V28.3061C46.4392 26.0042 46.3321 25.4767 45.6789 24.5615C45.3119 24.0473 44.8699 23.6727 44.28 23.3759C43.424 22.9453 43.53 22.9524 37.9601 22.9512L32.9823 22.9501L32.9843 21.8695L32.9863 20.7889L33.5171 20.5352C34.1189 20.2477 34.5649 19.8559 34.9255 19.2981C35.6326 18.2042 35.6346 16.6797 34.9304 15.5902C34.4724 14.8818 33.8013 14.3703 33.0082 14.1254C32.4774 13.9615 31.5236 13.9577 31.024 14.1174ZM32.7144 16.0457C33.1236 16.262 33.1983 16.3389 33.4085 16.7594C33.6623 17.2674 33.6582 17.6353 33.3928 18.148C32.7931 19.306 31.2214 19.3074 30.624 18.1505C30.3116 17.5451 30.3749 16.9844 30.822 16.3983C31.2023 15.8998 32.1164 15.7295 32.7144 16.0457ZM43.0621 24.9205C43.6603 25.0799 44.0739 25.4404 44.3634 26.055L44.5211 26.3899L44.5374 35.8569C44.5536 45.3126 44.5535 45.3243 44.4262 45.7443C44.3192 46.0971 44.2432 46.2199 43.9533 46.5077C43.7117 46.7474 43.5008 46.8911 43.2522 46.9852L42.8967 47.1198H32.008H21.1194L20.7638 46.9852C20.2244 46.781 19.7577 46.2907 19.592 45.7542C19.4649 45.3429 19.4645 45.3092 19.4645 35.9914C19.4645 25.577 19.4375 26.2431 19.8826 25.6543C20.151 25.2992 20.5288 25.0332 20.9161 24.9265C21.3446 24.8085 42.6196 24.8027 43.0621 24.9205ZM26.3756 30.2575C25.6955 30.3382 24.8575 30.7631 24.4109 31.2539C24.1118 31.5825 23.8207 32.0714 23.6639 32.5084C23.4603 33.0761 23.4605 34.0726 23.6643 34.6392C23.9014 35.298 24.2832 35.8323 24.7903 36.2152C25.4508 36.7138 26.0316 36.9028 26.8937 36.8998C27.8044 36.8965 28.552 36.5811 29.2113 35.9219C29.8443 35.289 30.1813 34.4732 30.1813 33.5738C30.1813 31.5343 28.4359 30.0133 26.3756 30.2575ZM36.7264 30.2549C35.7237 30.3662 34.7081 31.0757 34.2102 32.0127C33.5332 33.2868 33.7778 34.895 34.8048 35.9219C35.196 36.313 35.5733 36.5485 36.1369 36.753C36.6399 36.9356 37.5183 36.9563 38.0705 36.7987C39.1368 36.4945 39.9734 35.702 40.3507 34.6392C40.5517 34.0727 40.5543 33.0688 40.356 32.5215C40.1436 31.9351 39.9322 31.599 39.5226 31.1969C38.7694 30.4573 37.811 30.1344 36.7264 30.2549ZM17.5769 36.0172V40.0739L16.9832 40.0449C16.5087 40.0217 16.3223 39.9839 16.0546 39.8565C15.6396 39.6589 15.3031 39.3372 15.0906 38.9349L14.9281 38.6269V36.0395C14.9281 33.0881 14.9267 33.0978 15.4387 32.5505C15.8919 32.0661 16.1373 31.9732 16.9832 31.9657L17.5769 31.9605V36.0172ZM48.0543 32.1249C48.398 32.3051 48.8331 32.7912 48.9712 33.1494C49.0796 33.4305 49.088 33.6346 49.088 36.0091V38.5661L48.9302 38.9009C48.7341 39.3171 48.3977 39.6489 47.9615 39.8565C47.6938 39.9839 47.5074 40.0217 47.0329 40.0449L46.4392 40.0739V36.0107V31.9473L47.1242 31.9719C47.6704 31.9914 47.8589 32.0224 48.0543 32.1249ZM27.4753 32.27C28.1955 32.609 28.4918 33.4504 28.1496 34.1851C27.895 34.7317 27.4517 35.0045 26.8181 35.0045C26.2069 35.0045 25.7877 34.7361 25.5221 34.1748C25.3179 33.7434 25.3232 33.3676 25.5394 32.9407C25.9185 32.1921 26.72 31.9143 27.4753 32.27ZM37.7622 32.232C38.2413 32.4295 38.6452 33.0381 38.6452 33.5626C38.6452 34.0477 38.3707 34.542 37.9556 34.8039C37.6616 34.9894 37.0256 35.0623 36.6837 34.9494C36.3543 34.8407 35.9993 34.4992 35.8464 34.1439C35.3279 32.9387 36.5405 31.7285 37.7622 32.232Z" fill="#88EEBC"/>
<defs>
<linearGradient id="paint0_linear_13960_9249" x1="32" y1="0" x2="32" y2="64" gradientUnits="userSpaceOnUse">
<stop stop-color="#A2FACF" stop-opacity="0.16"/>
<stop offset="1" stop-color="#A2FACF" stop-opacity="0.07"/>
</linearGradient>
</defs>
</svg>
