<svg width="64" height="64" viewBox="0 0 64 64" fill="none" xmlns="http://www.w3.org/2000/svg">
<rect x="0.5" y="0.5" width="63" height="63" rx="11.5" fill="#1C1C1C" stroke="url(#paint0_linear_13960_9234)"/>
<path fill-rule="evenodd" clip-rule="evenodd" d="M32.5189 14.0265C32.4608 14.0487 31.473 15.0032 30.3237 16.1475C28.3731 18.0895 28.2256 18.2208 28.1076 18.119C27.2101 17.3442 24.1456 14.8396 24.0506 14.8032C23.7881 14.7025 23.5151 14.7557 23.3067 14.9482C23.1366 15.1053 22.9058 15.6541 22.0741 17.8784C21.5113 19.3837 21.0403 20.6257 21.0277 20.6384C21.0149 20.651 20.01 20.5174 18.7944 20.3412C16.0451 19.9429 16.0397 19.9426 15.7605 20.2216C15.5935 20.3886 15.5454 20.498 15.5468 20.7075C15.5487 20.9667 16.2581 26.0194 16.2982 26.0594C16.324 26.0852 17.6821 25.8808 17.717 25.8459C17.7318 25.8311 17.6122 24.896 17.451 23.7679C17.2898 22.6398 17.179 21.6959 17.2047 21.6702C17.2304 21.6446 18.2273 21.7613 19.4201 21.9298C21.869 22.2754 21.931 22.2724 22.1712 21.794C22.2412 21.6545 22.7041 20.4566 23.1997 19.1321C24.0024 16.9872 24.1131 16.7341 24.2119 16.8182C24.8924 17.3971 27.7416 19.7468 27.8738 19.838C28.0731 19.9758 28.3779 19.9935 28.6014 19.8804C28.6859 19.8377 29.5792 18.9826 30.5864 17.9803L32.4176 16.1578L33.0116 18.2514C33.6347 20.4478 33.7043 20.6031 34.1117 20.7053C34.2644 20.7436 34.9691 20.5354 37.1966 19.794C38.7844 19.2655 40.1007 18.8332 40.1217 18.8332C40.1427 18.8332 40.0252 20.0276 39.8607 21.4876C39.6962 22.9475 39.5599 24.2741 39.5579 24.4355C39.5534 24.7835 39.8011 25.1284 40.1012 25.1917C40.2066 25.214 41.4008 25.0925 42.7551 24.9216C44.1093 24.7507 45.2323 24.6258 45.2506 24.644C45.2689 24.6623 45.0068 25.7908 44.6684 27.152C44.3298 28.5131 44.0537 29.7 44.0547 29.7896C44.0557 29.8791 44.0897 30.0143 44.1302 30.09C44.1708 30.1656 45.0593 30.7981 46.1047 31.4954C47.1502 32.1927 47.9955 32.7912 47.9833 32.8253C47.9711 32.8594 46.9259 33.7744 45.6607 34.8587C43.6454 36.5857 43.3546 36.8601 43.3147 37.0723C43.2867 37.2215 43.3059 37.391 43.3645 37.5138C43.4392 37.6702 45.6318 39.5758 46.8334 40.5285C46.9482 40.6196 47.022 40.7143 46.9974 40.739C46.9727 40.7637 45.8656 41.1915 44.5371 41.6896C41.9297 42.6674 41.8053 42.7363 41.8053 43.2023C41.8053 43.372 42.0607 43.9552 42.6536 45.1397C43.1202 46.0718 43.492 46.8443 43.4799 46.8564C43.4678 46.8686 41.8118 46.7393 39.7999 46.5691C37.7881 46.3989 36.0742 46.259 35.9913 46.2581C35.8505 46.2567 35.8373 46.3029 35.79 46.9636C35.7621 47.3525 35.752 47.6833 35.7675 47.6988C35.783 47.7143 37.8206 47.8972 40.2955 48.1052C43.4253 48.3682 44.866 48.4642 45.0276 48.4204C45.2812 48.3517 45.5333 48.018 45.5337 47.7503C45.5338 47.6631 45.0904 46.7054 44.5482 45.6221C43.5809 43.6895 43.5655 43.6513 43.7216 43.5833C43.8091 43.5452 45.0204 43.0879 46.4134 42.5673C48.3341 41.8493 48.9843 41.5766 49.1043 41.4384C49.287 41.2283 49.3171 40.8106 49.1652 40.5939C49.1116 40.5174 48.1938 39.7281 47.1257 38.8398C45.6298 37.5958 45.2036 37.2064 45.2708 37.1451C45.3188 37.1012 46.3553 36.2121 47.5742 35.1691C48.793 34.126 49.8377 33.2148 49.8958 33.144C50.0437 32.9639 50.0317 32.4526 49.8756 32.2801C49.8064 32.2038 48.8329 31.5311 47.7123 30.7852C46.5916 30.0394 45.6747 29.386 45.6747 29.3332C45.6747 29.2804 45.9754 28.036 46.343 26.568C46.7106 25.0999 47.0114 23.8074 47.0114 23.6959C47.0114 23.4527 46.7799 23.138 46.5318 23.0436C46.4005 22.9938 45.6519 23.0631 43.756 23.3006C42.3282 23.4796 41.1513 23.6155 41.1408 23.6027C41.1302 23.59 41.2687 22.2631 41.4484 20.654C41.6617 18.7443 41.7557 17.6532 41.7191 17.5118C41.6471 17.2342 41.3553 17.0049 41.0738 17.0049C40.9528 17.0049 39.4855 17.4611 37.8131 18.0186L34.7724 19.0322L34.702 18.7745C33.9927 16.1741 33.4279 14.3657 33.2783 14.2162C33.1095 14.0476 32.7185 13.9499 32.5189 14.0265ZM29.4234 22.5377C29.181 22.625 28.8595 22.8953 28.0515 23.6909L26.9963 24.73L26.5741 24.5866C26.0398 24.4049 25.0259 24.4376 24.4284 24.6558C22.2445 25.4533 20.428 26.2096 19.964 26.5145C18.8041 27.2767 18.5189 28.7775 18.5189 34.1191V36.9387L16.7594 38.6982L15 40.4577L15.5289 40.9829L16.0578 41.508L17.9261 39.6457C18.9538 38.6215 19.8399 37.698 19.8954 37.5936C19.9784 37.4373 19.9962 36.8766 19.9962 34.4258C19.9962 32.788 20.0297 31.0223 20.0705 30.5022C20.1577 29.3903 20.356 28.3394 20.5363 28.0333C20.7361 27.694 21.3834 27.3935 24.1609 26.35C25.3498 25.9033 25.7847 25.8377 26.2118 26.0403C26.3337 26.0981 27.8731 27.5846 29.6326 29.3435C32.686 32.396 32.8253 32.5465 32.6929 32.6492C31.9046 33.2599 30.9588 33.6713 30.3493 33.6684C29.7296 33.6655 29.5075 33.4984 27.5942 31.5964C26.4434 30.4523 25.7309 29.7959 25.6068 29.765C24.8654 29.5809 24.4241 30.4133 24.9303 31.0409C25.232 31.415 25.5838 32.1766 25.7949 32.913C26.4431 35.1739 26.2418 37.6575 25.312 38.8734L25.1237 39.1195L25.6593 39.6343L26.1949 40.1491L26.4395 39.8453C26.8128 39.3815 27.2244 38.4937 27.428 37.7131C27.5881 37.0994 27.6126 36.858 27.6204 35.8146C27.6254 35.1571 27.6042 34.4005 27.5735 34.1331L27.5176 33.647L28.0233 34.1238C28.3638 34.4448 28.7037 34.684 29.0641 34.856C29.5791 35.1018 29.6285 35.1114 30.3731 35.1114C30.9423 35.1114 31.2449 35.0773 31.5172 34.9825L31.8873 34.8535L32.7484 35.6683C33.2856 36.1767 33.7549 36.5557 33.9964 36.6763L34.3835 36.8693L34.3896 37.3967C34.394 37.7754 34.4386 38.02 34.548 38.2644C34.7058 38.6171 35.3892 39.3868 35.8349 39.7136L36.0906 39.901L33.6979 42.1472C32.382 43.3825 31.1747 44.4607 31.015 44.5433C30.6718 44.7208 30.2106 44.8187 29.232 44.9218C28.4407 45.0051 27.848 45.1405 27.5027 45.3169C27.379 45.3801 26.7078 45.996 26.0113 46.6855L24.745 47.9392L25.2714 48.4696L25.7977 49L26.995 47.8116C27.8387 46.9741 28.265 46.6008 28.4385 46.5474C28.5739 46.5058 29.1214 46.4218 29.6553 46.3609C30.7089 46.2406 31.3966 46.0626 31.8747 45.7866C32.5275 45.4096 41.2143 37.1176 41.6313 36.4734C42.0353 35.8491 42.0999 35.0584 41.8019 34.3844C41.56 33.8374 40.4237 32.7652 39.9635 32.6497C39.8082 32.6108 39.7985 32.5763 39.7985 32.0664C39.7985 31.2557 39.6171 30.9398 38.5527 29.8969C37.9649 29.321 37.6056 29.0236 37.4259 28.9644L37.1621 28.8775V28.3668C37.1621 27.6022 36.9423 27.2168 35.9459 26.2342C35.0283 25.3292 34.7223 25.1562 33.9515 25.1064L33.4493 25.0738L33.2926 24.7395C33.097 24.322 31.6339 22.8513 31.1822 22.618C30.7737 22.4071 29.8969 22.367 29.4234 22.5377ZM31.2666 24.6554C31.9474 25.3358 32.0264 25.4407 32.0264 25.6644C32.0264 25.9847 31.8147 26.2698 30.9249 27.1479L30.2303 27.8332L29.1584 26.7601L28.0864 25.6871L28.9132 24.8703C29.8326 23.962 29.9171 23.9011 30.2641 23.8981C30.48 23.8962 30.5907 23.9798 31.2666 24.6554ZM34.9636 27.3637C35.6525 28.0601 35.6847 28.1061 35.6847 28.394C35.6847 28.689 35.661 28.7192 34.544 29.8487L33.4031 31.0022L32.346 29.9456L31.2889 28.8891L32.3085 27.8618C33.4984 26.6628 33.6533 26.5468 33.9963 26.5979C34.1938 26.6274 34.385 26.7787 34.9636 27.3637ZM37.5826 31.0332C38.6676 32.1164 38.7167 31.944 36.7703 33.8838C34.8588 35.7887 35.0323 35.7323 33.9916 34.7873C33.6036 34.435 33.2956 34.1233 33.307 34.0947C33.3185 34.066 33.5654 33.8469 33.8556 33.6076C34.6141 32.9825 34.7585 32.694 34.5462 32.2282C34.4665 32.0535 34.4959 32.0124 35.2321 31.2682C36.5213 29.9652 36.5135 29.9659 37.5826 31.0332ZM39.9549 34.461C40.2073 34.7028 40.443 34.9762 40.4786 35.0688C40.6092 35.4091 40.4326 35.6441 38.899 37.1709C37.4793 38.5843 37.3869 38.6624 37.1356 38.6624C36.9086 38.6624 36.8089 38.6039 36.4461 38.2581C36.2128 38.0357 35.9758 37.7645 35.9192 37.6553C35.717 37.2645 35.8251 37.0995 37.1885 35.7179C38.6531 34.2337 38.9116 34.0215 39.2541 34.0215C39.4548 34.0215 39.5738 34.0962 39.9549 34.461Z" fill="#88EEBC"/>
<defs>
<linearGradient id="paint0_linear_13960_9234" x1="32" y1="0" x2="32" y2="64" gradientUnits="userSpaceOnUse">
<stop stop-color="#A2FACF" stop-opacity="0.16"/>
<stop offset="1" stop-color="#A2FACF" stop-opacity="0.07"/>
</linearGradient>
</defs>
</svg>
