<svg width="64" height="64" viewBox="0 0 64 64" fill="none" xmlns="http://www.w3.org/2000/svg">
<rect x="0.5" y="0.5" width="63" height="63" rx="11.5" fill="#1C1C1C" stroke="url(#paint0_linear_13960_9861)"/>
<path fill-rule="evenodd" clip-rule="evenodd" d="M22.5306 16.0438C18.7213 16.6463 15.9811 19.8174 16.0008 23.6004C16.0115 25.6618 16.7987 27.542 18.2546 28.9835C20.6564 31.3616 24.4057 31.8535 27.3241 30.1733C29.7212 28.7934 31.1483 26.3414 31.1497 23.6004C31.1507 21.4992 30.4238 19.7411 28.9336 18.2412C27.846 17.1465 26.8102 16.5618 25.2858 16.1823C24.8235 16.0673 24.5033 16.031 23.7866 16.0126C23.2854 15.9998 22.7202 16.0138 22.5306 16.0438ZM40.9537 16.0733C40.8406 16.1244 40.6731 16.2375 40.5815 16.3247C40.2478 16.6424 40.2482 16.6383 40.2482 19.6356V22.3913L37.4312 22.4077L34.6143 22.424L34.3649 22.6005C34.2278 22.6975 34.0631 22.8478 33.999 22.9343C33.8687 23.11 33.8048 23.5706 33.8655 23.8947C33.9058 24.1096 34.2221 24.5154 34.4522 24.6475C34.5407 24.6984 35.3603 24.7262 37.3968 24.7474L40.2188 24.7768L40.2482 27.6002C40.2695 29.6377 40.2972 30.4577 40.3481 30.5462C40.4803 30.7767 40.8858 31.0929 41.1009 31.1333C41.6965 31.2451 42.2224 30.9968 42.4568 30.4933L42.5987 30.1883L42.5993 27.4695L42.5999 24.7507L45.4115 24.7344L48.2232 24.718L48.4731 24.5525C48.6462 24.4378 48.7668 24.2931 48.865 24.0819C49.0349 23.7169 49.0435 23.4488 48.896 23.1237C48.7618 22.8281 48.582 22.65 48.2733 22.5065C48.0549 22.405 47.8435 22.3971 45.319 22.3959L42.5999 22.3946V19.671V16.9475L42.4529 16.6565C42.2507 16.2565 41.9289 16.0378 41.4947 16.0055C41.2685 15.9886 41.0926 16.0107 40.9537 16.0733ZM24.824 18.5057C26.846 19.0283 28.4135 20.7047 28.7184 22.671C29.14 25.3893 27.6499 27.7771 25.0117 28.6112C24.5738 28.7496 24.4244 28.7666 23.6103 28.7705C22.8173 28.7742 22.6379 28.7568 22.2287 28.6362C21.0771 28.297 20.1959 27.7118 19.476 26.8085C18.3115 25.3473 18.0286 23.2967 18.7542 21.5771C19.4755 19.8678 20.9159 18.7451 22.8412 18.3916C23.2807 18.3109 24.2964 18.3694 24.824 18.5057ZM22.9048 33.8401C22.8239 33.8545 22.5082 33.9089 22.2032 33.961C20.7071 34.2165 19.3637 34.9274 18.2262 36.0656C16.7604 37.5319 16.0042 39.342 16 41.3935C15.9968 42.9897 16.3991 44.3085 17.3098 45.6873C17.6904 46.2635 18.5863 47.1897 19.1421 47.5816C22.7534 50.1282 27.6914 49.1481 30.0165 45.4235C31.4218 43.1723 31.5348 40.3035 30.3116 37.9288C29.2517 35.8709 27.2575 34.388 24.9625 33.9512C24.4709 33.8576 23.1927 33.7886 22.9048 33.8401ZM40.7186 33.8399C40.6377 33.8544 40.3202 33.909 40.0131 33.9612C38.9923 34.1344 37.7753 34.6569 36.9265 35.2862C36.3181 35.7372 35.494 36.5979 35.1061 37.1872C34.4752 38.1457 34.04 39.2733 33.8977 40.3179C33.8066 40.9869 33.8498 42.4328 33.9782 43.011C34.6486 46.0299 37.0862 48.368 40.113 48.8958C40.7909 49.014 41.8499 49.0286 42.5117 48.9287C45.3693 48.4975 47.7766 46.4405 48.6452 43.6875C49.0177 42.5068 49.0908 41.085 48.8398 39.9022C48.5085 38.3407 47.7831 37.0406 46.6192 35.9225C45.574 34.9185 44.321 34.2621 42.9055 33.9775C42.3608 33.8679 41.0287 33.7841 40.7186 33.8399ZM24.2978 36.2498C26.307 36.5482 27.8799 37.8593 28.5382 39.7841C28.779 40.4882 28.8535 41.5175 28.7224 42.3264C28.3816 44.4274 26.5839 46.226 24.484 46.5669C23.0505 46.7996 21.5751 46.4468 20.4531 45.603C19.4163 44.8232 18.6263 43.5488 18.4454 42.364C18.3179 41.5289 18.3138 41.3538 18.4069 40.7275C18.5862 39.5211 18.9975 38.6697 19.8143 37.8143C20.5798 37.0127 21.4698 36.5108 22.4798 36.3112C23.3273 36.1437 23.536 36.1366 24.2978 36.2498ZM42.5117 36.311C44.4476 36.708 46.0615 38.3008 46.4861 40.2336C46.708 41.2441 46.6768 42.0903 46.3837 43.011C45.808 44.8195 44.1445 46.2671 42.2978 46.5669C39.5724 47.0093 37.0705 45.3814 36.3246 42.6804C36.2445 42.3902 36.222 42.092 36.2253 41.3641C36.2292 40.4985 36.2428 40.3828 36.3939 39.923C36.7187 38.9349 37.1666 38.228 37.892 37.5584C39.1261 36.4194 40.8156 35.9632 42.5117 36.311Z" fill="#88EEBC"/>
<defs>
<linearGradient id="paint0_linear_13960_9861" x1="32" y1="0" x2="32" y2="64" gradientUnits="userSpaceOnUse">
<stop stop-color="#A2FACF" stop-opacity="0.16"/>
<stop offset="1" stop-color="#A2FACF" stop-opacity="0.07"/>
</linearGradient>
</defs>
</svg>
