<svg width="64" height="64" viewBox="0 0 64 64" fill="none" xmlns="http://www.w3.org/2000/svg">
<rect x="0.5" y="0.5" width="63" height="63" rx="11.5" fill="#1C1C1C" stroke="url(#paint0_linear_13960_9243)"/>
<path fill-rule="evenodd" clip-rule="evenodd" d="M15 31.5V44H32.5H50V31.5V19H45.7159H41.4319L42.6765 20.2405L43.921 21.4812L42.2489 23.9416C41.3293 25.2948 40.5769 26.4438 40.5769 26.4949C40.5769 26.5637 41.9334 29.0085 42.5357 30.0252C42.5642 30.0733 42.4877 30.0331 42.3657 29.9359C42.2436 29.8386 41.4177 29.1807 40.5303 28.4739C39.6428 27.7671 38.8653 27.1421 38.8026 27.0849C38.7118 27.0021 38.9056 26.5087 39.7533 24.6646L40.8181 22.3482L39.2035 20.6741L37.5889 19H26.2944H15V31.5ZM38.0044 21.4925C38.5802 22.0777 39.0513 22.5984 39.0513 22.6496C39.0513 22.701 38.5869 23.7575 38.0192 24.9976C37.4516 26.2376 36.9872 27.3035 36.9872 27.3661C36.9872 27.4288 38.7049 28.8481 40.8043 30.5203L44.6215 33.5606L45.1542 33.0996L45.6868 32.6387L45.4708 32.2702C45.352 32.0676 44.5698 30.6981 43.7326 29.227L42.2104 26.5521L43.9514 23.9889C44.9088 22.5791 45.6923 21.3936 45.6923 21.3543C45.6923 21.315 45.502 21.0907 45.2694 20.8557L44.8465 20.4286H46.7053H48.5641V31.5V42.5714H32.5H16.4359V31.5V20.4286H26.6967H36.9577L38.0044 21.4925ZM23.3262 30.2842L23.3013 31.4792L22.2309 31.0878C21.6422 30.8725 21.1512 30.6964 21.1398 30.6964C21.078 30.6964 20.7663 31.7713 20.8188 31.8036C20.8533 31.8247 21.3048 32.0092 21.8221 32.2136C22.3395 32.4179 22.7975 32.6184 22.8397 32.6592C22.882 32.7 22.6057 33.1419 22.2256 33.6412C21.8456 34.1404 21.5485 34.5596 21.5654 34.5725C21.8207 34.7681 22.4541 35.1596 22.5097 35.1562C22.5502 35.1538 22.8862 34.7532 23.2564 34.2662C23.6266 33.7793 23.9528 33.3796 23.9813 33.3779C24.0097 33.3763 24.3257 33.7768 24.6834 34.2679C25.0412 34.7589 25.3634 35.1607 25.3995 35.1607C25.4356 35.1607 25.6042 35.0576 25.7743 34.9314C25.9442 34.8054 26.1383 34.6706 26.2057 34.6321C26.2982 34.579 26.1624 34.3362 25.6474 33.6337L24.967 32.7054L25.2111 32.5979C25.3453 32.5389 25.8286 32.3648 26.2853 32.2112C26.7589 32.0517 27.1154 31.8821 27.1154 31.8163C27.1154 31.7198 27.0089 31.3763 26.8035 30.8105C26.7755 30.7332 26.4358 30.8171 25.6384 31.0986L24.5128 31.4959V30.2926V29.0893H23.932H23.3512L23.3262 30.2842ZM31.9317 29.1488C31.8987 29.1815 31.8718 29.7199 31.8718 30.3453V31.4822L30.8265 31.0876C30.2516 30.8706 29.7584 30.7157 29.7305 30.7435C29.6594 30.8142 29.3592 31.6131 29.3591 31.7317C29.359 31.7854 29.8052 32.0034 30.3506 32.216C30.8959 32.4286 31.3615 32.6339 31.3853 32.6721C31.4091 32.7104 31.1259 33.1515 30.756 33.6522L30.0835 34.5628L30.5514 34.8595C30.8087 35.0227 31.0443 35.1571 31.075 35.1584C31.1056 35.1596 31.4435 34.7595 31.8259 34.2691C32.2083 33.7788 32.5542 33.3978 32.5945 33.4226C32.6349 33.4474 32.9393 33.8486 33.271 34.3142C33.6028 34.7798 33.9022 35.1607 33.9364 35.1607C33.9844 35.1607 34.6329 34.7294 34.8214 34.5721C34.8472 34.5506 33.9976 33.3446 33.5604 32.7819C33.5047 32.7101 33.8014 32.5675 34.5611 32.301C35.3634 32.0195 35.641 31.8834 35.641 31.7716C35.641 31.6487 35.389 30.7983 35.3292 30.719C35.3199 30.7069 34.8311 30.8729 34.2427 31.088L33.1731 31.4792L33.1481 30.2842L33.1232 29.0893H32.5573C32.2461 29.0893 31.9645 29.1161 31.9317 29.1488ZM21.1624 37.5417C21.1295 37.5744 21.1026 37.8958 21.1026 38.256V38.9107H24.109H27.1154V38.1964V37.4821H24.1688C22.5482 37.4821 21.1953 37.5089 21.1624 37.5417ZM29.4188 37.5417C29.3859 37.5744 29.359 37.8958 29.359 38.256V38.9107H32.5H35.641V38.1964V37.4821H32.5599C30.8651 37.4821 29.4517 37.5089 29.4188 37.5417ZM37.8547 37.5417C37.8218 37.5744 37.7949 37.8958 37.7949 38.256V38.9107H40.9359H44.0769V38.1964V37.4821H40.9958C39.301 37.4821 37.8876 37.5089 37.8547 37.5417Z" fill="#88EEBC"/>
<defs>
<linearGradient id="paint0_linear_13960_9243" x1="32" y1="0" x2="32" y2="64" gradientUnits="userSpaceOnUse">
<stop stop-color="#A2FACF" stop-opacity="0.16"/>
<stop offset="1" stop-color="#A2FACF" stop-opacity="0.07"/>
</linearGradient>
</defs>
</svg>
