<svg xmlns="http://www.w3.org/2000/svg" width="260" height="56" fill="none">
  <g clip-path="url(#a)">
    <mask id="b" width="260" height="56" x="0" y="0" maskUnits="userSpaceOnUse" style="mask-type:luminance">
      <path fill="#fff" d="M260 0H0v56h260V0Z"/>
    </mask>
    <g mask="url(#b)">
      <path fill="#000" d="M248 0H12C5.373 0 0 5.373 0 12v32c0 6.627 5.373 12 12 12h236c6.627 0 12-5.373 12-12V12c0-6.627-5.373-12-12-12Z"/>
      <path fill="#E74A36" d="M50 28c0-9.941-8.059-18-18-18s-18 8.059-18 18 8.059 18 18 18 18-8.059 18-18Z"/>
      <path fill="#fff" d="M24.671 29.078c.646-1.135 1.448-2.107 2.559-2.776.127-.078.36-.046.51.008 2.086.809 4.12.692 6.093-.358.923-.49 1.658-1.19 2.04-2.232.113-.311.076-.498-.202-.708-1.71-1.276-3.572-1.447-5.538-.848-4.329 1.315-7.277 4.224-9.019 8.493-.052.133-.098.273-.157.397-.195.404-.525.591-.84.482-.308-.108-.548-.53-.48-.917.067-.366.15-.74.262-1.09.706-2.24 1.966-4.145 3.384-5.957 1.898-2.403 4.322-3.873 7.248-4.402 3.399-.614 6.333.459 8.869 2.83.113.11.18.351.158.507-.285 2.053-1.178 3.74-2.844 4.954-1.358.988-2.799 1.765-4.457 2.014-.518.078-1.05.031-1.568.047h-.593c.128.14.188.226.27.295 1.959 1.688 4.142 2.933 6.648 3.492.76.178 1.551.165 2.304-.038.262-.07.525-.18.765-.311 1.343-.747 1.598-1.782.728-3.073-.308-.45-.683-.855-1.066-1.322.188-.272.405-.583.616-.894 1.658.669 2.911 2.45 2.889 4.114-.016 1.431-.706 2.481-1.838 3.235-1.074.708-2.29.895-3.527.848-5.29-.194-9.56-2.574-13.064-6.587-.052-.062-.09-.125-.15-.203ZM66.451 25H64.31l3.264-9.454h2.576L73.41 25h-2.143l-2.368-7.294h-.074L66.451 25Zm-.133-3.716h5.06v1.56h-5.06v-1.56Zm10.158-.383V25h-1.967v-7.09h1.875v1.25h.083c.157-.412.42-.738.79-.979.368-.243.816-.364 1.343-.364.492 0 .921.107 1.288.323.366.215.65.523.854.923.203.397.304.871.304 1.422V25H79.08v-4.164c.003-.434-.108-.773-.333-1.016-.224-.246-.534-.369-.928-.369a1.41 1.41 0 0 0-.701.17c-.2.115-.357.28-.471.5-.111.215-.168.475-.171.78Zm8.087 0V25h-1.967v-7.09h1.875v1.25h.083c.157-.412.42-.738.79-.979.368-.243.816-.364 1.343-.364.492 0 .921.107 1.288.323.366.215.65.523.854.923.203.397.304.871.304 1.422V25h-1.966v-4.164c.003-.434-.108-.773-.333-1.016-.224-.246-.534-.369-.928-.369a1.41 1.41 0 0 0-.701.17c-.2.115-.357.28-.471.5-.111.215-.168.475-.171.78Zm10.668 1.08v-4.072h1.966V25H95.31v-1.288h-.074c-.16.416-.426.75-.799 1.002-.369.252-.82.378-1.352.378a2.39 2.39 0 0 1-1.251-.323 2.223 2.223 0 0 1-.845-.918c-.2-.398-.302-.873-.305-1.427v-4.515h1.967v4.164c.003.419.115.75.337.993.222.243.518.364.89.364.238 0 .46-.053.666-.161.206-.111.372-.274.498-.49.13-.215.193-.481.19-.798Zm5.561 3.153c-.452 0-.855-.079-1.21-.236a1.946 1.946 0 0 1-.84-.706c-.203-.314-.304-.705-.304-1.172 0-.394.072-.725.217-.993.144-.268.341-.483.59-.646.25-.163.533-.287.85-.37a6.49 6.49 0 0 1 1.006-.175c.413-.043.745-.083.998-.12.252-.04.435-.099.549-.175a.385.385 0 0 0 .171-.342v-.028c0-.292-.093-.518-.277-.678-.182-.16-.44-.24-.776-.24-.354 0-.635.078-.845.235a1.085 1.085 0 0 0-.415.582l-1.819-.148c.092-.431.274-.803.545-1.117.27-.317.62-.56 1.048-.73.431-.172.929-.258 1.495-.258.394 0 .771.046 1.132.138.363.093.684.236.964.43.284.193.507.443.67.747.163.302.244.664.244 1.085V25h-1.865v-.983h-.055a2 2 0 0 1-.457.586c-.191.166-.42.297-.688.392a2.845 2.845 0 0 1-.928.139Zm.563-1.357c.29 0 .545-.057.767-.171.221-.117.395-.274.521-.471.127-.197.19-.42.19-.67v-.752c-.062.04-.147.077-.254.11a4.65 4.65 0 0 1-.356.089c-.132.024-.264.047-.397.069l-.36.05a2.44 2.44 0 0 0-.605.162.964.964 0 0 0-.401.3.727.727 0 0 0-.143.462c0 .268.097.472.291.614.196.138.446.208.747.208Zm6.923-8.232V25h-1.967v-9.454h1.967ZM112.899 25v-9.454h3.73c.714 0 1.323.127 1.828.383.508.252.894.61 1.159 1.075.268.462.401 1.005.401 1.63 0 .628-.135 1.168-.406 1.62-.271.45-.663.794-1.177 1.034-.511.24-1.129.36-1.856.36h-2.497v-1.606h2.174c.382 0 .699-.052.951-.157.252-.105.44-.262.563-.47.126-.21.19-.47.19-.781 0-.314-.064-.579-.19-.794a1.158 1.158 0 0 0-.568-.49c-.252-.113-.57-.17-.955-.17h-1.348V25h-1.999Zm5.106-4.303L120.354 25h-2.206l-2.299-4.303h2.156Zm12.113-.424c0 1.03-.195 1.908-.586 2.631-.388.723-.917 1.276-1.588 1.657-.668.379-1.419.568-2.253.568-.84 0-1.594-.19-2.262-.572-.668-.382-1.196-.934-1.583-1.657-.388-.724-.582-1.6-.582-2.627 0-1.031.194-1.908.582-2.632.387-.723.915-1.274 1.583-1.652.668-.382 1.422-.573 2.262-.573.834 0 1.585.191 2.253.573.671.378 1.2.93 1.588 1.652.391.724.586 1.6.586 2.632Zm-2.026 0c0-.668-.1-1.231-.3-1.69-.197-.458-.476-.806-.836-1.043-.36-.237-.782-.356-1.265-.356-.483 0-.905.119-1.265.356-.36.237-.64.585-.84 1.043-.197.459-.295 1.022-.295 1.69 0 .668.098 1.23.295 1.69.2.458.48.806.84 1.043.36.237.782.355 1.265.355.483 0 .905-.118 1.265-.355.36-.237.639-.585.836-1.044.2-.458.3-1.021.3-1.69Zm8.636-2.008c-.037-.373-.195-.662-.476-.868-.28-.206-.66-.31-1.14-.31-.326 0-.601.047-.826.139a1.16 1.16 0 0 0-.517.374.9.9 0 0 0-.176.544.78.78 0 0 0 .107.444c.08.126.189.235.327.328.139.089.299.167.48.235.182.065.376.12.582.166l.85.203c.412.093.791.216 1.135.37.345.153.643.343.896.567.252.225.448.49.586.794a2.5 2.5 0 0 1 .217 1.048c-.003.579-.151 1.08-.443 1.505-.289.422-.708.75-1.256.984-.545.23-1.202.346-1.971.346-.763 0-1.428-.117-1.994-.351-.564-.234-1.004-.58-1.321-1.039-.314-.461-.478-1.032-.494-1.712h1.935c.021.317.112.581.272.794.163.209.38.367.651.475.274.105.583.157.928.157a2.4 2.4 0 0 0 .882-.148c.252-.098.447-.235.586-.41a.952.952 0 0 0 .208-.605.782.782 0 0 0-.19-.536 1.432 1.432 0 0 0-.544-.37 5.544 5.544 0 0 0-.873-.276l-1.029-.259c-.797-.194-1.427-.497-1.888-.909-.462-.412-.691-.968-.688-1.667-.003-.572.149-1.072.457-1.5.311-.428.737-.762 1.278-1.002.542-.24 1.158-.36 1.847-.36.702 0 1.314.12 1.837.36.527.24.936.574 1.228 1.002.293.428.444.923.453 1.487h-1.916Zm8.519 0c-.037-.373-.196-.662-.476-.868-.28-.206-.66-.31-1.14-.31-.326 0-.602.047-.827.139-.224.09-.397.214-.517.374a.9.9 0 0 0-.175.544.779.779 0 0 0 .106.444c.08.126.189.235.328.328.138.089.298.167.48.235.182.065.375.12.582.166l.849.203c.413.093.791.216 1.136.37.344.153.643.343.895.567.253.225.448.49.587.794.141.305.214.654.217 1.048-.003.579-.151 1.08-.444 1.505-.289.422-.707.75-1.255.984-.545.23-1.202.346-1.971.346-.764 0-1.428-.117-1.995-.351-.563-.234-1.003-.58-1.32-1.039-.314-.461-.479-1.032-.494-1.712h1.934c.022.317.113.581.273.794.163.209.38.367.651.475.273.105.583.157.927.157.339 0 .633-.05.882-.148.253-.098.448-.235.586-.41a.946.946 0 0 0 .208-.605.787.787 0 0 0-.189-.536c-.123-.144-.305-.268-.545-.37a5.563 5.563 0 0 0-.872-.276l-1.03-.259c-.797-.194-1.426-.497-1.888-.909-.462-.412-.691-.968-.688-1.667-.003-.572.149-1.072.457-1.5.311-.428.737-.762 1.279-1.002.542-.24 1.157-.36 1.847-.36.701 0 1.314.12 1.837.36.526.24.936.574 1.228 1.002.292.428.443.923.452 1.487h-1.915Zm8.397-2.72V25h-1.999v-9.454h1.999Zm3.574 5.356V25h-1.966v-7.09h1.874v1.25h.083a1.98 1.98 0 0 1 .789-.979c.37-.243.818-.364 1.344-.364.492 0 .922.107 1.288.323.366.215.651.523.854.923.203.397.305.871.305 1.422V25h-1.967v-4.164c.003-.434-.108-.773-.332-1.016-.225-.246-.534-.369-.928-.369a1.41 1.41 0 0 0-.702.17c-.2.115-.357.28-.471.5a1.724 1.724 0 0 0-.171.78Zm8.733 4.214a2.677 2.677 0 0 1-1.463-.415c-.434-.28-.779-.691-1.034-1.233-.252-.544-.379-1.212-.379-2.003 0-.813.131-1.488.393-2.027.261-.542.609-.946 1.043-1.214.437-.27.916-.406 1.436-.406.397 0 .728.067.992.203.268.132.484.298.647.498.166.197.292.391.378.582h.06v-3.555h1.962V25h-1.939v-1.136h-.083a2.53 2.53 0 0 1-.392.587c-.166.19-.383.349-.651.475-.265.126-.588.19-.97.19Zm.624-1.565c.317 0 .584-.086.803-.258.222-.176.391-.42.508-.734.12-.314.18-.682.18-1.104 0-.421-.059-.787-.176-1.098a1.58 1.58 0 0 0-.507-.72 1.293 1.293 0 0 0-.808-.254c-.323 0-.596.087-.817.263-.222.175-.39.418-.504.73-.114.31-.17.67-.17 1.08 0 .412.056.777.17 1.094.117.314.285.56.504.738.221.176.494.263.817.263Zm8.26 1.588c-.73 0-1.358-.147-1.884-.443a3.034 3.034 0 0 1-1.209-1.265c-.283-.547-.425-1.195-.425-1.943 0-.73.142-1.37.425-1.92.283-.552.681-.98 1.195-1.289.517-.307 1.124-.461 1.819-.461.468 0 .904.075 1.307.226.406.148.76.37 1.061.67.305.298.542.673.711 1.126.17.45.254.975.254 1.579v.54h-5.987v-1.219h4.136c0-.283-.061-.534-.185-.753a1.318 1.318 0 0 0-.512-.512 1.459 1.459 0 0 0-.752-.19c-.299 0-.564.07-.795.209a1.46 1.46 0 0 0-.535.549 1.565 1.565 0 0 0-.199.762v1.158c0 .351.065.654.194.91.133.255.319.452.559.59.24.14.525.209.854.209.219 0 .419-.031.6-.093a1.2 1.2 0 0 0 .762-.73l1.819.12a2.492 2.492 0 0 1-.568 1.146 2.845 2.845 0 0 1-1.099.757c-.446.178-.962.268-1.546.268Zm6.054-7.229 1.302 2.48 1.334-2.48h2.018l-2.055 3.546 2.11 3.545h-2.008l-1.399-2.451L180.815 25h-2.031l2.105-3.546-2.031-3.545h2.031ZM189.701 25v-1.44l3.365-3.116c.287-.277.527-.527.72-.748.197-.222.347-.439.448-.651.102-.216.153-.448.153-.697 0-.277-.063-.516-.19-.716a1.24 1.24 0 0 0-.517-.466 1.618 1.618 0 0 0-.743-.166c-.289 0-.542.058-.757.175a1.213 1.213 0 0 0-.499.503 1.63 1.63 0 0 0-.175.78h-1.897c0-.618.14-1.155.42-1.61.28-.456.672-.809 1.177-1.058.505-.25 1.086-.374 1.745-.374.677 0 1.266.12 1.768.36.505.237.897.567 1.177.988.28.422.42.905.42 1.45 0 .357-.07.71-.212 1.057-.139.348-.386.734-.743 1.159-.357.421-.86.928-1.51 1.518l-1.38 1.353v.065h3.97V25h-6.74Zm11.895.208c-.794-.003-1.477-.199-2.049-.587-.57-.387-1.008-.949-1.316-1.685-.305-.735-.455-1.62-.452-2.654 0-1.031.152-1.91.457-2.636.307-.726.746-1.279 1.315-1.657.573-.382 1.254-.573 2.045-.573.791 0 1.472.191 2.041.573.572.381 1.012.935 1.32 1.662.308.723.46 1.6.457 2.631 0 1.037-.154 1.924-.461 2.66-.305.735-.742 1.296-1.311 1.684-.57.388-1.252.582-2.046.582Zm0-1.658c.542 0 .974-.272 1.298-.817.323-.544.483-1.362.48-2.451 0-.717-.074-1.314-.222-1.791-.144-.477-.351-.836-.618-1.076a1.352 1.352 0 0 0-.938-.36c-.538 0-.969.27-1.292.808-.323.538-.486 1.345-.49 2.419 0 .726.073 1.333.217 1.819.148.483.356.846.624 1.09.267.24.581.36.941.36ZM206.84 25v-1.44l3.365-3.116c.286-.277.526-.527.72-.748.197-.222.346-.439.448-.651.102-.216.152-.448.152-.697 0-.277-.063-.516-.189-.716a1.245 1.245 0 0 0-.517-.466 1.62 1.62 0 0 0-.743-.166c-.29 0-.542.058-.757.175a1.207 1.207 0 0 0-.499.503 1.63 1.63 0 0 0-.175.78h-1.898c0-.618.14-1.155.42-1.61.28-.456.673-.809 1.178-1.058.504-.25 1.086-.374 1.745-.374.677 0 1.266.12 1.768.36a2.81 2.81 0 0 1 1.177.988c.28.422.42.905.42 1.45 0 .357-.071.71-.212 1.057-.139.348-.387.734-.744 1.159-.357.421-.86.928-1.509 1.518l-1.381 1.353v.065h3.971V25h-6.74Zm8.188 0v-1.44l3.365-3.116c.287-.277.527-.527.721-.748.197-.222.346-.439.447-.651.102-.216.153-.448.153-.697 0-.277-.063-.516-.189-.716a1.248 1.248 0 0 0-.518-.466 1.618 1.618 0 0 0-.743-.166c-.289 0-.541.058-.757.175a1.205 1.205 0 0 0-.498.503 1.63 1.63 0 0 0-.176.78h-1.897c0-.618.14-1.155.42-1.61.28-.456.672-.809 1.177-1.058.505-.25 1.086-.374 1.745-.374.677 0 1.267.12 1.768.36.505.237.897.567 1.177.988.28.422.42.905.42 1.45 0 .357-.07.71-.212 1.057-.138.348-.386.734-.743 1.159-.357.421-.86.928-1.51 1.518l-1.38 1.353v.065h3.97V25h-6.74ZM64.483 36.508v-.78h5.454v.78h-2.286V43h-.881v-6.492h-2.287Zm8.125 6.606c-.493 0-.925-.118-1.296-.352a2.389 2.389 0 0 1-.867-.984c-.206-.421-.309-.913-.309-1.477 0-.568.103-1.064.31-1.488.208-.424.496-.753.866-.987.371-.234.803-.352 1.296-.352.492 0 .923.118 1.293.352.371.234.66.563.866.987.208.424.313.92.313 1.488 0 .564-.105 1.056-.313 1.477-.206.422-.495.75-.866.984-.37.234-.8.352-1.293.352Zm0-.753c.374 0 .682-.096.923-.288.242-.192.42-.444.536-.756.117-.313.175-.651.175-1.016 0-.364-.059-.704-.175-1.019a1.717 1.717 0 0 0-.536-.763c-.241-.195-.549-.292-.923-.292s-.682.097-.923.292c-.242.194-.42.448-.537.763a2.925 2.925 0 0 0-.174 1.02c0 .364.058.702.174 1.015.116.312.295.564.537.756.241.192.549.288.923.288Zm3.75 2.684v-7.5h.81v.867h.1a7.52 7.52 0 0 1 .256-.362 1.5 1.5 0 0 1 .475-.398c.209-.118.49-.178.846-.178.459 0 .864.115 1.214.345.35.23.624.555.82.976.197.422.295.919.295 1.492 0 .578-.098 1.078-.295 1.502a2.326 2.326 0 0 1-.816.98c-.348.23-.75.345-1.204.345-.35 0-.631-.058-.842-.174a1.56 1.56 0 0 1-.486-.402 5.407 5.407 0 0 1-.263-.376h-.071v2.883h-.838Zm.825-4.772c0 .412.06.775.18 1.09.122.312.298.557.53.735.232.175.516.263.852.263.35 0 .643-.092.877-.277.237-.187.415-.438.533-.753.12-.317.181-.67.181-1.058 0-.384-.06-.73-.177-1.037a1.602 1.602 0 0 0-.53-.735c-.234-.183-.529-.274-.884-.274-.34 0-.627.087-.86.26-.231.17-.406.41-.525.717a2.948 2.948 0 0 0-.177 1.069Zm8.395-.782v.782h-3.182v-.782h3.182ZM89.31 43.1c-.417 0-.792-.082-1.126-.248a2.09 2.09 0 0 1-.803-.682 1.857 1.857 0 0 1-.33-.987h.852c.034.329.183.601.448.817.267.213.587.32.959.32.298 0 .563-.07.795-.21a1.48 1.48 0 0 0 .55-.576c.135-.246.203-.524.203-.834 0-.317-.07-.6-.21-.849a1.538 1.538 0 0 0-.568-.593 1.606 1.606 0 0 0-.827-.22 2.276 2.276 0 0 0-.686.103 1.907 1.907 0 0 0-.578.266l-.824-.1.44-3.579h3.779v.782h-3.04l-.256 2.144h.043c.149-.118.336-.216.56-.294.226-.078.46-.117.704-.117.445 0 .842.106 1.19.32.35.21.625.499.823.866.202.367.302.786.302 1.257 0 .464-.104.878-.312 1.243-.206.362-.49.648-.853.859a2.433 2.433 0 0 1-1.235.312Zm6.183 0c-.535 0-.99-.145-1.367-.436-.376-.294-.664-.719-.863-1.275-.199-.559-.298-1.234-.298-2.024 0-.786.1-1.457.298-2.014.201-.559.49-.985.867-1.278.378-.296.833-.444 1.363-.444s.984.148 1.36.444c.379.293.668.72.867 1.278.2.556.301 1.228.301 2.014 0 .79-.099 1.465-.298 2.024-.199.556-.486.981-.863 1.275-.376.29-.832.436-1.367.436Zm0-.78c.53 0 .942-.257 1.236-.768.293-.511.44-1.24.44-2.187 0-.63-.067-1.166-.202-1.609-.133-.443-.325-.78-.575-1.012a1.27 1.27 0 0 0-.899-.348c-.525 0-.936.26-1.232.778-.296.516-.444 1.246-.444 2.19 0 .63.066 1.165.199 1.606.132.44.323.775.572 1.005.25.23.552.344.905.344Zm9.134-4.774v.71h-2.941v-.71h2.941ZM102.568 43v-6.207c0-.313.073-.573.22-.782.147-.208.338-.364.572-.468.234-.105.482-.157.742-.157a1.942 1.942 0 0 1 .796.142l-.242.725a4.64 4.64 0 0 0-.177-.053 1.085 1.085 0 0 0-.292-.032c-.277 0-.477.07-.6.21-.121.139-.181.344-.181.614V43h-.838Zm4.683.128c-.346 0-.659-.065-.941-.196a1.614 1.614 0 0 1-.671-.571c-.166-.251-.249-.554-.249-.91 0-.312.062-.565.185-.76.123-.196.288-.35.494-.46.206-.112.433-.195.681-.25.251-.056.503-.101.757-.134.331-.043.6-.075.806-.096.208-.024.36-.063.454-.117.097-.055.146-.15.146-.285v-.028c0-.35-.096-.623-.288-.817-.189-.194-.477-.29-.863-.29-.4 0-.713.087-.941.262-.227.175-.387.362-.479.56l-.795-.283c.142-.332.331-.59.568-.774.239-.187.499-.318.781-.39.284-.077.563-.115.838-.115.175 0 .376.022.604.064.229.04.451.125.664.253.215.127.394.32.536.578.142.258.213.604.213 1.037V43h-.838v-.739h-.043a1.447 1.447 0 0 1-.284.38c-.132.135-.309.25-.529.345-.22.095-.489.142-.806.142Zm.128-.753c.331 0 .611-.065.838-.195a1.326 1.326 0 0 0 .696-1.154v-.768c-.036.043-.114.082-.234.118a4.005 4.005 0 0 1-.412.089 19.048 19.048 0 0 1-.803.106 3.212 3.212 0 0 0-.611.139 1.051 1.051 0 0 0-.454.28c-.114.123-.171.291-.171.504 0 .291.108.512.323.66.218.148.494.221.828.221Zm7.765-3.608-.752.213a1.43 1.43 0 0 0-.21-.366c-.09-.12-.213-.22-.369-.298a1.344 1.344 0 0 0-.6-.117c-.334 0-.612.077-.835.23-.22.152-.33.345-.33.58 0 .208.076.372.227.493.152.12.388.221.71.302l.81.199c.488.118.851.3 1.09.543.239.242.359.553.359.934 0 .313-.09.592-.27.838-.178.246-.426.44-.746.583a2.722 2.722 0 0 1-1.115.213c-.556 0-1.017-.121-1.381-.363-.365-.241-.596-.594-.693-1.058l.796-.199c.075.294.219.514.429.66.213.148.492.221.835.221.391 0 .701-.083.93-.249.232-.168.348-.369.348-.603a.633.633 0 0 0-.199-.476c-.132-.13-.336-.227-.61-.291l-.909-.213c-.5-.119-.867-.302-1.101-.55-.232-.252-.348-.565-.348-.942 0-.308.086-.58.259-.817.175-.236.413-.422.714-.557a2.506 2.506 0 0 1 1.03-.203c.539 0 .963.119 1.271.356.31.236.53.549.66.937Zm3.733-1.222v.71h-2.826v-.71h2.826Zm-2.002-1.306h.838v5.199c0 .236.034.414.103.532a.533.533 0 0 0 .27.235c.111.037.228.056.351.056a1.492 1.492 0 0 0 .369-.042l.171.753a1.707 1.707 0 0 1-.238.063 1.752 1.752 0 0 1-.387.036c-.237 0-.469-.05-.696-.153a1.38 1.38 0 0 1-.561-.465c-.147-.208-.22-.471-.22-.788v-5.426Zm5.491 6.875c-.525 0-.978-.116-1.36-.348a2.341 2.341 0 0 1-.877-.98c-.203-.422-.305-.912-.305-1.47 0-.56.102-1.052.305-1.478.206-.428.493-.762.86-1.001.369-.242.8-.363 1.292-.363.284 0 .565.048.842.143.277.094.529.248.756.461.228.21.409.49.544.838.135.348.202.777.202 1.286v.355h-4.205v-.725h3.353a1.79 1.79 0 0 0-.185-.824 1.391 1.391 0 0 0-.518-.571 1.455 1.455 0 0 0-.789-.21c-.334 0-.622.083-.866.249a1.63 1.63 0 0 0-.558.64 1.88 1.88 0 0 0-.195.844v.483c0 .412.071.761.213 1.048.144.284.344.5.6.65.256.146.553.22.891.22.221 0 .42-.031.597-.092.18-.064.335-.16.465-.285.13-.128.231-.286.302-.476l.81.228a1.796 1.796 0 0 1-.43.724c-.201.206-.45.367-.746.483-.296.114-.628.17-.998.17Zm7.397-4.347-.752.213a1.43 1.43 0 0 0-.21-.366c-.09-.12-.213-.22-.369-.298a1.338 1.338 0 0 0-.6-.117c-.334 0-.612.077-.835.23-.22.152-.33.345-.33.58 0 .208.076.372.227.493.152.12.388.221.71.302l.81.199c.488.118.851.3 1.09.543.239.242.359.553.359.934 0 .313-.09.592-.27.838-.178.246-.426.44-.746.583a2.722 2.722 0 0 1-1.115.213c-.556 0-1.017-.121-1.381-.363-.365-.241-.596-.594-.693-1.058l.796-.199c.076.294.219.514.43.66.213.148.491.221.834.221.391 0 .701-.083.93-.249.232-.168.348-.369.348-.603a.636.636 0 0 0-.198-.476c-.133-.13-.337-.227-.611-.291l-.909-.213c-.5-.119-.867-.302-1.101-.55-.232-.252-.348-.565-.348-.942 0-.308.086-.58.259-.817.175-.236.413-.422.714-.557a2.506 2.506 0 0 1 1.03-.203c.539 0 .963.119 1.271.356.31.236.53.549.66.937Zm3.734-1.222v.71h-2.827v-.71h2.827Zm-2.003-1.306h.838v5.199c0 .236.034.414.103.532a.533.533 0 0 0 .27.235c.111.037.228.056.351.056.093 0 .168-.004.228-.014l.142-.028.17.753a1.707 1.707 0 0 1-.238.063 1.752 1.752 0 0 1-.387.036c-.237 0-.469-.05-.696-.153a1.38 1.38 0 0 1-.561-.465c-.147-.208-.22-.471-.22-.788v-5.426Zm6.193 3.253v.78h-3.182v-.78h3.182Zm3.676 5.667c-.405 0-.753-.052-1.044-.156a2.216 2.216 0 0 1-.728-.405 2.24 2.24 0 0 1-.458-.533l.668-.468c.076.099.171.213.287.34.116.13.275.243.476.338.204.097.47.145.799.145.441 0 .804-.106 1.09-.32.287-.212.43-.546.43-1v-1.108h-.071c-.061.099-.149.222-.263.369a1.485 1.485 0 0 1-.483.387c-.208.111-.49.167-.845.167-.44 0-.835-.104-1.186-.313a2.188 2.188 0 0 1-.827-.909c-.201-.398-.302-.88-.302-1.449 0-.558.098-1.045.295-1.46.196-.416.47-.738.82-.965.35-.23.755-.345 1.214-.345.356 0 .637.06.846.178.21.116.371.249.483.398.113.147.201.267.262.362h.086v-.867h.809v5.611c0 .469-.106.85-.319 1.144a1.82 1.82 0 0 1-.853.65c-.355.14-.75.21-1.186.21Zm-.028-2.997c.336 0 .62-.077.852-.23a1.43 1.43 0 0 0 .529-.665c.121-.289.181-.634.181-1.037 0-.393-.059-.74-.177-1.04a1.566 1.566 0 0 0-.526-.707c-.232-.17-.518-.256-.859-.256-.355 0-.651.09-.888.27-.234.18-.411.422-.529.725a2.8 2.8 0 0 0-.174 1.008c0 .379.059.714.178 1.005.12.289.298.516.532.682.237.163.53.245.881.245Zm3.92.838v-5.455h.81v.824h.057c.099-.27.279-.489.54-.657.26-.168.554-.252.88-.252a9.12 9.12 0 0 1 .441.014v.853a2.554 2.554 0 0 0-.196-.032 1.92 1.92 0 0 0-.316-.025c-.265 0-.502.055-.71.167a1.229 1.229 0 0 0-.668 1.111V43h-.838Zm5.771.114c-.493 0-.925-.118-1.296-.352a2.39 2.39 0 0 1-.867-.984c-.206-.421-.309-.913-.309-1.477 0-.568.103-1.064.309-1.488.209-.424.497-.753.867-.987.371-.234.803-.352 1.296-.352.492 0 .923.118 1.293.352.371.234.66.563.866.987.208.424.313.92.313 1.488 0 .564-.105 1.056-.313 1.477a2.36 2.36 0 0 1-.866.984c-.37.234-.801.352-1.293.352Zm0-.753c.374 0 .682-.096.923-.288.242-.192.42-.444.536-.756.116-.313.174-.651.174-1.016 0-.364-.058-.704-.174-1.019a1.713 1.713 0 0 0-.536-.763c-.241-.195-.549-.292-.923-.292s-.682.097-.923.292a1.715 1.715 0 0 0-.537.763 2.925 2.925 0 0 0-.174 1.02c0 .364.058.702.174 1.015.116.312.295.564.537.756.241.192.549.288.923.288Zm4.801.639-1.662-5.455h.881l1.179 4.177h.057l1.164-4.177h.895l1.151 4.162h.057l1.179-4.162h.88L159.946 43h-.823l-1.194-4.19h-.085L156.651 43h-.824Zm6.889 0v-5.455h.838V43h-.838Zm.426-6.364a.595.595 0 0 1-.422-.167.536.536 0 0 1-.174-.4c0-.157.058-.29.174-.402a.594.594 0 0 1 .422-.167c.164 0 .303.056.419.167a.53.53 0 0 1 .178.401.53.53 0 0 1-.178.401.583.583 0 0 1-.419.167Zm2.785 3.083V43h-.838v-5.455h.81v.853h.071c.128-.277.322-.5.582-.668.261-.17.597-.256 1.009-.256.369 0 .692.076.969.228.277.149.493.376.647.681.154.304.23.687.23 1.151V43h-.838v-3.41c0-.428-.111-.761-.333-1-.223-.242-.528-.363-.917-.363-.267 0-.506.058-.717.174a1.25 1.25 0 0 0-.494.508c-.12.223-.181.492-.181.81Zm7.214 5.44c-.405 0-.753-.052-1.044-.156a2.206 2.206 0 0 1-1.186-.938l.667-.468c.076.099.172.213.288.34.116.13.274.243.476.338.203.097.47.145.799.145.44 0 .803-.106 1.09-.32.286-.212.43-.546.43-1v-1.108h-.072c-.061.099-.149.222-.262.369a1.507 1.507 0 0 1-.483.387c-.209.111-.49.167-.845.167a2.28 2.28 0 0 1-1.187-.313 2.195 2.195 0 0 1-.827-.909c-.201-.398-.302-.88-.302-1.449 0-.558.098-1.045.295-1.46.196-.416.47-.738.82-.965a2.17 2.17 0 0 1 1.215-.345c.355 0 .637.06.845.178.211.116.372.249.483.398.114.147.201.267.263.362h.085v-.867h.81v5.611c0 .469-.107.85-.32 1.144a1.823 1.823 0 0 1-.852.65c-.355.14-.751.21-1.186.21Zm-.029-2.997c.336 0 .62-.077.852-.23.232-.155.409-.376.53-.665.12-.289.181-.634.181-1.037 0-.393-.059-.74-.178-1.04a1.557 1.557 0 0 0-.525-.707c-.232-.17-.519-.256-.86-.256-.355 0-.651.09-.888.27a1.65 1.65 0 0 0-.529.725 2.8 2.8 0 0 0-.174 1.008c0 .379.059.714.178 1.005.121.289.298.516.533.682.236.163.53.245.88.245Zm12.983-2.798c0 .767-.138 1.43-.415 1.988-.277.559-.657.99-1.14 1.293-.483.303-1.035.454-1.655.454-.62 0-1.172-.151-1.655-.454-.483-.303-.863-.734-1.14-1.293-.277-.558-.415-1.221-.415-1.988 0-.767.138-1.43.415-1.989.277-.559.657-.99 1.14-1.293.483-.303 1.035-.454 1.655-.454.62 0 1.172.151 1.655.454.483.303.863.734 1.14 1.293.277.559.415 1.222.415 1.989Zm-.852 0c0-.63-.105-1.162-.316-1.595-.208-.433-.491-.761-.849-.983a2.201 2.201 0 0 0-1.193-.334c-.44 0-.839.111-1.197.334-.355.222-.638.55-.849.983-.208.433-.312.965-.312 1.595s.104 1.16.312 1.594c.211.433.494.761.849.984.358.222.757.334 1.197.334.44 0 .838-.112 1.193-.334.358-.223.641-.55.849-.984.211-.433.316-.965.316-1.594Zm6.31-1.819a1.112 1.112 0 0 0-.518-.838c-.303-.199-.675-.298-1.115-.298-.322 0-.604.052-.845.156-.24.105-.427.248-.562.43-.132.182-.198.39-.198.622a.89.89 0 0 0 .138.5c.095.138.216.252.362.345.147.09.301.164.462.223.161.057.309.103.444.139l.739.199c.189.05.4.118.632.206.234.087.458.207.671.358.215.15.393.341.532.576.14.234.21.522.21.863 0 .393-.103.748-.309 1.065-.204.317-.502.57-.895.756-.39.187-.865.28-1.424.28-.521 0-.972-.083-1.353-.251a2.157 2.157 0 0 1-.895-.703c-.215-.301-.337-.65-.366-1.048h.91c.023.275.116.502.277.682.163.177.369.31.617.398.251.085.521.127.81.127.336 0 .638-.054.906-.163.267-.111.479-.265.635-.462a1.09 1.09 0 0 0 .235-.696.853.853 0 0 0-.203-.59 1.485 1.485 0 0 0-.532-.368 5.625 5.625 0 0 0-.714-.249l-.895-.256c-.568-.163-1.018-.396-1.349-.7-.332-.302-.498-.699-.498-1.189 0-.407.11-.762.331-1.065.222-.306.52-.542.895-.71.376-.17.796-.256 1.26-.256.469 0 .886.084 1.25.252.365.166.654.393.867.682.215.289.329.617.341.983h-.853Zm8.962 1.222-.752.213a1.43 1.43 0 0 0-.21-.366c-.09-.12-.213-.22-.369-.298a1.341 1.341 0 0 0-.6-.117c-.334 0-.612.077-.835.23-.22.152-.33.345-.33.58 0 .208.076.372.227.493.152.12.388.221.71.302l.81.199c.488.118.851.3 1.09.543.239.242.359.553.359.934 0 .313-.09.592-.27.838-.178.246-.426.44-.746.583a2.722 2.722 0 0 1-1.115.213c-.556 0-1.017-.121-1.381-.363-.365-.241-.596-.594-.693-1.058l.796-.199c.076.294.219.514.429.66.214.148.492.221.835.221.391 0 .701-.083.93-.249.232-.168.348-.369.348-.603a.636.636 0 0 0-.198-.476c-.133-.13-.337-.227-.611-.291l-.909-.213c-.5-.119-.867-.302-1.101-.55-.232-.252-.348-.565-.348-.942 0-.308.086-.58.259-.817.175-.236.413-.422.714-.557a2.506 2.506 0 0 1 1.03-.203c.539 0 .963.119 1.271.356.31.236.53.549.66.937Zm3.734-1.222v.71h-2.827v-.71h2.827Zm-2.003-1.306h.838v5.199c0 .236.034.414.103.532a.533.533 0 0 0 .27.235c.111.037.228.056.351.056.093 0 .168-.004.228-.014l.142-.028.17.753a1.707 1.707 0 0 1-.238.063 1.752 1.752 0 0 1-.387.036c-.237 0-.469-.05-.696-.153a1.38 1.38 0 0 1-.561-.465c-.147-.208-.22-.471-.22-.788v-5.426Zm4.868 6.889a2.22 2.22 0 0 1-.941-.196 1.62 1.62 0 0 1-.671-.571c-.166-.251-.248-.554-.248-.91 0-.312.061-.565.184-.76.123-.196.288-.35.494-.46.206-.112.433-.195.682-.25.251-.056.503-.101.756-.134.331-.043.6-.075.806-.096.208-.024.36-.063.455-.117.097-.055.145-.15.145-.285v-.028c0-.35-.096-.623-.287-.817-.19-.194-.477-.29-.863-.29-.4 0-.714.087-.941.262a1.555 1.555 0 0 0-.48.56l-.795-.283c.142-.332.331-.59.568-.774.239-.187.5-.318.781-.39.284-.077.564-.115.838-.115.175 0 .377.022.604.064.23.04.451.125.664.253.215.127.394.32.536.578.142.258.213.604.213 1.037V43h-.838v-.739h-.042a1.493 1.493 0 0 1-.284.38c-.133.135-.309.25-.53.345-.22.095-.488.142-.806.142Zm.128-.753c.332 0 .611-.065.838-.195a1.329 1.329 0 0 0 .696-1.154v-.768c-.035.043-.113.082-.234.118a3.948 3.948 0 0 1-.412.089 18.34 18.34 0 0 1-.803.106 3.201 3.201 0 0 0-.61.139 1.055 1.055 0 0 0-.455.28c-.114.123-.17.291-.17.504 0 .291.107.512.323.66.218.148.493.221.827.221Zm3.902.625v-5.455h.81v.824h.056c.1-.27.28-.489.54-.657a1.59 1.59 0 0 1 .881-.252 9.258 9.258 0 0 1 .44.014v.853a2.41 2.41 0 0 0-.195-.032 1.928 1.928 0 0 0-.316-.025c-.265 0-.502.055-.71.167a1.22 1.22 0 0 0-.668 1.111V43h-.838Zm6.435-5.455v.71h-2.827v-.71h2.827Zm-2.003-1.306h.838v5.199c0 .236.034.414.103.532a.533.533 0 0 0 .27.235c.111.037.228.056.351.056.093 0 .168-.004.228-.014l.142-.028.17.753a1.707 1.707 0 0 1-.238.063 1.752 1.752 0 0 1-.387.036c-.237 0-.469-.05-.696-.153a1.38 1.38 0 0 1-.561-.465c-.147-.208-.22-.471-.22-.788v-5.426Zm6.701 4.53v-3.224h.838V43h-.838v-.923h-.057a1.79 1.79 0 0 1-.597.706c-.269.192-.61.288-1.022.288-.341 0-.644-.075-.909-.224a1.558 1.558 0 0 1-.625-.681c-.152-.306-.228-.69-.228-1.155v-3.466h.838v3.41c0 .397.112.715.334.951.225.237.512.355.86.355.208 0 .42-.053.635-.16.218-.106.4-.27.547-.49.149-.22.224-.5.224-.841Zm2.373 4.276v-7.5h.81v.867h.099c.062-.095.147-.215.256-.362.111-.15.27-.282.475-.398.209-.118.491-.178.846-.178.459 0 .864.115 1.214.345.351.23.624.555.82.976.197.422.295.919.295 1.492 0 .578-.098 1.078-.295 1.502a2.32 2.32 0 0 1-.816.98c-.348.23-.75.345-1.204.345-.351 0-.631-.058-.842-.174a1.558 1.558 0 0 1-.486-.402 5.42 5.42 0 0 1-.263-.376h-.071v2.883h-.838Zm.824-4.772c0 .412.06.775.181 1.09.121.312.297.557.529.735.232.175.516.263.852.263.351 0 .643-.092.877-.277a1.69 1.69 0 0 0 .533-.753 2.95 2.95 0 0 0 .181-1.058c0-.384-.059-.73-.177-1.037a1.602 1.602 0 0 0-.53-.735c-.234-.183-.529-.274-.884-.274-.341 0-.627.087-.859.26-.232.17-.407.41-.526.717a2.957 2.957 0 0 0-.177 1.069Zm9.133-1.506-.753.213a1.396 1.396 0 0 0-.209-.366c-.09-.12-.213-.22-.369-.298a1.346 1.346 0 0 0-.601-.117c-.333 0-.612.077-.834.23-.22.152-.33.345-.33.58 0 .208.075.372.227.493.151.12.388.221.71.302l.81.199c.488.118.851.3 1.09.543.239.242.359.553.359.934 0 .313-.09.592-.27.838-.178.246-.426.44-.746.583-.32.142-.691.213-1.115.213-.556 0-1.017-.121-1.381-.363-.365-.241-.596-.594-.693-1.058l.796-.199c.075.294.219.514.429.66.213.148.492.221.835.221.39 0 .701-.083.93-.249.232-.168.348-.369.348-.603a.633.633 0 0 0-.199-.476c-.132-.13-.336-.227-.61-.291l-.91-.213c-.499-.119-.866-.302-1.1-.55-.232-.252-.348-.565-.348-.942 0-.308.086-.58.259-.817.175-.236.413-.422.714-.557a2.505 2.505 0 0 1 1.029-.203c.54 0 .964.119 1.272.356.31.236.53.549.66.937Z"/>
    </g>
  </g>
  <defs>
    <clipPath id="a">
      <path fill="#fff" d="M0 0h260v56H0z"/>
    </clipPath>
  </defs>
</svg>