<svg width="12" height="13" viewBox="0 0 12 13" fill="none" xmlns="http://www.w3.org/2000/svg">
<path d="M8.62434 0.578125H1.74381C1.59244 0.578919 1.44272 0.607392 1.3032 0.661916C1.16368 0.716441 1.03709 0.79595 0.930658 0.895903C0.824229 0.995856 0.740045 1.1143 0.682911 1.24446C0.625778 1.37463 0.596814 1.51397 0.597675 1.65453V9.19452H1.74381V1.65453H8.62434V0.578125ZM10.3435 2.73179H4.03607C3.8847 2.73259 3.73498 2.76106 3.59546 2.81558C3.45594 2.87011 3.32935 2.94962 3.22292 3.04957C3.1165 3.14952 3.03231 3.26796 2.97518 3.39813C2.91804 3.52829 2.88908 3.66763 2.88994 3.80819V11.3482C2.88908 11.4887 2.91804 11.6281 2.97518 11.7583C3.03231 11.8884 3.1165 12.0069 3.22292 12.1068C3.32935 12.2068 3.45594 12.2863 3.59546 12.3408C3.73498 12.3953 3.8847 12.4238 4.03607 12.4246H10.3398C10.4912 12.4238 10.6409 12.3953 10.7804 12.3408C10.9199 12.2863 11.0465 12.2068 11.153 12.1068C11.2594 12.0069 11.3436 11.8884 11.4007 11.7583C11.4578 11.6281 11.4868 11.4887 11.4859 11.3482V3.80819C11.4877 3.52447 11.368 3.25171 11.1533 3.04987C10.9385 2.84803 10.6463 2.73362 10.3407 2.73179H10.3435ZM10.3435 11.3456H4.03607V3.80559H10.3398L10.3435 11.3456Z" fill="#66BC7A"/>
</svg>
