<svg width="14" height="14" viewBox="0 0 14 14" fill="none" xmlns="http://www.w3.org/2000/svg">
<path d="M7 14C10.866 14 14 10.866 14 7C14 3.13401 10.866 0 7 0C3.13401 0 0 3.13401 0 7C0 10.866 3.13401 14 7 14Z" fill="#2A2A2A"/>
<path d="M7 13.5C10.5899 13.5 13.5 10.5899 13.5 7C13.5 3.41015 10.5899 0.5 7 0.5C3.41015 0.5 0.5 3.41015 0.5 7C0.5 10.5899 3.41015 13.5 7 13.5Z" stroke="white"/>
<path d="M6.375 8.90838V8.84091C6.37973 8.40057 6.42353 8.05019 6.50639 7.78977C6.59162 7.52936 6.71236 7.31866 6.86861 7.15767C7.02486 6.99669 7.21307 6.84991 7.43324 6.71733C7.57528 6.62737 7.70313 6.52675 7.81676 6.41548C7.9304 6.30421 8.02036 6.17637 8.08665 6.03196C8.15294 5.88755 8.18608 5.72775 8.18608 5.55256C8.18608 5.34186 8.13636 5.15956 8.03693 5.00568C7.9375 4.8518 7.80492 4.73343 7.6392 4.65057C7.47585 4.56534 7.29356 4.52273 7.09233 4.52273C6.91004 4.52273 6.73603 4.56061 6.57031 4.63636C6.40459 4.71212 6.26728 4.83049 6.15838 4.99148C6.04948 5.15009 5.98674 5.35488 5.97017 5.60582H4.89062C4.9072 5.17969 5.01491 4.81984 5.21378 4.52628C5.41264 4.23035 5.67543 4.00663 6.00213 3.85511C6.3312 3.7036 6.6946 3.62784 7.09233 3.62784C7.52794 3.62784 7.90909 3.70952 8.2358 3.87287C8.5625 4.03385 8.81581 4.25994 8.99574 4.55114C9.17803 4.83996 9.26918 5.17732 9.26918 5.56321C9.26918 5.82836 9.22775 6.06747 9.14489 6.28054C9.06203 6.49124 8.94366 6.67945 8.78977 6.84517C8.63826 7.01089 8.45597 7.15767 8.2429 7.28551C8.04167 7.41098 7.87831 7.54119 7.75284 7.67614C7.62973 7.81108 7.53977 7.97088 7.48295 8.15554C7.42614 8.3402 7.39536 8.56866 7.39062 8.84091V8.90838H6.375ZM6.91122 11.0675C6.71709 11.0675 6.55019 10.9988 6.41051 10.8615C6.27083 10.7218 6.20099 10.5537 6.20099 10.3572C6.20099 10.1631 6.27083 9.9974 6.41051 9.86009C6.55019 9.72041 6.71709 9.65057 6.91122 9.65057C7.10298 9.65057 7.2687 9.72041 7.40838 9.86009C7.55043 9.9974 7.62145 10.1631 7.62145 10.3572C7.62145 10.4875 7.58831 10.607 7.52202 10.7159C7.4581 10.8224 7.37287 10.9077 7.26634 10.9716C7.1598 11.0355 7.04143 11.0675 6.91122 11.0675Z" fill="white"/>
</svg>
