<svg width="729" height="1302" viewBox="0 0 729 1302" fill="none" xmlns="http://www.w3.org/2000/svg">
<g opacity="0.7">
<path opacity="0.08" d="M208.5 834.441L156.5 808.441V756.559L208.5 730.559L260.5 756.559V808.441L208.5 834.441Z" fill="url(#paint0_linear_5152_99356)" stroke="#1F1F1F"/>
<path opacity="0.08" d="M208.5 1301.44L156.5 1275.44V1223.56L208.5 1197.56L260.5 1223.56V1275.44L208.5 1301.44Z" fill="url(#paint1_linear_5152_99356)" stroke="#1F1F1F"/>
<path opacity="0.08" d="M208.5 990.441L156.5 964.441V912.559L208.5 886.559L260.5 912.559V964.441L208.5 990.441Z" fill="url(#paint2_linear_5152_99356)" stroke="#1F1F1F"/>
<path d="M208.5 1145.44L156.5 1119.44V1067.56L208.5 1041.56L260.5 1067.56V1119.44L208.5 1145.44Z" fill="black" stroke="#1F1F1F"/>
<path d="M104.5 990.441L52.5 964.441V912.559L104.5 886.559L156.5 912.559V964.441L104.5 990.441Z" fill="black" stroke="#1F1F1F"/>
<path opacity="0.08" d="M104.5 1145.44L52.5 1119.44V1067.56L104.5 1041.56L156.5 1067.56V1119.44L104.5 1145.44Z" fill="url(#paint3_linear_5152_99356)" stroke="#1F1F1F"/>
<path d="M312.5 834.441L260.5 808.441V756.559L312.5 730.559L364.5 756.559V808.441L312.5 834.441Z" fill="black" stroke="#1F1F1F"/>
<path d="M312.5 1301.44L260.5 1275.44V1223.56L312.5 1197.56L364.5 1223.56V1275.44L312.5 1301.44Z" fill="black" stroke="#1F1F1F"/>
<path d="M312.5 990.441L260.5 964.441V912.559L312.5 886.559L364.5 912.559V964.441L312.5 990.441Z" fill="black" stroke="#1F1F1F"/>
<path opacity="0.08" d="M312.5 1145.44L260.5 1119.44V1067.56L312.5 1041.56L364.5 1067.56V1119.44L312.5 1145.44Z" fill="url(#paint4_linear_5152_99356)" stroke="#1F1F1F"/>
<path d="M416.5 834.441L364.5 808.441V756.559L416.5 730.559L468.5 756.559V808.441L416.5 834.441Z" fill="black" stroke="#1F1F1F"/>
<path opacity="0.08" d="M416.5 1301.44L364.5 1275.44V1223.56L416.5 1197.56L468.5 1223.56V1275.44L416.5 1301.44Z" fill="url(#paint5_linear_5152_99356)" stroke="#1F1F1F"/>
<path d="M416.5 990.441L364.5 964.441V912.559L416.5 886.559L468.5 912.559V964.441L416.5 990.441Z" fill="black" stroke="#1F1F1F"/>
<path d="M416.5 1145.44L364.5 1119.44V1067.56L416.5 1041.56L468.5 1067.56V1119.44L416.5 1145.44Z" fill="black" stroke="#1F1F1F"/>
<path d="M520.5 834.441L468.5 808.441V756.559L520.5 730.559L572.5 756.559V808.441L520.5 834.441Z" fill="black" stroke="#1F1F1F"/>
<path d="M520.5 1301.44L468.5 1275.44V1223.56L520.5 1197.56L572.5 1223.56V1275.44L520.5 1301.44Z" fill="black" stroke="#1F1F1F"/>
<path d="M520.5 990.441L468.5 964.441V912.559L520.5 886.559L572.5 912.559V964.441L520.5 990.441Z" fill="black" stroke="#1F1F1F"/>
<path d="M520.5 1145.44L468.5 1119.44V1067.56L520.5 1041.56L572.5 1067.56V1119.44L520.5 1145.44Z" fill="black" stroke="#1F1F1F"/>
<path d="M624.5 990.441L572.5 964.441V912.559L624.5 886.559L676.5 912.559V964.441L624.5 990.441Z" fill="black" stroke="#1F1F1F"/>
<path d="M624.5 1145.44L572.5 1119.44V1067.56L624.5 1041.56L676.5 1067.56V1119.44L624.5 1145.44Z" fill="black" stroke="#1F1F1F"/>
<path opacity="0.08" d="M676.5 1068.44L624.5 1042.44V990.559L676.5 964.559L728.5 990.559V1042.44L676.5 1068.44Z" fill="url(#paint6_linear_5152_99356)" stroke="#1F1F1F"/>
<path d="M468.5 912.441L416.5 886.441V834.559L468.5 808.559L520.5 834.559V886.441L468.5 912.441Z" fill="black" stroke="#1F1F1F"/>
<path opacity="0.08" d="M468.5 1068.44L416.5 1042.44V990.559L468.5 964.559L520.5 990.559V1042.44L468.5 1068.44Z" fill="url(#paint7_linear_5152_99356)" stroke="#1F1F1F"/>
<path d="M468.5 1223.44L416.5 1197.44V1145.56L468.5 1119.56L520.5 1145.56V1197.44L468.5 1223.44Z" fill="black" stroke="#1F1F1F"/>
<path opacity="0.08" d="M572.5 912.441L520.5 886.441V834.559L572.5 808.559L624.5 834.559V886.441L572.5 912.441Z" fill="url(#paint8_linear_5152_99356)" stroke="#1F1F1F"/>
<path d="M573.5 1068.44L521.5 1042.44V990.559L573.5 964.559L625.5 990.559V1042.44L573.5 1068.44Z" fill="black" stroke="#1F1F1F"/>
<path opacity="0.08" d="M572.5 1223.44L520.5 1197.44V1145.56L572.5 1119.56L624.5 1145.56V1197.44L572.5 1223.44Z" fill="url(#paint9_linear_5152_99356)" stroke="#1F1F1F"/>
<path opacity="0.08" d="M364.5 912.441L312.5 886.441V834.559L364.5 808.559L416.5 834.559V886.441L364.5 912.441Z" fill="url(#paint10_linear_5152_99356)" stroke="#1F1F1F"/>
<path d="M364.5 1068.44L312.5 1042.44V990.559L364.5 964.559L416.5 990.559V1042.44L364.5 1068.44Z" fill="black" stroke="#1F1F1F"/>
<path d="M364.5 1223.44L312.5 1197.44V1145.56L364.5 1119.56L416.5 1145.56V1197.44L364.5 1223.44Z" fill="black" stroke="#1F1F1F"/>
<path d="M260.5 912.441L208.5 886.441V834.559L260.5 808.559L312.5 834.559V886.441L260.5 912.441Z" fill="black" stroke="#1F1F1F"/>
<path d="M260.5 1068.44L208.5 1042.44V990.559L260.5 964.559L312.5 990.559V1042.44L260.5 1068.44Z" fill="black" stroke="#1F1F1F"/>
<path d="M260.5 1223.44L208.5 1197.44V1145.56L260.5 1119.56L312.5 1145.56V1197.44L260.5 1223.44Z" fill="black" stroke="#1F1F1F"/>
<path d="M156.5 912.441L104.5 886.441V834.559L156.5 808.559L208.5 834.559V886.441L156.5 912.441Z" fill="black" stroke="#1F1F1F"/>
<path d="M156.5 1068.44L104.5 1042.44V990.559L156.5 964.559L208.5 990.559V1042.44L156.5 1068.44Z" fill="black" stroke="#1F1F1F"/>
<path d="M52.5 1068.44L0.5 1042.44V990.559L52.5 964.559L104.5 990.559V1042.44L52.5 1068.44Z" fill="black" stroke="#1F1F1F"/>
<path d="M156.5 1223.44L104.5 1197.44V1145.56L156.5 1119.56L208.5 1145.56V1197.44L156.5 1223.44Z" fill="black" stroke="#1F1F1F"/>
</g>
<g opacity="0.7">
<path opacity="0.08" d="M208.5 104.441L156.5 78.441V26.559L208.5 0.559017L260.5 26.559V78.441L208.5 104.441Z" fill="url(#paint11_linear_5152_99356)" stroke="#1F1F1F"/>
<path opacity="0.08" d="M208.5 571.441L156.5 545.441V493.559L208.5 467.559L260.5 493.559V545.441L208.5 571.441Z" fill="url(#paint12_linear_5152_99356)" stroke="#1F1F1F"/>
<path opacity="0.08" d="M208.5 260.441L156.5 234.441V182.559L208.5 156.559L260.5 182.559V234.441L208.5 260.441Z" fill="url(#paint13_linear_5152_99356)" stroke="#1F1F1F"/>
<path d="M208.5 415.441L156.5 389.441V337.559L208.5 311.559L260.5 337.559V389.441L208.5 415.441Z" fill="black" stroke="#1F1F1F"/>
<path d="M104.5 260.441L52.5 234.441V182.559L104.5 156.559L156.5 182.559V234.441L104.5 260.441Z" fill="black" stroke="#1F1F1F"/>
<path opacity="0.08" d="M104.5 415.441L52.5 389.441V337.559L104.5 311.559L156.5 337.559V389.441L104.5 415.441Z" fill="url(#paint14_linear_5152_99356)" stroke="#1F1F1F"/>
<path d="M312.5 104.441L260.5 78.441V26.559L312.5 0.559017L364.5 26.559V78.441L312.5 104.441Z" fill="black" stroke="#1F1F1F"/>
<path d="M312.5 571.441L260.5 545.441V493.559L312.5 467.559L364.5 493.559V545.441L312.5 571.441Z" fill="black" stroke="#1F1F1F"/>
<path d="M312.5 260.441L260.5 234.441V182.559L312.5 156.559L364.5 182.559V234.441L312.5 260.441Z" fill="black" stroke="#1F1F1F"/>
<path opacity="0.08" d="M312.5 415.441L260.5 389.441V337.559L312.5 311.559L364.5 337.559V389.441L312.5 415.441Z" fill="url(#paint15_linear_5152_99356)" stroke="#1F1F1F"/>
<path d="M416.5 104.441L364.5 78.441V26.559L416.5 0.559017L468.5 26.559V78.441L416.5 104.441Z" fill="black" stroke="#1F1F1F"/>
<path opacity="0.08" d="M416.5 571.441L364.5 545.441V493.559L416.5 467.559L468.5 493.559V545.441L416.5 571.441Z" fill="url(#paint16_linear_5152_99356)" stroke="#1F1F1F"/>
<path d="M416.5 260.441L364.5 234.441V182.559L416.5 156.559L468.5 182.559V234.441L416.5 260.441Z" fill="black" stroke="#1F1F1F"/>
<path d="M416.5 415.441L364.5 389.441V337.559L416.5 311.559L468.5 337.559V389.441L416.5 415.441Z" fill="black" stroke="#1F1F1F"/>
<path d="M520.5 104.441L468.5 78.441V26.559L520.5 0.559017L572.5 26.559V78.441L520.5 104.441Z" fill="black" stroke="#1F1F1F"/>
<path d="M520.5 571.441L468.5 545.441V493.559L520.5 467.559L572.5 493.559V545.441L520.5 571.441Z" fill="black" stroke="#1F1F1F"/>
<path d="M520.5 260.441L468.5 234.441V182.559L520.5 156.559L572.5 182.559V234.441L520.5 260.441Z" fill="black" stroke="#1F1F1F"/>
<path d="M520.5 415.441L468.5 389.441V337.559L520.5 311.559L572.5 337.559V389.441L520.5 415.441Z" fill="black" stroke="#1F1F1F"/>
<path d="M624.5 260.441L572.5 234.441V182.559L624.5 156.559L676.5 182.559V234.441L624.5 260.441Z" fill="black" stroke="#1F1F1F"/>
<path d="M624.5 415.441L572.5 389.441V337.559L624.5 311.559L676.5 337.559V389.441L624.5 415.441Z" fill="black" stroke="#1F1F1F"/>
<path opacity="0.08" d="M676.5 338.441L624.5 312.441V260.559L676.5 234.559L728.5 260.559V312.441L676.5 338.441Z" fill="url(#paint17_linear_5152_99356)" stroke="#1F1F1F"/>
<path d="M468.5 182.441L416.5 156.441V104.559L468.5 78.559L520.5 104.559V156.441L468.5 182.441Z" fill="black" stroke="#1F1F1F"/>
<path opacity="0.08" d="M468.5 338.441L416.5 312.441V260.559L468.5 234.559L520.5 260.559V312.441L468.5 338.441Z" fill="url(#paint18_linear_5152_99356)" stroke="#1F1F1F"/>
<path d="M468.5 493.441L416.5 467.441V415.559L468.5 389.559L520.5 415.559V467.441L468.5 493.441Z" fill="black" stroke="#1F1F1F"/>
<path opacity="0.08" d="M572.5 182.441L520.5 156.441V104.559L572.5 78.559L624.5 104.559V156.441L572.5 182.441Z" fill="url(#paint19_linear_5152_99356)" stroke="#1F1F1F"/>
<path d="M573.5 338.441L521.5 312.441V260.559L573.5 234.559L625.5 260.559V312.441L573.5 338.441Z" fill="black" stroke="#1F1F1F"/>
<path opacity="0.08" d="M572.5 493.441L520.5 467.441V415.559L572.5 389.559L624.5 415.559V467.441L572.5 493.441Z" fill="url(#paint20_linear_5152_99356)" stroke="#1F1F1F"/>
<path opacity="0.08" d="M364.5 182.441L312.5 156.441V104.559L364.5 78.559L416.5 104.559V156.441L364.5 182.441Z" fill="url(#paint21_linear_5152_99356)" stroke="#1F1F1F"/>
<path d="M364.5 338.441L312.5 312.441V260.559L364.5 234.559L416.5 260.559V312.441L364.5 338.441Z" fill="black" stroke="#1F1F1F"/>
<path d="M364.5 493.441L312.5 467.441V415.559L364.5 389.559L416.5 415.559V467.441L364.5 493.441Z" fill="black" stroke="#1F1F1F"/>
<path d="M260.5 182.441L208.5 156.441V104.559L260.5 78.559L312.5 104.559V156.441L260.5 182.441Z" fill="black" stroke="#1F1F1F"/>
<path d="M260.5 338.441L208.5 312.441V260.559L260.5 234.559L312.5 260.559V312.441L260.5 338.441Z" fill="black" stroke="#1F1F1F"/>
<path d="M260.5 493.441L208.5 467.441V415.559L260.5 389.559L312.5 415.559V467.441L260.5 493.441Z" fill="black" stroke="#1F1F1F"/>
<path d="M156.5 182.441L104.5 156.441V104.559L156.5 78.559L208.5 104.559V156.441L156.5 182.441Z" fill="black" stroke="#1F1F1F"/>
<path d="M156.5 338.441L104.5 312.441V260.559L156.5 234.559L208.5 260.559V312.441L156.5 338.441Z" fill="black" stroke="#1F1F1F"/>
<path d="M52.5 338.441L0.5 312.441V260.559L52.5 234.559L104.5 260.559V312.441L52.5 338.441Z" fill="black" stroke="#1F1F1F"/>
<path d="M156.5 493.441L104.5 467.441V415.559L156.5 389.559L208.5 415.559V467.441L156.5 493.441Z" fill="black" stroke="#1F1F1F"/>
</g>
<defs>
<linearGradient id="paint0_linear_5152_99356" x1="208.5" y1="730" x2="208.5" y2="835" gradientUnits="userSpaceOnUse">
<stop stop-color="#F1F1F1"/>
<stop offset="1" stop-color="#808080"/>
</linearGradient>
<linearGradient id="paint1_linear_5152_99356" x1="208.5" y1="1197" x2="208.5" y2="1302" gradientUnits="userSpaceOnUse">
<stop stop-color="#F1F1F1"/>
<stop offset="1" stop-color="#808080"/>
</linearGradient>
<linearGradient id="paint2_linear_5152_99356" x1="208.5" y1="886" x2="208.5" y2="991" gradientUnits="userSpaceOnUse">
<stop stop-color="#F1F1F1"/>
<stop offset="1" stop-color="#808080"/>
</linearGradient>
<linearGradient id="paint3_linear_5152_99356" x1="104.5" y1="1041" x2="104.5" y2="1146" gradientUnits="userSpaceOnUse">
<stop stop-color="#F1F1F1"/>
<stop offset="1" stop-color="#808080"/>
</linearGradient>
<linearGradient id="paint4_linear_5152_99356" x1="312.5" y1="1041" x2="312.5" y2="1146" gradientUnits="userSpaceOnUse">
<stop stop-color="#F1F1F1"/>
<stop offset="1" stop-color="#808080"/>
</linearGradient>
<linearGradient id="paint5_linear_5152_99356" x1="416.5" y1="1197" x2="416.5" y2="1302" gradientUnits="userSpaceOnUse">
<stop stop-color="#F1F1F1"/>
<stop offset="1" stop-color="#808080"/>
</linearGradient>
<linearGradient id="paint6_linear_5152_99356" x1="676.5" y1="964" x2="676.5" y2="1069" gradientUnits="userSpaceOnUse">
<stop stop-color="#F1F1F1"/>
<stop offset="1" stop-color="#808080"/>
</linearGradient>
<linearGradient id="paint7_linear_5152_99356" x1="468.5" y1="964" x2="468.5" y2="1069" gradientUnits="userSpaceOnUse">
<stop stop-color="#F1F1F1"/>
<stop offset="1" stop-color="#808080"/>
</linearGradient>
<linearGradient id="paint8_linear_5152_99356" x1="572.5" y1="808" x2="572.5" y2="913" gradientUnits="userSpaceOnUse">
<stop stop-color="#F1F1F1"/>
<stop offset="1" stop-color="#808080"/>
</linearGradient>
<linearGradient id="paint9_linear_5152_99356" x1="572.5" y1="1119" x2="572.5" y2="1224" gradientUnits="userSpaceOnUse">
<stop stop-color="#F1F1F1"/>
<stop offset="1" stop-color="#808080"/>
</linearGradient>
<linearGradient id="paint10_linear_5152_99356" x1="364.5" y1="808" x2="364.5" y2="913" gradientUnits="userSpaceOnUse">
<stop stop-color="#F1F1F1"/>
<stop offset="1" stop-color="#808080"/>
</linearGradient>
<linearGradient id="paint11_linear_5152_99356" x1="208.5" y1="0" x2="208.5" y2="105" gradientUnits="userSpaceOnUse">
<stop stop-color="#F1F1F1"/>
<stop offset="1" stop-color="#808080"/>
</linearGradient>
<linearGradient id="paint12_linear_5152_99356" x1="208.5" y1="467" x2="208.5" y2="572" gradientUnits="userSpaceOnUse">
<stop stop-color="#F1F1F1"/>
<stop offset="1" stop-color="#808080"/>
</linearGradient>
<linearGradient id="paint13_linear_5152_99356" x1="208.5" y1="156" x2="208.5" y2="261" gradientUnits="userSpaceOnUse">
<stop stop-color="#F1F1F1"/>
<stop offset="1" stop-color="#808080"/>
</linearGradient>
<linearGradient id="paint14_linear_5152_99356" x1="104.5" y1="311" x2="104.5" y2="416" gradientUnits="userSpaceOnUse">
<stop stop-color="#F1F1F1"/>
<stop offset="1" stop-color="#808080"/>
</linearGradient>
<linearGradient id="paint15_linear_5152_99356" x1="312.5" y1="311" x2="312.5" y2="416" gradientUnits="userSpaceOnUse">
<stop stop-color="#F1F1F1"/>
<stop offset="1" stop-color="#808080"/>
</linearGradient>
<linearGradient id="paint16_linear_5152_99356" x1="416.5" y1="467" x2="416.5" y2="572" gradientUnits="userSpaceOnUse">
<stop stop-color="#F1F1F1"/>
<stop offset="1" stop-color="#808080"/>
</linearGradient>
<linearGradient id="paint17_linear_5152_99356" x1="676.5" y1="234" x2="676.5" y2="339" gradientUnits="userSpaceOnUse">
<stop stop-color="#F1F1F1"/>
<stop offset="1" stop-color="#808080"/>
</linearGradient>
<linearGradient id="paint18_linear_5152_99356" x1="468.5" y1="234" x2="468.5" y2="339" gradientUnits="userSpaceOnUse">
<stop stop-color="#F1F1F1"/>
<stop offset="1" stop-color="#808080"/>
</linearGradient>
<linearGradient id="paint19_linear_5152_99356" x1="572.5" y1="78" x2="572.5" y2="183" gradientUnits="userSpaceOnUse">
<stop stop-color="#F1F1F1"/>
<stop offset="1" stop-color="#808080"/>
</linearGradient>
<linearGradient id="paint20_linear_5152_99356" x1="572.5" y1="389" x2="572.5" y2="494" gradientUnits="userSpaceOnUse">
<stop stop-color="#F1F1F1"/>
<stop offset="1" stop-color="#808080"/>
</linearGradient>
<linearGradient id="paint21_linear_5152_99356" x1="364.5" y1="78" x2="364.5" y2="183" gradientUnits="userSpaceOnUse">
<stop stop-color="#F1F1F1"/>
<stop offset="1" stop-color="#808080"/>
</linearGradient>
</defs>
</svg>
