<svg xmlns="http://www.w3.org/2000/svg" width="10" height="10" viewBox="0 0 10 10" fill="none">
  <path d="M0.331968 9.68594C0.525998 9.87331 0.787573 9.97714 1.05925 9.97461C1.33093 9.97209 1.5905 9.86343 1.78091 9.67249L4.99938 6.44038L8.21911 9.67249C8.31207 9.77239 8.42447 9.85284 8.54965 9.90904C8.67482 9.96525 8.81021 9.99607 8.94772 9.99965C9.08524 10.0032 9.22207 9.9795 9.35009 9.92989C9.4781 9.88028 9.59468 9.8058 9.69287 9.71087C9.79106 9.61595 9.86884 9.50253 9.9216 9.37736C9.97436 9.2522 10.001 9.11784 9.99997 8.98231C9.99893 8.84679 9.97023 8.71286 9.91555 8.5885C9.86088 8.46413 9.78133 8.35189 9.6817 8.25844L6.43588 5.00061L9.6817 1.74156C9.86136 1.54848 9.95785 1.29419 9.95082 1.03235C9.9438 0.770511 9.8338 0.521603 9.64404 0.338144C9.45429 0.154685 9.1996 0.0510363 8.93375 0.0490544C8.66789 0.0470726 8.41167 0.146906 8.21911 0.327515L4.99938 3.55962L1.78091 0.327515C1.68795 0.22761 1.57553 0.147163 1.45035 0.0909561C1.32518 0.0347495 1.18979 0.00393495 1.05228 0.000352815C0.91476 -0.00322932 0.777929 0.0204968 0.649914 0.070108C0.521898 0.119719 0.405314 0.194199 0.307129 0.289125C0.208943 0.384051 0.131159 0.497474 0.078397 0.622639C0.025635 0.747803 -0.00101148 0.882162 2.93564e-05 1.01769C0.0010702 1.15321 0.0297863 1.28714 0.0844646 1.4115C0.139143 1.53587 0.218665 1.64811 0.318297 1.74156L3.56412 5.00061L0.318297 8.25844C0.128114 8.4496 0.022723 8.70731 0.025286 8.97497C0.027849 9.24263 0.138159 9.49834 0.331968 9.68594Z" fill="white" fill-opacity="0.6"/>
</svg>