<svg width="15" height="15" viewBox="0 0 15 15" fill="none" xmlns="http://www.w3.org/2000/svg">
<path id="image 291 (Traced)" d="M5.68453 5.42522L5.68453 5.4252C5.89922 4.86183 6.34616 4.42124 6.88967 4.24477L6.98387 4.21419L6.98392 4.03221C6.98392 4.03221 6.98392 4.0322 6.98392 4.0322C6.98393 3.879 6.99751 3.75518 7.03806 3.65267C7.08032 3.54584 7.14871 3.46973 7.24279 3.40674C7.3209 3.35445 7.40571 3.32452 7.4943 3.32235C7.58296 3.32017 7.66883 3.34595 7.74865 3.39471L7.74866 3.39472C7.84239 3.45198 7.91307 3.51495 7.95697 3.61764C7.99762 3.71273 8.01125 3.83351 8.01828 3.9946L8.01828 3.99461L8.02795 4.21614L8.15379 4.25812C8.15379 4.25812 8.15379 4.25812 8.1538 4.25812C8.87443 4.49844 9.42352 5.25681 9.42352 6.01333C9.42352 6.10742 9.42251 6.17912 9.40325 6.24016C9.38219 6.30693 9.34216 6.35321 9.29516 6.40462L9.29516 6.40462C9.07954 6.64041 8.68179 6.62608 8.50636 6.3578L8.50635 6.35778C8.48257 6.32139 8.4637 6.26171 8.44975 6.2076C8.43453 6.14856 8.42102 6.07903 8.41266 6.01229C8.37988 5.75057 8.27864 5.54257 8.1316 5.40949L8.13159 5.40948C7.66804 4.98979 6.95357 5.12252 6.68466 5.67125L6.59486 5.62724L6.68466 5.67125C6.64818 5.74569 6.6313 5.789 6.62181 5.83994C6.61178 5.89377 6.60912 5.96061 6.60969 6.08378C6.61025 6.20478 6.61364 6.27199 6.62365 6.32453C6.63302 6.37366 6.64889 6.41352 6.68231 6.478C6.7275 6.5652 6.80731 6.66294 6.90054 6.74758C6.99433 6.83272 7.0931 6.89679 7.1716 6.92435C7.24053 6.94855 7.43979 6.98409 7.61315 6.99988C7.88928 7.02502 8.12081 7.08014 8.33099 7.18063C8.54136 7.28122 8.72511 7.42475 8.90892 7.62L8.90892 7.62001C9.25649 7.98924 9.42386 8.41862 9.42314 8.93533C9.42268 9.27379 9.36603 9.50123 9.20442 9.82113C8.98776 10.25 8.54252 10.6249 8.07453 10.7747L8.04405 10.6795L8.07452 10.7747L8.02791 10.7896L8.0181 11.0145C8.0108 11.1817 7.9961 11.3077 7.9487 11.4054C7.89743 11.5111 7.81477 11.5712 7.70832 11.6242M5.68453 5.42522L7.66374 11.5347M5.68453 5.42522C5.63039 5.56733 5.59907 5.76925 5.58947 5.96763C5.57985 6.16648 5.59145 6.3744 5.63044 6.52977L5.63044 6.52978M5.68453 5.42522L5.63044 6.52978M7.70832 11.6242L7.66374 11.5347M7.70832 11.6242C7.70832 11.6242 7.70832 11.6242 7.70833 11.6242L7.66374 11.5347M7.70832 11.6242C7.53397 11.711 7.34741 11.6871 7.19242 11.565L7.25432 11.4865C7.38077 11.5861 7.52606 11.6033 7.66374 11.5347M5.63044 6.52978C5.71977 6.8856 5.87052 7.14704 6.14106 7.41864L6.21191 7.34806M5.63044 6.52978L6.21191 7.34806M6.21191 7.34806L6.14107 7.41864C6.33227 7.61058 6.51095 7.74598 6.72175 7.8392C6.93175 7.93207 7.16718 7.98021 7.46757 8.00689C7.63707 8.02194 7.79322 8.05642 7.87148 8.09101L7.87149 8.09101M6.21191 7.34806L7.87149 8.09101M7.87149 8.09101C8.04023 8.16558 8.23027 8.34734 8.32637 8.53085C8.35922 8.59355 8.3748 8.63256 8.38404 8.68118C8.39395 8.73333 8.39733 8.80049 8.39789 8.92132C8.39844 9.03944 8.39557 9.10783 8.38637 9.16135C8.37773 9.21166 8.36294 9.25199 8.33329 9.31236L8.42305 9.35644L7.87149 8.09101ZM6.71959 0.919404L6.71957 0.919406L4.21215 1.87198L4.16135 1.78584C4.16135 1.78584 4.16134 1.78584 4.16134 1.78584C2.65127 2.67642 1.54481 4.14457 1.1066 5.8393C0.83552 6.88756 0.831043 8.06999 1.09412 9.12103C1.68944 11.4995 3.59966 13.3817 5.98781 13.943C6.55507 14.0763 6.78697 14.1 7.50379 14.1C8.36966 14.1 8.86677 14.0233 9.63478 13.7701C10.0244 13.6417 10.7406 13.2904 11.1051 13.0494C12.2653 12.2822 13.1325 11.2238 13.6444 9.94913C13.9526 9.18182 14.0987 8.40028 14.1 7.51828C14.1009 6.85683 14.0512 6.43736 13.9007 5.84154C13.3586 3.69655 11.7009 1.9148 9.60367 1.22346C8.879 0.984579 8.43975 0.913159 7.62963 0.901709C7.25476 0.8964 6.84425 0.90376 6.71959 0.919404ZM6.98386 10.791L7.05334 10.8133L7.08386 10.718H6.98386V10.791ZM8.10471 1.93047C10.7737 2.20244 12.8998 4.42251 13.0785 7.12729C13.2692 10.0119 11.2619 12.5421 8.38896 13.0352C8.20526 13.0667 7.8756 13.0854 7.54245 13.0885C7.209 13.0916 6.88461 13.0788 6.71098 13.0508C4.79004 12.7403 3.25063 11.5877 2.42622 9.84365C2.04389 9.03483 1.85823 8.02 1.92706 7.11268C2.07677 5.13907 3.18713 3.44377 4.92936 2.52781C5.88356 2.02614 6.99239 1.81712 8.10471 1.93047Z" fill="#FF6533" stroke="#FF6533" stroke-width="0.2"/>
</svg>
