<svg width="20" height="20" viewBox="0 0 20 20" fill="none" xmlns="http://www.w3.org/2000/svg">
<path d="M10 19C5.037 19 1 14.9626 1 10C1 5.03744 5.037 1 10 1C14.963 1 19 5.03744 19 10C19 14.9626 14.963 19 10 19ZM10 2.30605C5.75751 2.30605 2.30605 5.75751 2.30605 10C2.30605 14.2425 5.75751 17.6939 10 17.6939C14.2425 17.6939 17.6939 14.2425 17.6939 10C17.6939 5.75751 14.2425 2.30605 10 2.30605Z" fill="#FF457D" stroke="#FF457D" stroke-width="0.5"/>
<path d="M13.74 14.4956C13.6542 14.4956 13.5693 14.4787 13.49 14.4459C13.4108 14.4131 13.3387 14.3651 13.2781 14.3044L5.79702 6.82293C5.73465 6.7627 5.6849 6.69064 5.65067 6.61097C5.61645 6.53129 5.59843 6.4456 5.59768 6.3589C5.59693 6.27219 5.61345 6.1862 5.64628 6.10594C5.67912 6.02569 5.72761 5.95278 5.78892 5.89146C5.85024 5.83015 5.92315 5.78166 6.0034 5.74882C6.08366 5.71599 6.16965 5.69947 6.25636 5.70022C6.34306 5.70097 6.42875 5.71899 6.50843 5.75321C6.5881 5.78744 6.66016 5.83719 6.72039 5.89956L14.2019 13.3811C14.2931 13.4724 14.3552 13.5888 14.3804 13.7154C14.4055 13.842 14.3925 13.9733 14.3431 14.0926C14.2937 14.2118 14.21 14.3138 14.1027 14.3855C13.9953 14.4572 13.8691 14.4955 13.74 14.4956Z" fill="#FF457D" stroke="#FF457D" stroke-width="0.5"/>
<path d="M6.25792 14.4964C6.12885 14.4963 6.0027 14.4579 5.89542 14.3861C5.78814 14.3144 5.70452 14.2124 5.65515 14.0932C5.60577 13.9739 5.59284 13.8427 5.61799 13.7161C5.64314 13.5895 5.70524 13.4732 5.79645 13.3819L13.2775 5.90038C13.4 5.77787 13.5661 5.70903 13.7393 5.70898C13.9125 5.70894 14.0786 5.77771 14.2011 5.90016C14.3236 6.02261 14.3925 6.1887 14.3925 6.36191C14.3925 6.53512 14.3238 6.70125 14.2013 6.82375L6.71983 14.3053C6.65916 14.3659 6.58714 14.414 6.50788 14.4468C6.42863 14.4796 6.34369 14.4964 6.25792 14.4964Z" fill="#FF457D" stroke="#FF457D" stroke-width="0.5"/>
</svg>
