<svg width="22" height="19" viewBox="0 0 22 19" fill="none" xmlns="http://www.w3.org/2000/svg">
<path id="Vector" d="M20.625 10.8571H1.375C0.617891 10.8571 0 11.467 0 12.2143V17.6429C0 18.3901 0.617891 19 1.375 19H20.625C21.3821 19 22 18.3901 22 17.6429V12.2143C22 11.4679 21.3813 10.8571 20.625 10.8571ZM15.125 15.9464C14.5557 15.9464 14.0938 15.4905 14.0938 14.9286C14.0938 14.3666 14.5557 13.9107 15.125 13.9107C15.6943 13.9107 16.1562 14.3666 16.1562 14.9286C16.1562 15.4905 15.6965 15.9464 15.125 15.9464ZM17.875 15.9464C17.3057 15.9464 16.8438 15.4905 16.8438 14.9286C16.8438 14.3666 17.3057 13.9107 17.875 13.9107C18.4443 13.9107 18.9062 14.3666 18.9062 14.9286C18.9062 15.4905 18.4465 15.9464 17.875 15.9464ZM20.625 0H1.375C0.617891 0 0 0.609866 0 1.35714V6.78571C0 7.53299 0.617891 8.14286 1.375 8.14286H20.625C21.3821 8.14286 22 7.53299 22 6.78571V1.35714C22 0.609866 21.3813 0 20.625 0ZM15.125 5.08929C14.5557 5.08929 14.0938 4.63337 14.0938 4.07143C14.0938 3.50949 14.5578 3.05357 15.125 3.05357C15.6922 3.05357 16.1562 3.51161 16.1562 4.07143C16.1562 4.63125 15.6965 5.08929 15.125 5.08929ZM17.875 5.08929C17.3057 5.08929 16.8438 4.63337 16.8438 4.07143C16.8438 3.50949 17.3078 3.05357 17.875 3.05357C18.4422 3.05357 18.9062 3.51161 18.9062 4.07143C18.9062 4.63125 18.4465 5.08929 17.875 5.08929Z" fill="white" fill-opacity="0.6"/>
</svg>
