<svg width="47" height="20" viewBox="0 0 47 20" fill="none" xmlns="http://www.w3.org/2000/svg">
<path fill-rule="evenodd" clip-rule="evenodd" d="M36.1831 0.543434C32.2013 1.10574 28.9271 4.17045 28.1369 8.07497L28.0315 8.59535L26.748 8.61163L25.4644 8.62798L25.352 8.24431C24.7298 6.12167 22.7272 4.47422 20.455 4.21587C17.7173 3.90457 15.1436 5.54638 14.2615 8.1668L14.1172 8.59535L12.8079 8.6112L11.4986 8.627L11.3807 8.24388C11.1386 7.45713 10.5855 6.54966 9.95026 5.89687C8.55142 4.45935 6.39792 3.85914 4.39322 4.34805C3.66473 4.52571 2.65337 5.04963 2.0597 5.55685C-1.1313 8.28337 -0.517601 13.3471 3.2294 15.2077C4.15623 15.6679 4.76454 15.808 5.83268 15.8074C6.53605 15.8069 6.75075 15.7824 7.26993 15.6428C8.5965 15.286 9.63475 14.592 10.4751 13.5005C10.8179 13.0552 11.2211 12.2817 11.3807 11.763L11.4986 11.3798L12.8079 11.3956L14.1172 11.4115L14.2545 11.8192C15.5578 15.688 20.27 17.0835 23.4456 14.541C24.3464 13.8198 25.0493 12.7954 25.352 11.7625L25.4644 11.3789L26.748 11.3952L28.0315 11.4115L28.1369 11.9319C28.4332 13.396 29.1958 14.9805 30.1356 16.0846C31.5854 17.788 33.3053 18.8268 35.5406 19.3495C36.3333 19.5348 38.4651 19.5531 39.2771 19.3816C43.0957 18.5749 45.973 15.7544 46.8104 11.9969C47.0627 10.8649 47.0632 9.14425 46.8116 8.01522C45.9795 4.28175 43.1395 1.46229 39.3996 0.657059C38.7487 0.516864 36.8469 0.449705 36.1831 0.543434ZM38.4811 3.2986C40.8184 3.63666 42.8902 5.2778 43.7772 7.49405C44.1481 8.42044 44.2032 8.74515 44.2032 10.0034C44.2032 11.2617 44.1481 11.5864 43.7772 12.5128C43.0199 14.4049 41.3473 15.9347 39.4254 16.493C38.0876 16.8816 36.5188 16.8547 35.2956 16.4222C34.2647 16.0577 33.4434 15.5343 32.6617 14.7439C31.7737 13.8458 31.1904 12.8043 30.8682 11.5416C30.6888 10.8384 30.6794 9.24251 30.8505 8.53413C31.5141 5.78667 33.7275 3.70995 36.4288 3.30026C36.8741 3.23273 38.0193 3.23181 38.4811 3.2986ZM38.6865 7.69234C37.6564 8.78837 37.1819 9.29583 36.8175 9.69083C36.6083 9.91765 36.5181 9.9771 36.4459 9.93571C36.3934 9.90559 36.013 9.56973 35.6005 9.18931C35.188 8.80894 34.8184 8.5059 34.7791 8.51588C34.6851 8.53994 32.9724 10.3895 32.9694 10.4703C32.9679 10.5103 33.4532 10.9646 35.8396 13.1565L36.6592 13.9093L36.9124 13.6399C37.0517 13.4918 37.881 12.5992 38.7554 11.6564C39.6299 10.7136 40.5282 9.74935 40.7517 9.51366C40.9753 9.27796 41.2583 8.97198 41.3806 8.83374L41.603 8.58243L41.0163 8.03787C40.6937 7.73838 40.26 7.33598 40.0525 7.14362C39.845 6.95127 39.6438 6.79283 39.6052 6.79161C39.5667 6.79038 39.1533 7.19566 38.6865 7.69234ZM6.30941 6.97514C7.70263 7.20111 8.78302 8.38273 8.87894 9.78541C9.02607 11.9371 6.91411 13.5953 4.88325 12.9225C4.07109 12.6535 3.39969 12.0539 3.01997 11.2584C2.80338 10.8047 2.80081 10.7899 2.80081 10.0034C2.80081 9.21692 2.80338 9.20216 3.01997 8.7484C3.47343 7.7985 4.36608 7.11473 5.34265 6.96921C5.76254 6.90664 5.89209 6.90743 6.30941 6.97514ZM20.2885 6.97576C21.4417 7.15832 22.4377 8.04577 22.7491 9.16813C22.9624 9.93724 22.8454 10.8862 22.4548 11.5542C22.0195 12.2986 21.1156 12.9077 20.2579 13.0343C18.9421 13.2286 17.6072 12.5337 17.0484 11.3636C16.815 10.8748 16.7388 10.54 16.7388 10.0034C16.7388 9.46688 16.815 9.13207 17.0484 8.64322C17.3324 8.04846 17.8176 7.56715 18.4333 7.26931C19.1138 6.94013 19.5888 6.86495 20.2885 6.97576Z" fill="#EE8F2A"/>
</svg>
