<svg width="64" height="64" viewBox="0 0 64 64" fill="none" xmlns="http://www.w3.org/2000/svg">
<rect x="0.5" y="0.5" width="63" height="63" rx="11.5" fill="#1C1C1C" stroke="url(#paint0_linear_4998_95685)"/>
<path fill-rule="evenodd" clip-rule="evenodd" d="M25.5483 27.0892C25.5056 27.1595 24.942 28.4922 23.735 31.3769C23.3424 32.3152 22.8925 33.386 22.7353 33.7564C22.578 34.1268 22.359 34.6521 22.2486 34.9238C22.1381 35.1954 21.9045 35.751 21.7295 36.1584L21.4113 36.8993L22.5402 36.8992L23.6692 36.899L24.0281 35.7543L24.387 34.6095L25.8487 34.5851C26.6527 34.5717 27.6484 34.5919 28.0615 34.63L28.8124 34.6993L29.2539 35.7993L29.6954 36.8993H30.7898C31.3918 36.8993 31.8843 36.8829 31.8843 36.8629C31.8843 36.8429 31.5396 36.0246 31.1184 35.0445C30.6972 34.0644 30.1816 32.8585 29.9727 32.3646C29.7637 31.8707 29.1851 30.5171 28.6868 29.3565C28.1885 28.1959 27.7607 27.1958 27.736 27.1341C27.6861 27.0092 25.6224 26.967 25.5483 27.0892ZM32.8612 31.9497V36.8993L33.5717 36.9161C33.9624 36.9254 34.3921 36.9354 34.5264 36.9386L34.7706 36.9441L34.815 33.1447L34.8594 29.3454L35.5393 31.4835C36.6788 35.0678 37.2748 36.902 37.3113 36.9373C37.3305 36.9558 37.8398 36.9447 38.4433 36.9126L39.5405 36.8544L39.6569 36.4952C39.7209 36.2976 40.1798 34.8429 40.6768 33.2626C41.1738 31.6822 41.6743 30.1063 41.789 29.7606L41.9975 29.132L41.9809 33.0606L41.9643 36.9891H42.8746L43.785 36.989V32.0503V27.1116H42.3196C41.5136 27.1116 40.8542 27.124 40.8542 27.1391C40.8542 27.2391 38.4324 34.4432 38.3811 34.496C38.3457 34.5323 37.7807 32.9256 37.1255 30.9255C36.4703 28.9254 35.9122 27.2536 35.8853 27.2104C35.8584 27.1672 35.1669 27.1022 34.3488 27.0659L32.8612 27V31.9497ZM13.5279 27.3858C12.3951 27.9413 11.9415 28.8068 12.006 30.2898C12.0462 31.2156 12.2377 31.7281 12.7378 32.2486C13.3079 32.8421 13.396 32.8585 16.0271 32.8585C18.5968 32.8585 18.7817 32.8892 18.9893 33.3498C19.1428 33.6903 19.1196 34.3608 18.9439 34.6616C18.6706 35.1292 18.3927 35.1931 16.6316 35.1931C15.7553 35.1931 14.4325 35.2196 13.6921 35.2521L12.3458 35.311V36.15V36.989H15.8448H19.3439L19.8322 36.6523C20.4332 36.2379 20.7145 35.9016 21.0275 35.2235C21.2372 34.7691 21.2696 34.5856 21.2704 33.8462C21.2712 33.098 21.2416 32.9319 21.029 32.4944C20.7456 31.911 20.5416 31.7016 19.9481 31.3847L19.513 31.1524H17.055H14.597L14.3965 30.9366C13.9493 30.4552 13.9892 29.6049 14.4815 29.1277L14.7551 28.8626L17.7689 28.8368L20.7828 28.8109V27.9613V27.1116L17.4302 27.1139L14.0776 27.1162L13.5279 27.3858ZM45.2948 30.6397C45.2948 34.3784 45.3271 34.7365 45.739 35.5527C45.9833 36.0369 46.4854 36.5249 46.9743 36.7535C47.3503 36.9294 47.5583 36.9463 49.6622 36.9721L51.9427 37L51.9713 36.1909L52 35.3819L50.135 35.3549C47.9491 35.3232 47.894 35.3031 47.4323 34.3689L47.1598 33.8176V30.4646V27.1116H46.2273H45.2948V30.6397ZM26.8508 29.5136C27.1066 30.1097 28.0654 32.6222 28.0654 32.6967C28.0654 32.7363 27.4059 32.7687 26.6 32.7687C25.794 32.7687 25.1346 32.7544 25.1346 32.7371C25.1346 32.7197 25.4543 31.9484 25.8451 31.0233C26.2359 30.098 26.5556 29.3041 26.5556 29.259C26.5556 29.0638 26.7177 29.2036 26.8508 29.5136Z" fill="#A2FACF"/>
<defs>
<linearGradient id="paint0_linear_4998_95685" x1="32" y1="0" x2="32" y2="64" gradientUnits="userSpaceOnUse">
<stop stop-color="#A2FACF" stop-opacity="0.16"/>
<stop offset="1" stop-color="#A2FACF" stop-opacity="0.07"/>
</linearGradient>
</defs>
</svg>
