<svg width="538" height="697" viewBox="0 0 538 697" fill="none" xmlns="http://www.w3.org/2000/svg">
<g clip-path="url(#clip0_9561_103378)">
<path d="M0 0H518C529.046 0 538 8.9543 538 20V677C538 688.046 529.046 697 518 697H0V0Z" fill="white" fill-opacity="0.02"/>
<path d="M16.2668 563.905C11.7318 566.133 1.23339 570.568 0.496256 570.568C-0.176509 570.568 -0.107986 570.171 0.394511 569.78C0.662371 569.573 1.05066 569.368 1.51579 569.225C4.38126 568.342 13.2144 564.533 17.1015 562.506C28.1959 556.717 39.8696 548.043 48.4536 539.211C56.7905 530.632 62.2536 527.267 68.732 526.719C76.7928 526.038 84.1766 531.507 86.7721 540.082C87.7896 543.441 87.6359 554.324 86.4856 560.333C84.324 571.638 80.4784 581.771 74.7516 591.255C70.5032 598.293 66.9172 602.832 57.1476 613.544C43.5823 628.418 39.2031 634.379 34.9755 643.735C29.7075 655.391 26.5908 670.628 25.754 688.814C25.3927 696.635 24.5061 699.828 24.5081 693.3C24.5081 688.424 25.8807 673.825 26.9147 667.669C28.8707 656.051 32.8741 644.412 37.7558 636.16C41.4269 629.956 44.9797 625.499 55.2664 614.194C68.7113 599.419 73.0448 593.519 78.0718 583.148C84.6188 569.638 88.1862 550.891 85.9997 541.492C84.6105 535.527 80.6279 530.498 75.7068 528.495C72.4364 527.164 66.9961 527.354 63.1983 528.93C59.1368 530.616 55.1729 533.585 50.4885 538.45C39.8426 549.506 28.6755 557.813 16.2668 563.905Z" fill="url(#paint0_linear_9561_103378)"/>
<path d="M14.6721 536.285C11.2896 537.047 2.71596 538.34 1.04859 538.34C0.502484 538.34 0.0539742 538.18 0.0539742 537.984C0.0539742 537.788 2.8011 537.292 6.15869 536.882C16.2896 535.64 24.1904 533.061 31.2794 528.676C33.3371 527.404 38.3372 523.883 42.3883 520.853C52.1787 513.533 55.8312 511.136 63.7943 506.8C82.4178 496.66 89.1621 494.097 96.3362 494.429C101.556 494.671 102.323 495.386 102.57 500.24C102.671 502.268 102.381 506.33 101.924 509.265C101.465 512.202 100.809 516.466 100.466 518.741C99.7581 523.429 99.6335 531.206 99.972 549.445C100.256 564.805 99.4425 570.632 95.3519 582.544C90.844 595.668 84.9781 604.762 69.5688 622.517C66.0784 626.538 61.6992 631.906 59.8366 634.446C48.8315 649.459 43.1192 668.51 43.113 690.226C43.113 693.371 43.0341 695.273 42.8534 696.192C42.7621 696.653 42.6458 696.867 42.5005 696.867C41.6387 696.867 42.2575 679.949 43.3663 673.132C46.7862 652.118 52.9698 639.904 69.9488 620.633C81.9049 607.064 86.5188 600.409 91.3735 589.731C98.1032 574.924 100.009 563.127 99.0189 542.397C98.7137 536.02 98.6368 530.972 98.8133 526.655C98.9836 522.504 99.3864 519.027 100.043 515.693C101.126 510.176 102.032 499.679 101.567 497.991C100.788 495.163 98.1074 494.36 92.2331 495.199C86.878 495.963 83.8277 497.237 69.9551 504.506C60.1917 509.624 52.1102 514.639 45.2372 519.848C30.4031 531.091 25.1124 533.937 14.6721 536.285Z" fill="url(#paint1_linear_9561_103378)"/>
<path d="M33.8251 505.7C22.6477 510.465 9.12592 513.951 1.82102 513.951C0.849248 513.951 0.0539731 513.754 0.0539731 513.515C0.0539731 513.275 1.10465 513.08 2.38789 513.08C8.41162 513.08 19.1613 510.588 28.2353 507.09C40.1665 502.49 58.516 493.1 73.1195 484.121C82.8227 478.155 86.9652 475.331 98.5725 466.767C113.236 455.95 119.517 452.546 125.479 452.193C129.418 451.959 131.837 452.856 133.396 455.128C135.082 457.587 135.867 466.373 135.087 474.024C133.888 485.735 131.231 493.574 124.106 506.414C113.824 524.947 113.722 525.352 110.616 559.244C109.441 572.059 108.016 584.814 107.449 587.589C105.012 599.545 100.504 607.165 86.3194 623.316C73.8442 637.519 69.2865 645.238 65.7773 658.107C63.5638 666.226 62.7042 673.168 62.3948 685.435C62.237 691.723 61.8985 696.867 61.6452 696.867C61.3919 696.867 61.1842 693.466 61.1842 689.309C61.1842 668.56 64.9467 651.893 72.3637 639.771C74.9697 635.512 79.2824 629.943 85.6238 622.647C99.2972 606.916 103.506 600.08 106.023 589.513C107.256 584.328 107.771 580.009 109.549 559.898C112.543 526.005 112.748 525.158 122.161 508.071C130.359 493.189 132.923 485.826 134.109 473.781C134.827 466.479 134.169 457.948 132.705 455.631C130.77 452.562 125.792 452.124 119.765 454.49C114.96 456.376 109.727 459.642 100.52 466.499C78.238 483.096 55.5093 496.456 33.8251 505.7Z" fill="url(#paint2_linear_9561_103378)"/>
<path d="M27.1639 470.237C16.8212 473.048 9.21312 478.879 2.48132 489.152C-0.222193 493.278 -0.870041 492.781 1.72343 488.569C6.73178 480.43 13.6193 474.428 21.5824 471.261C28.4721 468.523 34.7595 467.421 47.6064 466.701C55.7107 466.247 60.2145 465.779 63.9521 465C84.0686 460.812 103.24 446.424 119.335 423.434C121.459 420.401 126.617 412.432 130.797 405.725C146.322 380.812 151.094 374.165 160.656 364.131C172.066 352.162 175.594 347.821 178.532 342.14C182.19 335.068 183.389 326.985 181.599 321.472C179.755 315.797 174.873 310.363 169.815 308.356C168.525 307.846 164.852 307.067 161.652 306.626C154.705 305.669 151.866 304.719 149.58 302.586C143.075 296.514 150.396 289.117 160.247 291.81C161.374 292.119 164.603 293.792 167.423 295.528C178.823 302.551 182.683 302.65 190.077 296.108C193.771 292.839 196.642 288.658 197.097 285.892C197.731 282.017 194.767 277.994 189.745 275.908C186.512 274.565 181.779 274.031 173.079 274.025C165.662 274.02 162.307 273.402 157.707 271.193C154.213 269.516 149.613 265.229 147.585 261.759C143.716 255.146 143.65 249.574 147.331 240.664C148.995 236.636 149.474 235.436 149.611 232.91C149.663 231.929 149.663 230.748 149.661 229.123C149.655 224.361 149.426 222.582 148.457 219.76C146.92 215.284 143.27 209.261 139.75 205.388C132.595 197.513 116.774 186.781 105.57 182.201C95.0737 177.91 87.4449 177.351 68.3603 179.475C65.7876 179.761 62.5006 180.018 59.5147 180.183C57.4113 180.299 55.4574 180.368 54.008 180.37C42.9863 180.383 37.409 178.656 22.7868 170.701C13.5362 165.668 7.58103 163.153 3.13539 162.401C1.44102 162.114 0.0539577 161.723 0.0539577 161.531C0.0539577 161.066 1.36834 161.116 3.32019 161.526C5.5482 161.995 8.60471 162.932 11.4827 164.112C13.53 164.952 19.1779 167.769 24.0368 170.372C38.5386 178.146 43.3518 179.629 54.008 179.611C57.7332 179.604 64.0372 179.18 69.1577 178.59C80.4099 177.293 90.192 177.196 95.7361 178.327C103.801 179.97 113.407 184.364 123.643 191.091C134.391 198.153 141.702 205.098 145.988 212.318C149.611 218.42 150.645 222.13 150.674 229.123C150.699 234.951 150.681 235.05 148.399 240.447C145.795 246.608 145.08 251.784 146.216 256.265C147.643 261.893 152.917 267.986 158.627 270.601C163.44 272.805 166.03 273.225 176.786 273.544C187.971 273.877 189.902 274.276 193.765 277.055C196.672 279.146 198.011 281.533 198.04 284.674C198.071 288.192 195.372 292.731 190.837 296.786C186.784 300.41 184.198 301.583 180.218 301.605C176.632 301.626 173.658 300.47 167.639 296.716C160.035 291.974 156.26 291.02 152.113 292.789C147.319 294.836 146.702 298.656 150.606 302.127C153.006 304.259 155.203 304.959 162.714 305.98C169.032 306.84 172.454 308.184 175.878 311.15C181.347 315.887 183.742 321.761 183.274 329.292C182.633 339.597 178.335 346.846 163.706 362.285C152.45 374.163 146.744 381.778 136.042 399.192C118.006 428.544 110.286 438.472 97.0858 449.295C90.0321 455.078 83.5806 458.969 75.8023 462.128C67.0522 465.682 61.4811 466.797 49.5479 467.379C43.7401 467.664 39.309 468.022 35.5382 468.547C32.4339 468.98 29.7761 469.526 27.1639 470.237Z" fill="url(#paint3_linear_9561_103378)"/>
<path d="M26.2959 428.666C16.5076 438.882 10.7704 440.989 2.84262 437.28C1.31021 436.562 0.0539697 435.783 0.0539697 435.548C0.0539697 434.928 0.247078 434.984 3.206 436.492C10.5171 440.216 15.8349 438.099 26.3603 427.277C32.5543 420.907 35.2184 419.082 47.1517 413.039C58.4661 407.307 68.4787 398.952 81.7471 384.167C96.141 368.13 107.919 350.146 115.072 333.28C120.508 320.468 121.872 312.849 119.679 307.552C117.017 301.12 112.007 297.428 98.3046 291.8C89.9843 288.383 81.2529 285.54 66.7656 281.529C52.4237 277.558 47.7206 276.6 42.5793 276.602C35.6171 276.605 32.7225 277.688 21.95 284.326C12.9362 289.879 7.82813 291.837 2.3505 291.837C-1.14414 291.837 -0.386241 291.115 3.37626 290.859C8.6068 290.502 12.8303 288.812 21.0509 283.781C32.2117 276.953 35.5029 275.739 42.8783 275.729C47.5919 275.722 52.0811 276.652 66.7656 280.682C85.3373 285.778 94.7477 288.989 104.991 293.728C117.551 299.538 122.37 305.754 121.596 315.138C120.963 322.81 115.537 336.469 107.646 350.252C93.1364 375.599 68.0323 402.926 50.8186 412.11C49.6496 412.734 45.8767 414.734 42.434 416.555C34.8114 420.586 32.0581 422.652 26.2959 428.666Z" fill="url(#paint4_linear_9561_103378)"/>
<path d="M46.4 381.574C32.7557 383.766 15.4694 376.51 2.25914 363.044C1.08388 361.847 0.107954 360.494 0.0892658 360.039C0.0685014 359.524 1.06311 360.303 2.73257 362.11C8.45937 368.309 18.391 375.159 25.9201 378.102C34.9734 381.642 42.9386 381.96 52.947 379.181C64.6996 375.917 72.5008 372.312 78.2753 367.476C82.3534 364.061 94.185 349.567 97.7481 343.624C104.291 332.709 105.759 323.089 102.163 314.702C98.8341 306.938 89.893 301.388 75.7961 298.334C70.2125 297.124 68.5701 296.953 62.5131 296.95C54.4212 296.944 47.8826 297.914 38.1898 300.558C25.0169 304.15 13.2829 309.649 4.62835 316.283C2.0598 318.253 0.0539646 319.499 0.0539646 319.127C0.0539646 318.349 6.50129 313.51 11.5761 310.477C20.5401 305.124 33.5946 300.305 46.0345 297.759C65.9974 293.672 87.2538 297.633 98.2548 307.489C106.201 314.606 107.142 328.112 100.564 340.632C97.8831 345.739 95.5513 349.059 88.7156 357.5C80.2708 367.929 75.3289 371.898 66.1178 375.645C63.4143 376.744 59.9321 377.945 56.533 378.989C52.594 380.198 48.7692 381.194 46.4 381.574Z" fill="url(#paint5_linear_9561_103378)"/>
<path d="M18.69 230.366C14.2464 233.93 1.98505 241.318 0.512853 241.318C-0.739237 241.318 0.367503 240.387 3.11047 239.133C9.67823 236.132 19.6493 229.194 23.4429 224.987C28.117 219.801 29.5497 215.88 29.1801 209.269C28.7586 201.696 25.1144 195.138 17.6829 188.578C14.126 185.437 5.87628 179.926 1.72964 177.919C0.807704 177.474 0.0539584 176.846 0.0539584 176.525C0.0539584 176.193 2.05979 177.073 4.70517 178.567C22.7141 188.726 30.8973 199.403 30.2349 211.874C29.8342 219.444 27.3528 223.42 18.69 230.366Z" fill="url(#paint6_linear_9561_103378)"/>
<path d="M35.3077 159.465C21.325 157.388 8.49882 150.061 1.72341 140.278C0.811855 138.96 0.0643388 137.393 0.0643388 136.794C0.0643388 136.014 0.608365 136.599 1.98712 138.861C5.95934 145.382 13.748 151.503 22.5812 155.047C35.2724 160.139 45.6462 160.508 72.8039 156.832C89.8909 154.519 96.0475 154.046 105.269 154.341C117.836 154.743 126.97 157.273 135.869 162.817C141.193 166.134 144.09 168.583 148.791 173.74C157.865 183.694 163.056 193.767 171.958 218.685C176.368 231.038 177.344 233.284 180.087 237.398C186.941 247.675 196.929 249.858 207.27 243.338C209.13 242.165 210.868 240.73 212.666 238.831C214.795 236.583 217.008 233.684 219.614 229.8C225.069 221.664 227.783 218.457 232.347 214.751C238.071 210.104 243.69 207.198 259.814 200.548C276.863 193.515 281.548 191.045 288.163 185.595C298.12 177.392 300.236 172.357 301.44 153.992C302.422 139.017 304.144 135.043 313.699 125.69C322.371 117.203 324.785 113.508 325.222 108.062C325.66 102.608 324.725 101.166 314.661 91.7306C310.398 87.7361 309.301 85.9812 308.996 82.6655C308.915 81.7834 308.82 81.0825 308.882 80.391C309.183 77.0897 313.087 74.0088 339.385 52.4924C355.83 39.0382 369.674 28.0729 371.686 26.9076C377.402 23.5961 380.783 22.5099 385.44 22.4886C388.083 22.4767 389.242 22.5754 390.745 23.1232C391.206 23.2908 391.699 23.5008 392.276 23.7619C399.039 26.8318 402.909 34.006 402.268 42.2867C401.778 48.6332 401.491 49.3817 381.981 95.4197C378.274 104.162 375.054 111.806 374.823 112.405C373.139 116.774 363.617 138.839 361.669 142.891C357.045 152.504 353.044 158.578 347.522 164.372C343.708 168.374 340.087 171.114 330.157 177.509C317.676 185.55 311.966 191.112 308.34 198.765C307.503 200.529 305.396 206.464 303.658 211.954C301.918 217.444 299.737 223.495 298.811 225.399C295.564 232.078 290.553 238.032 283.024 244.16C277.229 248.875 274.064 250.99 258.13 260.79C251.114 265.106 243.101 270.302 240.322 272.339C226.41 282.541 213.42 297.178 202.675 314.762C198.59 321.447 197.591 323.898 195.343 332.776C192.911 342.379 191.383 346.176 187.12 353.206C182.963 360.061 178.027 366.354 167.959 377.634C154.86 392.311 149.306 399.657 145.193 407.747C136.673 424.501 138.957 436.246 150.706 436.119C155.533 436.067 158.561 434.921 174.267 427.195C182.093 423.345 190.05 419.603 191.95 418.877C198.868 416.238 205.118 417.354 209.195 421.955C213.576 426.902 214.08 433.955 210.932 446.228C203.763 474.166 199.73 485.58 191.161 502.192C184.705 514.702 183.827 517.265 183.762 523.75C183.721 528.021 183.926 529.533 184.89 532.025C187.176 537.934 192.957 544.256 199.591 548.097C201.381 549.135 206.196 551.408 210.289 553.151C220.038 557.301 224.049 559.464 227.374 562.367C232.33 566.693 234.135 570.908 234.153 578.189C234.166 583.659 233.684 586.214 230.449 597.899C222.725 625.796 217.812 633.16 191.213 656.733C181.038 665.749 174.425 670.664 162.977 677.718C152.786 683.998 146.827 688.591 143.631 692.629C140.514 696.567 139.999 697.112 139.657 696.84C139.489 696.707 140.24 695.349 141.33 693.824C144.547 689.324 151.326 683.892 161.879 677.362C174.028 669.843 179.767 665.567 190.947 655.709C211.223 637.828 217.581 630.138 223.25 616.627C227.357 606.839 232.658 587.652 233.231 580.494C233.595 575.971 232.525 570.361 230.76 567.526C227.812 562.793 222.037 558.913 211.618 554.666C210.339 554.144 208.823 553.503 207.369 552.871C205.669 552.132 204.051 551.408 202.99 550.902C188.158 543.837 180.297 531.466 182.948 519.366C183.478 516.943 184.184 514.721 185.446 511.782C186.532 509.257 188.029 506.203 190.181 502.038C198.081 486.735 202.874 473.392 209.286 448.841C211.472 440.469 211.794 438.572 211.834 433.816C211.873 429.052 211.722 428.051 210.621 425.812C208.36 421.204 203.646 418.148 198.79 418.14C195.64 418.134 191.005 419.978 177.597 426.569C159.267 435.582 156.864 436.522 151.509 436.776C147.738 436.955 147.132 436.867 144.95 435.818C139.954 433.419 138.002 427.912 139.528 420.511C141.991 408.57 150.257 395.584 167.242 376.981C179.3 363.773 187.876 351.746 191.152 343.446C191.908 341.53 193.121 337.512 193.848 334.518C196.049 325.431 197.672 321.113 200.966 315.605C209.612 301.136 221.14 287.16 232.158 277.787C239.191 271.804 243.871 268.482 253.877 262.368C271.488 251.609 276.137 248.533 282.057 243.713C293.984 234.004 297.829 227.887 303.326 209.875C308.595 192.607 312.281 188.077 330.977 175.901C344.302 167.222 349.373 162.341 355.535 152.255C359.46 145.834 361.949 140.41 373.22 113.711L387.936 78.8701C400.202 49.8683 400.75 48.3576 401.211 42.2867C401.665 36.3213 399.747 30.9599 395.781 27.0973C392.087 23.5017 385.683 22.2223 380.071 23.9593C373.393 26.0255 371.9 27.1168 339.314 53.7513C320.257 69.327 311.723 76.5947 310.946 77.9089C308.348 82.3057 309.978 86.313 316.918 92.5889C326.619 101.363 328.199 105.396 324.939 113.065C323.249 117.042 320.822 120.149 315.209 125.52C305.238 135.058 303.483 138.902 302.505 153.343C301.558 167.343 300.672 171.333 297.229 177.079C293.641 183.067 287.769 188.14 278.628 193.151C276.16 194.504 267.964 198.142 260.418 201.235C236.105 211.201 230.391 215.264 221.209 229.123C214.286 239.572 210.137 243.629 203.74 246.209C200.646 247.457 199.689 247.633 195.949 247.633C190.774 247.633 187.978 246.661 184.321 243.592C179.173 239.274 176.567 234.599 171.744 221.014C162.757 195.718 158.133 186.267 149.921 176.426C143.396 168.607 134.744 162.217 126.301 158.983C119.358 156.321 114.287 155.445 104.42 155.199C94.729 154.957 89.8141 155.326 73.9418 157.487C67.9492 158.302 61.0471 159.185 58.6053 159.449C52.8058 160.077 39.4813 160.086 35.3077 159.465Z" fill="url(#paint7_linear_9561_103378)"/>
<path d="M6.96433 104.582C3.3098 106.729 0.261599 108.485 0.186847 108.485C0.114172 108.485 0.0539554 108.312 0.0539554 108.1C0.0539554 107.623 4.57228 104.844 9.45605 102.126C13.1936 100.046 17.1472 98.0022 19.4562 97.0521C22.7286 95.7064 47.7704 88.6683 52.6106 87.7352C57.4196 86.8072 63.1464 87.201 66.938 88.7194C71.9775 90.7379 78.0573 96.4991 87.422 108.124C90.9166 112.463 96.2531 117.345 99.8806 119.522C103.089 121.448 109.854 124.257 114.607 125.64C119.048 126.931 125.921 128.379 137.512 130.466C147.917 132.34 154.537 134.097 160.845 136.663C173.395 141.766 181.206 149.018 183.74 157.916C184.782 161.583 184.917 166.822 184.308 180.128C183.918 188.715 183.974 190.564 184.705 193.088C186.811 200.348 192.197 205.297 200.764 207.842C205.266 209.18 213.05 209.194 218.68 207.875C233.642 204.371 251.419 192.264 261.98 178.385C275.692 160.364 280.906 137.077 274.019 124.616C271.434 119.936 268.859 117.755 258.661 111.61C253.163 108.295 250.179 105.601 248.231 102.194C243.445 93.8111 245.823 82.6605 254.388 73.3224C260.235 66.9504 268.585 62.6641 288.961 55.5725C303.556 50.4935 311.822 46.6929 322.449 40.1755C334.304 32.907 346.987 23.204 360.38 11.1541C371.104 1.50725 373.108 -0.191423 373.443 0.0825032C374.257 0.750228 348.291 23.3094 338.291 30.6214C321.164 43.1442 309.044 49.4753 288.429 56.6639C273.178 61.9836 265.671 65.3989 260.011 69.595C249.685 77.2513 244.498 89.5768 247.663 98.931C249.332 103.864 252.422 106.854 261.602 112.423C271.571 118.471 275.31 122.765 277.221 130.351C280.472 143.275 274.282 164.162 262.829 178.917C251.608 193.373 234.047 205.239 218.769 208.692C204.863 211.835 191.576 207.643 185.853 198.309C183.229 194.025 182.745 190.767 183.254 180.781C183.924 167.582 183.762 161.035 182.685 157.729C179.753 148.731 172.022 141.873 159.325 137.004C151.492 134 148.102 133.171 130.819 130.034C105.138 125.372 96.5583 120.863 84.0187 105.437C73.2026 92.1312 68.1029 88.5093 59.6144 88.1069C54.579 87.8679 52.9926 88.1963 35.318 93.1341C19.994 97.4152 17.3423 98.4854 6.96433 104.582Z" fill="url(#paint8_linear_9561_103378)"/>
<path d="M26.0592 62.141C15.567 71.5428 9.91079 75.1205 2.80731 76.8474C1.56767 77.1493 0.732948 77.2803 0.369572 77.2352C0.201381 77.2148 0.132859 77.1561 0.172311 77.0591C0.278209 76.7971 1.6715 76.2493 3.2662 75.8411C4.86298 75.4336 6.9228 74.7761 7.84474 74.3823C11.6238 72.7643 17.9258 68.0775 26.352 60.6176C31.595 55.9749 37.0124 51.6461 39.5041 50.109C56.0429 39.8973 78.485 38.1978 96.7992 45.7683C102.026 47.928 105.568 50.0444 111.417 54.4999C119.636 60.7596 122.802 62.7806 126.833 64.3415C130.888 65.9118 136.505 66.6595 144.374 66.6782C149.534 66.6901 154.524 67.6003 158.15 69.1918C159.79 69.9105 164.408 73.2143 169.89 77.5916C177.307 83.5127 179.593 85.0745 182.635 86.3011C185.986 87.6527 186.779 87.7956 190.874 87.7905C194.645 87.7854 196.03 87.5736 199.126 86.5265C206.987 83.8708 213.057 79.4417 220.92 70.6174C234.751 55.1012 239.639 51.2607 251.17 46.8461C255.792 45.0768 258.884 44.198 280.19 38.6061C294.251 34.9161 301.814 31.6863 308.855 26.3598C315.936 21.0043 322.514 12.0099 324.914 4.39684C326.227 0.238999 327.317 -1.32527 326.746 1.76927C326.254 4.44444 324.011 9.66893 321.783 13.3249C318.936 18.0024 315.417 22.0582 311.029 25.7218C306.401 29.5836 302.335 31.9449 295.537 34.7171C291.097 36.5264 286.598 37.8116 263.734 43.8034C245.2 48.6595 237.575 53.3788 224.67 67.9822C211.595 82.7787 202.153 88.5484 190.887 88.6292C183.409 88.6828 180.228 87.1364 168.561 77.7745C160.34 71.1771 157.431 69.3806 153.411 68.4219C152.242 68.1429 146.86 67.6564 141.451 67.34C126.82 66.486 124.864 65.7459 112.379 56.3372C108.228 53.2112 103.062 49.7492 100.898 48.6442C80.711 38.3348 53.8066 40.2657 36.4414 53.2699C34.8259 54.4795 30.1539 58.4714 26.0592 62.141Z" fill="url(#paint9_linear_9561_103378)"/>
<path fill-rule="evenodd" clip-rule="evenodd" d="M30.183 355.919C24.5455 352.434 19.587 346.061 18.1023 340.399C16.9769 336.105 18.6214 329.486 21.8254 325.407C23.8894 322.782 28.3059 319.298 31.9771 317.4C43.3289 311.531 65.688 308.226 75.5365 310.961C79.897 312.171 84.162 314.529 86.4689 317.005C91.8967 322.829 91.903 331.92 86.4835 339.496C82.8622 344.559 76.0411 350.429 69.3487 354.241C55.935 361.882 40.8684 362.527 30.183 355.919ZM32.4796 318.172C26.3769 321.387 22.0289 325.653 20.0355 330.381C18.7398 333.452 18.4761 338.551 19.4645 341.432C21.3623 346.968 26.9687 353.396 32.3778 356.239C36.9044 358.619 40.5839 359.449 46.8319 359.495C53.41 359.543 58.028 358.567 64.3736 355.784C70.9248 352.912 79.2243 346.81 83.4934 341.725C95.381 327.569 89.2472 313.167 70.3703 310.913C66.7802 310.484 65.0484 310.519 59.7494 311.129C47.8618 312.496 38.8231 314.83 32.4796 318.172Z" fill="url(#paint10_linear_9561_103378)"/>
<path fill-rule="evenodd" clip-rule="evenodd" d="M47.1973 252.983C46.672 252.928 46.3231 252.659 45.7687 252.206C43.7027 250.513 44.8987 246.135 49.471 238.644C54.305 230.726 60.0712 224.429 64.0767 222.693C66.4999 221.644 71.3774 221.718 73.2005 222.833C75.551 224.268 76.7554 226.631 76.7035 229.694C76.6661 231.887 76.2923 232.962 74.6353 235.635C70.8438 241.755 61.2756 248.539 51.942 251.722C49.1429 252.677 47.976 253.065 47.1973 252.983ZM60.3453 226.222C55.5799 230.754 49.4482 239.593 47.0229 245.422C45.5736 248.909 45.4282 250.996 46.5827 251.78C48.5512 253.119 60.0442 247.918 66.6348 242.705C75.85 235.415 78.3459 228.716 73.4995 224.273C70.4472 221.473 64.3944 222.369 60.3453 226.222Z" fill="url(#paint11_linear_9561_103378)"/>
<path fill-rule="evenodd" clip-rule="evenodd" d="M128.427 648.706C119.918 648.748 117.738 648.203 115.493 645.477C114.393 644.139 114.268 643.572 114.472 640.846C114.731 637.393 115.178 636.562 124.37 622.394C130.79 612.498 134.161 608.397 138.843 604.778C148.621 597.222 164.487 591.439 177.332 590.752C186.308 590.272 188.274 591.426 188.659 597.401C189.225 606.202 184.578 615.869 174.518 626.815C164.464 637.754 153.916 644.168 140.465 647.525C136.488 648.517 134.869 648.676 128.427 648.706ZM118.465 633.256C117.663 634.533 116.939 635.791 116.581 636.548C114.528 640.904 114.792 643.992 117.385 645.996C119.372 647.533 122.169 648.085 127.996 648.087C141.517 648.094 154.568 643.092 166.287 633.414C175.59 625.731 184.275 613.954 186.62 605.845C187.886 601.467 188.025 596.006 186.927 593.851C185.849 591.739 184.225 591.338 177.863 591.614C170.98 591.912 162.759 593.808 155.006 596.886C141.144 602.388 134.906 607.736 126.027 621.741C123.899 625.094 121.135 629.308 119.883 631.105C119.422 631.765 118.93 632.513 118.465 633.256Z" fill="url(#paint12_linear_9561_103378)"/>
<path fill-rule="evenodd" clip-rule="evenodd" d="M97.0961 676.005C91.2884 673.848 86.6766 668.971 84.8514 663.056C83.5765 658.923 84.0873 650.52 85.8813 646.13C88.6388 639.382 91.9009 634.956 105.472 619.563C113.676 610.258 118.162 601.543 121.233 588.943C122.809 582.47 123.34 579.449 125.805 562.946C129.366 539.108 134.962 525.762 142.682 522.7C147.051 520.967 151.735 521.772 154.757 524.773C156.875 526.878 158.133 529.176 159.831 534.038C161.918 540.018 163.862 542.877 168.231 546.397C172.502 549.839 175.895 551.585 187.697 556.418C193.605 558.836 196.736 560.211 199.253 561.685C200.92 562.66 202.319 563.679 204.076 565.074C211.585 571.035 214.807 578.314 214.807 589.308C214.807 611.722 197.922 634.42 167.57 652.798C157.313 659.009 131.656 672.154 123.508 675.372C113.386 679.372 106.596 679.534 97.0961 676.005ZM99.783 627.403C92.7086 635.341 87.8726 642.799 86.2302 648.307C83.7592 656.59 84.7746 663.601 89.2659 669.233C91.8926 672.527 93.18 673.477 97.1397 675.05C106.731 678.856 113.157 678.65 123.984 674.19C134.484 669.865 159.773 656.688 169.852 650.29C194.115 634.889 208.547 617.6 212.996 598.603C214.197 593.483 214.195 584.982 212.992 580.367C211.678 575.316 208.127 569.568 204.346 566.372C200.177 562.847 196.52 560.904 185.725 556.476C174.155 551.73 171.246 550.206 166.966 546.648C162.986 543.336 160.888 540.109 158.76 534.018C155.942 525.947 152.626 522.661 147.304 522.661C141.009 522.661 136.347 527.567 132.462 538.278C129.632 546.088 128.218 552.922 125.242 573.181C122.732 590.262 119.108 601.926 113.749 610.173C110.622 614.986 108.346 617.793 99.783 627.403Z" fill="url(#paint13_linear_9561_103378)"/>
<path fill-rule="evenodd" clip-rule="evenodd" d="M92.6484 419.212C91.5728 418.544 90.6343 417.629 90.1069 416.634C89.0084 414.571 89.2285 410.084 90.6613 405.289C93.1384 396.991 95.4765 392.38 104.507 377.957C111.06 367.493 113.724 362.448 117.779 352.81C125.676 334.045 133.44 326.589 145.793 325.908C150.643 325.642 153.974 326.604 157.601 329.319C161.713 332.398 162.9 334.883 162.612 339.811C162.489 341.914 162.358 342.99 161.779 344.322C161.395 345.204 160.816 346.197 159.91 347.674C158.546 349.9 154.927 354.498 151.868 357.894C136.355 375.113 120.749 394.337 105.439 415.089C103.178 418.153 99.3013 420.315 96.0641 420.315C94.9699 420.315 93.7385 419.889 92.6484 419.212ZM104.337 380.03C96.8283 392.294 95.0218 395.735 92.5114 402.571C91.878 404.297 91.4233 405.851 91.1139 407.385C90.8627 408.632 90.709 409.867 90.6322 411.169C90.3581 415.796 90.9374 417.458 93.2547 418.702C96.9383 420.679 101.72 418.594 105.541 413.346C107.985 409.989 116.918 398.156 117.838 397.055C118.186 396.639 121.426 392.642 125.506 387.6L128.106 384.385C136.426 374.09 141.98 367.568 154.437 353.463C159.902 347.275 161.763 343.452 161.715 338.507C161.669 333.456 158.731 329.919 152.691 327.644C148.777 326.171 143.097 326.395 138.793 328.193C129.879 331.918 125.153 337.821 118.569 353.463C117.036 357.101 115.882 359.739 114.561 362.392C112.397 366.739 109.787 371.128 104.337 380.03Z" fill="url(#paint14_linear_9561_103378)"/>
<path fill-rule="evenodd" clip-rule="evenodd" d="M166.275 483.454C164.491 482.304 162.209 478.446 161.736 475.778C160.319 467.808 165.604 461.219 172.948 461.798C176.107 462.046 177.967 463.103 179.72 465.647C181.458 468.165 181.495 472.162 179.815 475.625C178.43 478.483 174.719 482.691 172.741 483.648C170.776 484.598 167.917 484.513 166.275 483.454ZM176.03 463.541C171.621 461.107 165.106 463.692 163.349 468.572C161.829 472.793 162.167 476.09 164.51 479.873C167.695 485.019 171.227 485.018 175.612 479.872C178.989 475.908 179.989 473.744 179.989 470.413C179.989 467.101 178.829 465.087 176.03 463.541Z" fill="url(#paint15_linear_9561_103378)"/>
<path d="M210.289 394.476C197.89 389.252 193.189 385.866 190.93 380.528C189.985 378.297 189.838 377.163 190.044 373.715C190.345 368.653 191.248 366.116 198.036 351.285C199.711 347.623 201.657 343.301 203.3 339.606C204.45 337.02 205.449 334.741 206.103 333.212C214.761 312.945 226.597 300.335 259.725 276.072C277.796 262.839 279.312 261.669 286.675 255.254C293.703 249.133 298.683 244.262 304.787 237.537C306.27 235.903 307.447 234.407 308.691 232.486C309.787 230.795 310.934 228.774 312.385 226.04C323.031 205.986 332.765 193.563 344.798 184.677C346.565 183.373 350.936 180.272 354.514 177.788C362.13 172.499 366.783 167.937 369.992 162.617C373.858 156.205 375.307 152.217 379.607 136.14C385.652 113.557 387.928 107.995 396.628 94.5486C404.246 82.7735 408.555 67.328 410.474 44.8998C411.221 36.1802 411.435 7.92009 410.791 3.19914C410.658 2.22349 410.598 1.43498 410.611 0.890546C410.623 0.34361 410.708 0.0416691 410.866 0.0416691C411.144 0.041669 411.516 0.775739 411.693 1.67485C412.436 5.46519 412.644 22.8697 412.075 33.7942C410.488 64.3415 406.668 80.3774 397.531 94.8455C388.314 109.444 386.46 114.069 379.846 138.971C373.289 163.662 369.867 168.474 348.23 183.417C334.555 192.864 325.35 204.078 313.938 225.195C309.268 233.836 308.477 234.992 303.805 240.011C292.21 252.467 283.836 259.59 262.071 275.495C227.783 300.554 215.685 313.273 207.172 333.212C205.586 336.924 201.663 345.744 198.455 352.81C195.245 359.876 192.23 367.068 191.752 368.792C189.456 377.106 191.773 383.378 198.823 387.929C200.451 388.981 205.091 391.238 209.132 392.944C221.07 397.979 225.216 401.016 228.966 407.467C234.274 416.599 234.654 426.545 230.243 440.869C221.83 468.182 219.481 474.059 209.645 492.393C202.496 505.719 200.66 511.549 201.15 519.372C201.589 526.375 203.486 530.6 208.019 534.662C212.899 539.039 219.554 540.795 232.88 541.227C253.273 541.889 261.618 536.85 267.953 520.048C273.28 505.923 275.229 502.292 280.275 497.096C283.618 493.653 287.501 491.391 296.642 487.562C304.877 484.111 308.917 481.358 311.419 477.494C314.295 473.053 314.987 470.402 314.97 463.866C314.956 457.502 314.771 456.697 309.735 440.969C306.021 429.369 305.122 423.545 304.791 408.913C304.447 393.667 306.066 371.938 308.683 356.729C311.384 341.021 316.885 331.902 329.237 322.652C350.77 306.529 354.917 302.112 363.59 286.072C368.918 276.217 371.04 272.792 374.269 268.836C381.943 259.437 390.309 256.425 396.636 260.787C397.724 261.537 398.462 262.249 399.138 263.452C399.842 264.704 400.482 266.487 401.385 269.398C402.232 272.126 403.433 275.173 404.053 276.171C407.957 282.439 418.372 286.209 428.298 284.945C437.544 283.767 450.848 279.013 456.149 274.994C460.426 271.748 462.194 268.703 462.169 264.618C462.146 260.852 460.962 258.52 457.463 255.337C454.758 252.877 451.269 251.215 445.507 249.642C444.452 249.353 443.097 248.855 441.824 248.306C440.806 247.867 439.843 247.396 439.128 246.975C437.521 246.027 434.621 244.386 432.681 243.327C429.793 241.75 428.991 241.045 428.233 239.419C426.439 235.573 428.568 231.648 435.206 226.56C440.289 222.664 447.598 218.701 462.094 211.983C474.822 206.082 479.7 203.223 486.708 197.548C500.745 186.181 510.898 171.975 512.391 161.618C513.542 153.626 510.998 147.208 503.151 138.318C498.961 133.572 496.627 129.747 494.166 123.59C488.195 108.654 487.651 92.9486 492.609 78.6523C493.357 76.496 495.742 70.9636 497.912 66.3575C505.018 51.2633 506.638 46.0762 506.638 38.4215C506.638 31.1275 505.205 27.719 497.526 16.7716C495.495 13.8761 493.22 10.0577 492.468 8.28501C490.94 4.68601 490.122 -0.29946 491.141 0.218606C491.48 0.388711 491.754 1.31504 491.754 2.27708C491.754 3.88474 493.099 7.67936 494.559 10.4855C494.933 11.2043 495.315 11.8584 495.682 12.3943C496.363 13.3844 498.595 16.5845 500.643 19.5038C502.713 22.4563 505.047 26.5154 505.9 28.6496C506.82 30.9454 507.194 32.1202 507.341 34.2331C507.418 35.3329 507.435 36.6863 507.435 38.5848C507.435 47.0374 506.048 51.6155 499.046 66.2401C491.72 81.5384 489.669 89.9068 490.344 101.735C491.187 116.519 495.815 128.573 504.387 138.305C508.409 142.871 511.567 148.02 512.802 152.028C514.189 156.525 513.643 163.339 511.478 168.586C507.188 178.972 496.102 191.957 483.865 200.924C478.284 205.017 472.694 208.066 459.478 214.234C445.194 220.899 441.062 223.193 435.596 227.492C426.985 234.266 426.25 238.866 433.192 242.542C434.932 243.463 437.276 244.811 438.406 245.538C441.03 247.229 442.812 247.965 448.078 249.54C457.904 252.478 463.219 257.792 463.226 264.682C463.23 271.109 458.242 276.221 448.009 280.278C437.337 284.509 427.482 286.616 421.321 285.982C415.183 285.351 409.141 282.918 405.744 279.711C403.632 277.719 401.908 274.506 400.569 270.073C398.862 264.42 398.435 263.566 396.476 261.903C394.427 260.163 391.838 259.426 389.051 259.79C386.02 260.189 384.043 261.136 380.538 263.875C375.685 267.667 371.134 273.96 365.513 284.651C361.354 292.559 356.391 300.094 352.603 304.25C348.791 308.432 340.745 315.241 330.502 322.952C323.255 328.408 319.549 332.238 316.137 337.795C311.876 344.732 309.816 352.918 307.867 370.666C305.892 388.633 305.57 393.451 305.583 405.072C305.595 421.466 306.712 428.688 311.515 443.434C315.469 455.573 315.952 457.782 315.983 463.866C316.031 472.484 313.791 477.775 308.137 482.406C305.506 484.559 303.483 485.636 297.2 488.228C288.082 491.99 284.866 493.863 281.106 497.599C276.344 502.327 273.464 507.749 268.485 521.354C266.089 527.902 263.678 531.775 259.986 535.008C256.454 538.101 252.368 540.088 247.368 541.145C237.806 543.165 220.605 542.061 213.098 538.945C200.374 533.662 196.389 518.314 203.59 502.317C204.429 500.451 207.641 494.111 210.727 488.225C217.257 475.776 221.109 466.644 224.953 454.503L229.224 441.002C234.905 423.018 232.476 409.553 221.992 400.909C218.786 398.266 217.145 397.363 210.289 394.476Z" fill="url(#paint16_linear_9561_103378)"/>
<path d="M198.871 692.077C198.1 696.136 197.853 696.867 197.245 696.867C196.979 696.867 196.9 696.23 197.066 695.452C201.503 674.922 205.193 668.216 221.244 651.524C227.675 644.836 234.838 635.751 238.89 629.145C241.17 625.428 245.607 619.318 249.185 614.973C254.891 608.041 256.178 606.396 257.912 605.176C258.624 604.675 259.411 604.245 260.609 603.551C268.18 599.166 271.656 594.416 275.661 582.98C280.543 569.042 283.082 565.226 290.487 560.707C292.202 559.659 294.91 558.492 296.502 558.113C298.097 557.734 301.596 556.51 304.281 555.394C306.966 554.278 310.655 552.875 312.483 552.276C314.31 551.677 317.053 550.501 318.579 549.663C324.248 546.549 330.103 539.297 332.778 532.078C335.018 526.029 339.013 521.936 344.792 519.768C352.79 516.768 359.715 518.311 372.948 526.044C381.788 531.208 386.159 532.86 391.001 532.868C398.364 532.88 402.581 529.577 407.365 520.05C413.688 507.464 415.241 496.693 413.113 480.198C410.528 460.171 410.384 458.234 411.24 454.938C411.674 453.262 412.504 446.794 413.086 440.566C415.476 414.942 418.42 398.65 422.995 385.744C427.388 373.35 430.891 367.553 448.684 343.228C457.187 331.606 458.228 330.141 461.203 325.59C469.222 313.324 476.801 308.275 493.803 303.869C495.223 303.502 497.022 303.106 498.87 302.746C501.341 302.263 503.899 301.842 505.763 301.63C519.617 300.047 523.027 299.532 527.358 298.373C531.59 297.24 535.353 295.699 538 294.038L538 295.063C532.086 298.588 526.092 300.076 510.903 301.855C495.053 303.711 484.629 306.635 476.118 311.611C470.215 315.063 467.646 317.782 460.998 327.626C459.82 329.37 457.706 332.37 455.246 335.808C452.744 339.303 449.88 343.249 447.272 346.789C430.76 369.205 425.592 378.71 421.383 394.402C418.005 407.002 415.982 419.965 413.877 442.526C413.655 444.919 413.364 447.472 413.071 449.683C412.762 452.009 412.453 453.956 412.22 454.938C411.34 458.664 411.379 459.221 413.883 478.238C414.741 484.746 415.063 498.892 414.423 501.974C412.162 512.863 407.625 523.489 403.032 528.648C398.254 534.013 390.565 535.262 382.407 531.997C381.977 531.824 381.312 531.514 380.494 531.108C378.422 530.08 375.357 528.433 372.573 526.835C361.648 520.567 356.945 518.923 350.951 519.275C346.723 519.523 343.774 520.662 340.139 523.448C336.744 526.049 335.265 528.166 333.347 533.175C330.697 540.09 325.494 546.613 319.981 549.928C319.079 550.469 317.337 551.269 315.412 552.048C314.185 552.545 312.883 553.034 311.679 553.441C310.132 553.965 308.411 554.589 306.885 555.172C305.36 555.754 304.029 556.296 303.261 556.656C301.725 557.376 299.204 558.273 297.663 558.648C293.944 559.553 290.105 561.631 286.758 564.551C282.472 568.288 280.91 571.178 276.483 583.558C274.999 587.709 272.962 592.442 271.957 594.079C269.44 598.17 265.601 601.805 261.178 604.281C257.721 606.216 256.973 606.951 250.792 614.489C247.129 618.957 242.231 625.552 239.907 629.145C238.096 631.946 236.089 634.976 234.861 636.771C234.515 637.277 234.23 637.686 234.031 637.962C231.387 641.62 224.014 650.135 219.604 654.622C207.739 666.699 201.566 677.85 198.871 692.077Z" fill="url(#paint17_linear_9561_103378)"/>
<path d="M538 325.838C530.367 322.036 518.394 319.533 507.435 319.528C499.326 319.523 495.753 320.163 489.214 322.788C481.616 325.84 476.957 330.332 467.567 343.664C465.292 346.897 461.386 351.797 458.89 354.552C447.409 367.223 442.912 374.245 439.951 384.124C437.893 390.993 437.322 396.127 437.818 403.286C437.972 405.484 438.065 408.437 438.084 411.101C438.094 412.675 438.078 414.149 438.03 415.306C437.451 429.611 437.872 456.346 438.832 466.044C439.992 477.799 439.745 486.786 438.088 493.046C436.749 498.109 423.765 535.652 421.807 540.122C419.371 545.688 416.942 549.473 415.048 550.657C412.293 552.379 407.272 554.375 403.952 555.067C402.29 555.413 398.104 555.911 394.649 556.174C382.942 557.062 375.326 558.344 370.99 560.156C369.809 560.65 365.901 563.342 362.307 566.138C352.356 573.875 347.909 575.929 330.498 580.83C319.727 583.861 317.688 584.793 312.987 588.829C306.131 594.715 303.064 600.088 299.638 612.222C298.631 615.787 297.221 620.024 296.509 621.635C292.719 630.184 285.867 635.783 269.637 643.585L255.472 650.385C243.587 656.083 238.119 659.499 228.179 667.434C219.876 674.065 216.308 678.465 214.46 684.357C213.258 688.188 213.954 696.867 215.463 696.867C215.602 696.867 215.692 696.786 215.727 696.644C215.773 696.469 215.737 696.202 215.613 695.888C215.403 695.348 215.108 693.007 214.959 690.685C214.44 682.617 217.82 676.921 228.08 668.586C238.724 659.939 244.704 656.376 263.18 647.673C282.148 638.738 288.703 634.556 293.587 628.274C296.826 624.104 297.829 621.814 300.825 611.715C303.465 602.826 305.782 597.896 309.283 593.712C311.517 591.046 317.267 586.356 319.792 585.141C320.963 584.577 326.224 582.914 331.486 581.445C336.75 579.974 343.459 577.824 346.395 576.665C352.566 574.231 359.742 569.846 364.709 565.475C366.611 563.803 369.275 561.908 370.631 561.262C374.265 559.534 382.328 558.025 392.023 557.261C396.736 556.889 402.027 556.3 403.779 555.953C407.905 555.136 414.157 552.56 416.458 550.73C419.419 548.373 422.71 541.136 429.066 522.996C441.585 487.274 441.788 486.21 439.803 466.915C439.033 459.435 438.888 452.619 438.902 424.888C438.919 395.153 439.016 391.395 439.851 387.923C442.127 378.483 446.869 369.81 454.529 361.085C461.384 353.275 466.776 346.616 469.694 342.357C476.365 332.614 482.746 326.426 488.849 323.778C494.97 321.123 499.125 320.362 507.435 320.376C518.569 320.394 527.967 322.284 536.632 326.246L538 326.872L538 325.838Z" fill="url(#paint18_linear_9561_103378)"/>
<path d="M538 423.195C537.325 423.092 536.573 422.987 535.822 422.891C526.775 421.741 516.926 424.852 509.023 431.358C502.823 436.462 499.295 441.726 490.362 459.207C478.637 482.153 476.818 487.326 473.954 505.894C471.82 519.74 468.311 530.632 462.383 541.824C455.738 554.366 453.427 557.205 442.349 566.43C431.192 575.723 428.229 579.097 423.9 587.44C419.689 595.557 413.067 601.922 402.88 607.645C392.116 613.692 385.125 620.724 381.551 629.1C379.898 632.972 379.861 633.237 379.892 640.468C379.942 652.338 382.454 660.683 387.768 666.635C390.662 669.877 398.048 675.692 402.205 677.999C408.455 681.47 409.67 681.836 414.942 681.835C419.338 681.833 420.009 681.714 423.181 680.362C427.565 678.498 433.132 673.949 439.494 667.035C450.14 655.462 455.071 653.276 468.861 654.012C482.835 654.758 486.527 654.351 493.296 651.315C498.789 648.852 503.812 645.223 512.325 637.568C514.898 635.255 518.797 632.146 520.99 630.66C523.183 629.174 525.815 627.315 526.837 626.531C530.274 623.896 533.995 623.083 538 624.095L538 623.284C535.164 622.61 532.242 622.775 529.889 623.758C526.715 625.085 521.698 628.789 509.569 638.762C503.718 643.572 497.553 648.239 495.869 649.131C488.29 653.15 482.958 654.164 473.518 653.38C465.451 652.709 461.76 652.75 457.978 653.552C450.779 655.079 446.84 657.725 438.406 666.694C430.127 675.499 426.959 678.017 421.566 680.073C418.408 681.278 413.894 681.55 410.368 680.747C403.869 679.268 389.657 668.884 386.032 662.965C383.389 658.65 381.551 652.098 380.747 644.126C380.255 639.242 380.48 635.733 381.51 632.193C382.716 628.042 384.323 625.061 387.486 621.111C391.233 616.431 396.445 612.285 403.514 608.359C412.992 603.097 420.507 596.017 424.211 588.859C428.89 579.823 433.263 574.748 442.908 567.164C451.882 560.108 454.293 557.416 459.567 548.574C468.954 532.832 472.044 524.074 475.25 504.14C477.962 487.28 480.099 481.342 491.475 459.076C500.142 442.111 504.364 436.016 510.83 431.133C519.264 424.763 528.502 422.278 537.734 423.894L538 423.941L538 423.195Z" fill="url(#paint19_linear_9561_103378)"/>
<path d="M538 442.703L536.551 442.636C531.061 442.38 526.901 443.106 521.256 445.306C512.977 448.532 508.162 452.669 503.201 460.818C497.032 470.95 494.596 477.668 490.73 495.223C489.59 500.399 488.84 503.751 488.105 506.775C487.148 510.722 486.22 514.11 484.49 520.266C482.875 526.014 480.362 533.756 478.909 537.469C477.455 541.181 474.964 547.523 473.373 551.561C468.485 563.97 464.492 569.569 453.028 580.085C445.385 587.095 443.049 589.788 436.919 598.659C433.939 602.97 430.553 607.673 429.392 609.111C424.699 614.923 418.8 619.945 412.014 623.908C404.319 628.401 399.855 633.154 398.167 638.65C397.222 641.724 397.751 647.453 399.192 649.742C402.091 654.345 407.18 657.223 412.436 657.231C418.024 657.24 421.037 655.329 426.844 648.091C435.437 637.384 438.726 636.133 460.082 635.449C469.372 635.153 473.321 634.849 476.338 634.2C490.171 631.225 499.949 625.758 509.53 615.644C514.825 610.054 520.888 605.745 526.216 603.787C529.456 602.596 534.568 602.104 538 602.597L538 601.868C536.729 601.779 534.977 601.723 533.378 601.733C531.598 601.744 530.471 601.778 529.414 601.958C528.087 602.184 526.868 602.639 524.607 603.562C519.242 605.754 514.561 609.142 508.959 614.888C501.195 622.855 493.635 627.875 484.812 630.923C477.042 633.609 473.493 634.148 460.657 634.595C455.028 634.791 451.514 634.934 449 635.115C445.975 635.333 444.396 635.607 442.318 636.095C436.107 637.554 432.01 640.133 428.14 645.02C423.591 650.767 422.245 652.225 419.878 653.969C414.926 657.621 409.172 657.419 403.943 653.413C398.657 649.361 397.29 644.506 399.564 637.855C401.248 632.933 405.272 628.77 411.994 624.997C417.38 621.976 424.897 615.807 428.964 611.071C429.708 610.206 430.806 608.804 431.99 607.222C433.267 605.516 434.645 603.602 435.792 601.925C443.701 590.356 445.773 587.977 456.874 577.71C465.647 569.596 469.781 563.503 474.235 552.12L479.609 538.413C482.611 530.764 486.54 517.477 489.351 505.458C494.748 482.389 495.651 479.009 497.912 473.448C501.015 465.815 506.318 456.912 509.81 453.473C516.606 446.781 528.482 442.611 538 443.504L538 442.703Z" fill="url(#paint20_linear_9561_103378)"/>
<path d="M538 455.592L537.857 455.592C527.817 455.592 516.731 461.26 511.849 468.891C507.975 474.946 506.345 481.501 504.702 497.619C503.515 509.279 503.367 529.737 504.449 532.787C505.714 536.354 510.045 538.766 515.197 538.773C516.249 538.773 522.35 537.6 528.752 536.165C532.423 535.343 535.772 534.605 538 534.125L538 533.25L529.898 535.084C516.501 538.116 513.56 538.408 510.128 537.046C506.843 535.744 505.581 534.145 505.032 530.598C504.378 526.362 504.843 505.932 505.809 496.53C507.344 481.606 508.618 476.383 512.265 470.108C516.735 462.412 526.951 456.854 537.468 456.395L538 456.372L538 455.592Z" fill="url(#paint21_linear_9561_103378)"/>
<path d="M538 18.3503C535.037 18.0016 532.524 17.6537 530.485 17.31C528.112 16.9103 526.38 16.5164 525.325 16.1345C519.273 13.9399 515.541 9.54813 514.447 3.33097C513.801 -0.346214 512.715 -1.26913 513.27 2.3281C514.457 10.0662 518.783 15.2235 525.78 17.2463C528.191 17.9429 534.553 18.9067 538 19.1465L538 18.3503Z" fill="url(#paint22_linear_9561_103378)"/>
<path d="M538 40.7182L537.848 40.8152C531.575 44.8352 521.224 52.7264 515.637 57.7475C504.212 68.0154 498.797 76.2978 496.241 87.4171C494.931 93.112 495.406 103.254 497.252 109.041C502.503 125.498 518.803 140.048 538 145.425L538 144.513L537.643 144.403C528.467 141.572 520.548 137.302 514.048 131.677C503.13 122.229 497.152 110.986 496.392 98.4683C496.191 95.1568 496.965 87.9563 497.86 84.821C499.005 80.8095 501.467 75.3724 503.492 72.3901C508.571 64.9038 522.603 52.2058 535.209 43.6877L538 41.8019L538 40.7182Z" fill="url(#paint23_linear_9561_103378)"/>
<path d="M538 62.8402L536.893 63.206C524.609 67.2626 512.931 75.4446 508.454 83.1308C505.46 88.2737 504.777 90.9548 504.777 97.5973C504.777 104.554 505.809 107.914 509.329 112.423C515.34 120.122 524.127 124.76 538 127.507L538 126.746C534.308 125.924 528.291 124.183 525.271 122.977C520.955 121.252 519.476 120.356 515.402 117.002C510.338 112.834 508.33 110.15 506.579 105.219C505.24 101.451 505.261 93.9507 506.621 89.5938C509.364 80.8061 517.439 72.88 529.555 67.0822C531.492 66.1559 535.294 64.6477 538 63.6789L538 62.8402Z" fill="url(#paint24_linear_9561_103378)"/>
<path d="M538 83.2796L536.991 83.3366C526.804 83.9083 519.75 89.3871 519.721 96.7526C519.711 99.0833 519.974 99.9798 521.146 101.62C524.094 105.741 529.267 107.972 536.804 108.374L538 108.438L538 107.583L536.787 107.529C531.133 107.28 526.607 105.69 523.612 102.903C520.448 99.9577 519.81 97.365 521.268 93.3459C522.356 90.3432 526.401 86.7229 530.137 85.4054C531.929 84.7734 534.447 84.3455 537.19 84.2043L538 84.1626L538 83.2796Z" fill="url(#paint25_linear_9561_103378)"/>
<path d="M538 163.055L536.245 164.782C531.831 169.126 488.689 212.188 482.038 218.888C477.887 223.069 476.718 225.284 476.969 228.5C477.252 232.139 478.527 233.556 487.167 239.839C494.935 245.486 502.609 250.131 507.435 252.101C518.336 256.552 530.303 258.019 538 255.885L538 255.089C533.712 256.356 524.254 256.18 518.295 254.695C507.03 251.891 499.534 247.992 486.085 237.947C480.51 233.784 478.469 231.757 477.908 229.827C477.397 228.069 477.829 225.828 479.062 223.816C479.22 223.558 479.939 222.745 481.079 221.522C483.832 218.566 489.044 213.212 494.771 207.484C516.349 185.901 532.718 169.588 538 164.395L538 163.055Z" fill="url(#paint26_linear_9561_103378)"/>
<path d="M538 193.822L532.568 197.984C519.862 207.717 515.601 212.767 515.232 218.525C514.979 222.482 515.705 224.263 518.496 226.515C522.815 229.999 528.812 231.736 536.528 231.736L538 231.736L538 231.071C537.379 231.071 536.702 231.057 536.023 231.03C520.116 230.386 512.466 223.336 517.551 214.003C519.767 209.937 522.03 207.682 531.551 200.052L538 194.881L538 193.822Z" fill="url(#paint27_linear_9561_103378)"/>
<path d="M239.174 387.128C227.801 382.464 220.067 372.385 218.522 360.214C216.969 347.977 221.89 332.95 232.341 318.028C239.753 307.442 247.53 300.191 263.954 288.546C289.49 270.44 297.518 264.017 310.176 251.552C321.525 240.378 338.355 221.497 357.344 198.637C376.46 175.623 386.285 158.835 396.29 132.095C415.129 81.7426 423.48 45.9707 424.602 10.8207C424.816 4.11357 425.148 0.0416684 425.478 0.0416684C425.798 0.0416684 425.833 4.40275 425.673 9.88414C425.522 15.084 425.196 21.2909 424.77 25.7371C421.819 56.5771 412.82 91.238 396.786 133.527C386.181 161.497 376.628 177.247 353.897 204.239C329.8 232.852 315.907 247.974 303.35 259.261C292.551 268.967 289.303 271.51 270.435 285.052C247.179 301.74 244.471 304.035 236.992 313.396C230.48 321.545 224.064 333.048 221.485 341.199C217.654 353.305 218.676 364.626 224.419 373.715C230.27 382.972 240.981 388.941 251.751 388.946C259.035 388.949 267.509 385.206 273.765 379.223C280.165 373.105 284.189 366.356 289.521 352.81C296.158 335.946 299.767 329.031 305.084 322.977C306.137 321.779 311.565 316.977 317.146 312.307C322.728 307.636 328.425 302.506 329.808 300.907C333.801 296.288 337.192 289.805 341.802 277.976C346.372 266.25 347.967 262.686 350.506 258.52C356.655 248.429 368.37 238.676 383.048 231.428C392.88 226.575 400.694 223.592 421.055 216.924C428.661 214.433 434.641 212.392 439.635 210.563C445.599 208.379 450.159 206.497 454.405 204.509C472.387 196.09 483.504 187.117 490.651 175.259C497.019 164.69 499.079 153.818 496.212 145.908C495.747 144.624 493.149 139.942 490.437 135.502C482.738 122.895 480.591 116.145 480.591 104.543C480.591 96.4175 481.673 91.0611 486.436 75.6037C491.563 58.9597 492.001 56.7047 491.978 47.0774C491.955 36.6106 490.96 32.7266 486.747 26.6413C481.21 18.6387 477.435 10.044 476.452 3.19914C475.991 -0.0187586 476.565 -1.2972 477.138 1.67484C478.213 7.26512 478.759 9.32102 479.941 12.2361C481.695 16.5581 483.909 20.5832 487.686 26.3147C492.034 32.9121 493.018 36.785 493.018 47.2951C493.018 56.6723 492.669 58.4323 487.217 76.4747C482.169 93.18 481.473 96.6054 481.471 104.783C481.469 115.978 483.776 122.935 491.799 135.923C494.389 140.115 496.876 144.72 497.327 146.157C501.623 159.867 493.566 178.394 477.64 191.431C469.05 198.464 460.539 203.195 446.305 208.854C441.282 210.851 437.937 212.132 433.348 213.724C429.459 215.074 424.676 216.647 417.222 219.069C392.087 227.233 377.558 234.025 366.395 242.827C354.136 252.493 350.776 257.661 341.615 280.95C337.414 291.627 334.532 296.93 330.259 301.854C328.907 303.411 323.075 308.641 317.298 313.475C301.652 326.569 299.92 329.12 290.589 352.81C289.114 356.553 287.302 360.724 285.834 363.812C285.094 365.366 284.442 366.645 283.965 367.458C272.636 386.749 256.033 394.041 239.174 387.128Z" fill="url(#paint28_linear_9561_103378)"/>
<path fill-rule="evenodd" clip-rule="evenodd" d="M236.504 514.085C232.785 514.131 230.048 512.258 228.318 508.481C227.185 506.003 227.652 494.819 229.157 488.473C231.375 479.12 233.728 473.467 239.195 464.373C243.024 458 245.707 451.445 249.915 438.171C253.323 427.424 256.71 418.908 258.682 416.126C259.382 415.14 261.269 413.348 262.877 412.144C267.715 408.522 272.794 407.669 277.906 409.619C284.067 411.968 288.444 417.84 293.757 430.878C297.462 439.966 299.362 447.333 299.441 452.915C299.494 456.63 299.328 457.438 298.041 459.789C296.185 463.178 294.031 464.845 287.1 468.256C271.814 475.779 266.492 480.51 256.269 495.659C245.856 511.091 242.729 514.009 236.504 514.085ZM239.839 465.287C234.284 474.594 231.151 482.519 229.469 491.511C228.47 496.845 228.431 506.27 229.396 508.452C230.391 510.698 233.2 513.007 235.337 513.336C240.966 514.201 245.412 510.246 254.963 495.877C257.511 492.044 260.929 487.25 262.559 485.223C268.118 478.313 276.265 472.276 285.994 467.857C297.177 462.778 299.937 458.203 298.026 447.908C295.892 436.399 288.869 420.212 283.512 414.449C277.798 408.301 269.199 407.869 262.65 413.398C258.568 416.844 256.099 422.094 250.9 438.389C246.714 451.509 243.73 458.767 239.839 465.287Z" fill="url(#paint29_linear_9561_103378)"/>
<path d="M283.06 16.331C260.551 32.0002 234.205 26.4074 228.894 4.83233C228.042 1.36779 227.951 0.041677 228.568 0.041677C228.825 0.041677 229.209 1.16875 229.417 2.54589C230.667 10.7781 236.597 18.6719 244.018 21.9816C253.979 26.4227 268.178 24.6407 279.687 17.504C284.426 14.5651 290.456 9.30828 294.403 4.67327C296.205 2.55779 297.763 0.620104 297.865 0.368273C297.968 0.116503 298.323 -0.0110604 298.658 0.08507C300.19 0.525683 288.954 12.2284 283.06 16.331Z" fill="url(#paint30_linear_9561_103378)"/>
<path fill-rule="evenodd" clip-rule="evenodd" d="M251.745 356.05C248.022 353.98 245.526 351.175 244.077 347.427C240.364 337.833 247.054 319.828 259.297 306.463C268.697 296.2 282.758 287.487 294.802 284.46C298.843 283.445 306.068 283.144 308.363 283.896C312.011 285.09 314.044 288.517 313.396 292.378C312.937 295.114 311.604 297.169 304.009 306.863C300.628 311.175 297.476 315.326 297.003 316.091C296.531 316.855 295.003 318.717 293.61 320.229C289.8 324.361 285.414 330.604 280.998 338.188C274.878 348.694 270.161 354.071 264.793 356.657C262.802 357.617 261.737 357.818 258.655 357.818C255.173 357.818 254.716 357.702 251.745 356.05ZM268.24 299.463C257.368 308.364 249.598 319.281 245.615 331.252C243.979 336.169 243.684 343.876 245.007 347.15C246.645 351.205 250.026 354.767 253.724 356.33C256.247 357.398 260.619 357.406 263.456 356.351C268.637 354.423 273.547 348.879 280.624 336.971C285.512 328.744 289.193 323.56 293.132 319.357C294.407 317.994 295.875 316.193 296.392 315.355C296.909 314.517 300.02 310.4 303.305 306.208C312.78 294.113 313.826 291.808 311.662 287.803C310.192 285.077 308.205 284.259 303.047 284.256C293.02 284.25 279.729 290.056 268.24 299.463Z" fill="url(#paint31_linear_9561_103378)"/>
<path fill-rule="evenodd" clip-rule="evenodd" d="M245.632 240.722C244.83 240.322 244.222 239.758 244.05 239.16C243.514 237.299 244.378 232.822 245.744 230.39C248.429 225.605 255.952 220.807 263.132 219.3C266.99 218.49 268.952 218.738 270.688 220.253C274.745 223.795 268.649 233.841 259.793 238.207C256.977 239.595 250.443 241.324 248.067 241.311C247.216 241.306 246.346 241.079 245.632 240.722ZM254.158 223.706C250.563 225.873 246.479 230.11 245.65 232.531C245.349 233.411 244.955 235.136 244.774 236.364C244.554 237.85 244.571 238.445 245.057 239.025C245.204 239.202 245.397 239.377 245.64 239.576C246.192 240.029 246.616 240.269 247.229 240.359C247.731 240.433 248.36 240.407 249.293 240.316C255.229 239.738 260.671 237.339 265.136 233.334C270.198 228.791 272.48 223.155 270.192 220.843C269.278 219.919 268.701 219.766 266.284 219.805C262.598 219.865 258.157 221.293 254.158 223.706Z" fill="url(#paint32_linear_9561_103378)"/>
<path d="M286.444 691.968C286.093 694.662 285.589 696.867 285.323 696.867C284.357 696.867 285.96 686.898 287.738 681.842C291.241 671.879 299.414 664.639 307.157 664.639C311.193 664.639 315.082 667.694 317.445 672.72C321.606 681.573 326.785 698.894 324.655 696.831C324.551 696.731 323.693 693.808 322.749 690.335C320.533 682.202 316.202 671.51 314.229 669.314C313.052 668.001 311.889 667.047 310.682 666.423C309.486 665.805 308.249 665.51 306.914 665.51C301.602 665.51 295.541 669.726 291.654 676.125C288.776 680.862 287.306 685.335 286.444 691.968Z" fill="url(#paint33_linear_9561_103378)"/>
<path fill-rule="evenodd" clip-rule="evenodd" d="M338.629 446.663C335.94 442.137 332.717 434.725 331.445 430.15C329.935 424.71 331.575 418.603 335.539 414.912C339.727 411.013 348.793 408.374 358.065 408.352C363.305 408.339 364.225 408.458 366.929 409.497C375.793 412.901 379.637 419.598 378.887 430.332C378.164 440.675 373.279 450.848 365.891 457.391C360.039 462.573 353.725 463.564 349.09 460.028C346.787 458.271 341.549 451.577 338.629 446.663ZM349.91 409.839C339.362 412.059 334.499 415.297 332.574 421.386C331.569 424.564 331.578 427.669 332.601 430.549C336.494 441.51 339.458 447.252 344.514 453.632C349.196 459.537 351.709 461.253 355.668 461.253C358.366 461.253 361.389 460.022 363.951 457.881C372.577 450.673 377.998 439.115 377.998 427.938C377.998 418.709 374.371 413.107 366.528 410.224C362.62 408.787 355.675 408.626 349.91 409.839Z" fill="url(#paint34_linear_9561_103378)"/>
<path fill-rule="evenodd" clip-rule="evenodd" d="M322.196 440.784C319.069 432.77 316.118 424.57 315.614 422.492C315.082 420.309 315.761 413.938 316.82 411.169C319.657 403.755 327.283 396.932 337.437 392.725C338.957 392.096 343.143 390.775 346.74 389.791C355.645 387.355 358.98 385.839 363.397 382.22C372.271 374.95 376.532 363.749 375.222 351.139C374.605 345.213 375.07 343.137 377.521 340.851C379.209 339.274 380.193 338.918 399.261 332.995L415.74 327.874C422.029 325.92 423.42 325.641 426.996 325.616C431.817 325.585 433.373 326.277 435.314 329.317C436.356 330.951 436.512 331.724 436.315 334.3C435.981 338.693 435.173 340.011 421.757 358.036C407.679 376.949 402.396 391.321 398.212 422.087C395.864 439.358 394.5 445.116 390.428 454.938C387.627 461.697 386.013 465.688 384.956 468.71C383.933 471.636 383.428 473.655 382.868 476.403C382.274 479.312 381.366 482.434 380.849 483.34C379.333 486.009 373.264 490.691 369.412 492.166C360.56 495.554 349.009 494.337 340.587 489.127C335.12 485.745 333.415 482.579 331.771 472.741C329.923 461.693 328.498 456.943 322.196 440.784ZM336.573 394.032C326.511 398.529 319.769 405.104 317.383 412.751C316.301 416.216 316.104 420.656 316.907 423.444C317.506 425.521 320.091 432.569 324.547 444.268C329.536 457.368 331.038 462.402 332.3 470.285C334.389 483.31 335.915 485.925 343.646 489.731C354.819 495.232 367.076 494.381 375.571 487.513C379.317 484.484 380.899 481.816 381.719 477.15C382.645 471.885 383.951 468.031 388.36 457.575C393.756 444.779 394.946 439.722 397.947 416.831C400.04 400.846 404.5 385.208 410.038 374.426C411.371 371.83 413.364 368.571 416.107 364.516C418.223 361.39 420.781 357.791 423.825 353.659C433.888 340.002 435.001 338.122 435.262 334.329C435.513 330.676 434.569 328.786 431.687 327.189C428.566 325.46 424.874 325.969 412.284 329.865C382.924 338.951 380.384 339.795 378.897 340.954C376.192 343.063 376.144 343.276 376.142 353.463C376.14 361.467 375.974 363.546 375.139 366.093C374.134 369.159 372.369 372.757 370.469 375.753C369.56 377.187 368.621 378.482 367.72 379.517C363.015 384.921 358.43 387.363 347.024 390.544C343.156 391.623 338.455 393.193 336.573 394.032Z" fill="url(#paint35_linear_9561_103378)"/>
<path fill-rule="evenodd" clip-rule="evenodd" d="M351.372 628.293C348.604 629.467 345.845 628.484 344.572 625.869C343.876 624.441 343.872 623.987 344.547 622.531C346.376 618.573 351.698 617.738 353.808 621.078C355.467 623.708 354.344 627.035 351.372 628.293ZM352.925 621.316C351.717 619.143 347.352 619.563 345.814 621.998C344.615 623.898 344.9 625.367 346.798 627.076C348.278 628.411 350.135 628.306 351.993 626.783C353.058 625.911 353.594 624.787 353.575 623.574C353.563 622.842 353.349 622.077 352.925 621.316Z" fill="url(#paint36_linear_9561_103378)"/>
<path d="M384.402 205.263C383.661 204.188 383.16 202.99 382.834 201.569C381.825 197.179 383.318 192.274 389.132 180.854C397.818 163.797 400.874 155.838 404.599 140.576C408.138 126.084 410.019 120.339 416.252 105.001C422.28 90.1671 423.487 86.0399 424.232 77.7226C425.21 66.7896 426.612 59.1307 430.42 43.8791C433.993 29.5768 441.203 6.77855 443.94 1.13047C445.208 -1.48946 445.028 1.00456 443.709 4.28709C439.585 14.5685 435.069 29.3539 430.906 46.2063C427.436 60.2483 426.039 67.8605 425.331 76.5708C424.523 86.5222 423.734 89.2536 416.809 106.09C411.128 119.902 408.185 129.131 405.096 142.842C402.733 153.328 398.626 164.122 392.056 177.118C386.047 189.007 384.983 191.426 384.051 195.309C383.293 198.465 383.252 199.458 383.785 201.415C385.681 208.356 392.959 211.537 403.322 209.956C410.874 208.804 425.405 204.064 437.002 198.968C445.352 195.3 460.41 188.206 463.83 186.328C472.723 181.447 478.84 176.214 482.131 170.67C487.15 162.222 486.523 153.45 479.845 138.663C473.697 125.052 472.673 121.502 472.258 112.405C471.872 103.916 472.742 97.798 476.654 81.4942C480.638 64.8885 481.297 60.7502 481.338 52.0859C481.403 38.2939 478.61 30.9897 469.459 21.0213C460.962 11.7632 458.79 8.27055 458.381 3.19914C458.225 1.28697 458.275 0.361491 458.568 0.112224C458.624 0.0646162 458.688 0.041667 458.763 0.041667C459.147 0.0416669 459.274 0.369975 459.081 0.867595C458.529 2.29154 460.254 7.75675 462.223 10.8215C463.263 12.4377 466.504 16.3684 469.428 19.5565C477.794 28.6786 480.902 35.0752 482.227 45.8925C483.257 54.3246 482.221 62.397 477.626 81.6762C473.689 98.1978 472.949 103.455 473.313 112.405C473.695 121.837 473.811 122.22 482.154 141.698C489.44 158.705 487.495 169.43 475.221 179.929C469.158 185.116 455.721 192.012 434.079 201.041C409.132 211.45 394.917 213.62 387.363 208.172C386.098 207.261 385.133 206.322 384.402 205.263Z" fill="url(#paint37_linear_9561_103378)"/>
<path fill-rule="evenodd" clip-rule="evenodd" d="M392.523 306.645C391.389 306.645 389.929 306.34 389.282 305.967C386.281 304.246 389.398 297.935 393.248 297.935C394.919 297.935 397.45 299.018 397.868 299.914C399.311 302.994 396.412 306.645 392.523 306.645ZM395.841 299.437C393.866 298.377 391.786 298.783 390.376 300.504C389.059 302.107 388.781 304.416 389.801 305.251C390.951 306.194 394.394 305.882 395.831 304.705C397.662 303.203 397.668 300.418 395.841 299.437Z" fill="url(#paint38_linear_9561_103378)"/>
<path fill-rule="evenodd" clip-rule="evenodd" d="M414.658 193.287C408.171 193.631 406.549 192.674 405.349 187.795C404.533 184.477 404.855 182.548 407.536 174.684C419.008 141.015 427.654 105.99 434.897 63.8448C436.83 52.5885 437.592 49.3851 439.454 44.682C442.233 37.6653 445.815 33.453 450.37 31.8488C457.202 29.4407 464.667 32.7453 469.077 40.1296C472.102 45.1941 472.821 48.6145 472.831 57.9653C472.839 66.9946 472.559 69.0641 468.896 86.9271C465.146 105.225 464.924 106.901 464.928 116.76C464.934 126.915 465.323 128.966 469.272 139.625C471.38 145.314 471.724 146.812 471.953 151.236C472.27 157.408 471.328 161.486 468.381 166.678C463.379 175.492 456.029 181.722 445.241 186.295C437.011 189.785 423.819 192.8 414.658 193.287ZM435.667 64.9336C429.683 101.709 419.272 143.759 408.279 175.555C406.232 181.481 405.388 185.219 405.874 186.225C405.991 186.464 406.234 187.389 406.416 188.281C406.836 190.343 408.889 192.353 410.912 192.684C413.671 193.137 425.868 191.304 433.856 189.236C451.654 184.63 463.958 175.46 469.162 162.928C471.947 156.221 471.934 149.976 469.123 142.287C462.135 123.176 461.948 115.356 467.812 87.3627C471.481 69.8459 471.776 67.6427 471.76 57.9653C471.745 50.2485 471.591 48.5847 470.622 45.7037C468.485 39.3623 464.519 34.7358 459.615 32.8644C451.647 29.8243 445.256 33.6581 440.773 44.1649C438.688 49.0525 437.399 54.2966 435.667 64.9336Z" fill="url(#paint39_linear_9561_103378)"/>
<path fill-rule="evenodd" clip-rule="evenodd" d="M461.984 616.026C459.739 614.808 458.01 612.854 456.874 610.251C455.968 608.176 455.973 604.003 456.882 601.206C458.367 596.634 460.181 594.635 470.464 586.246C480.863 577.761 485.493 573.584 491.303 567.451C496.982 561.455 501.517 560.385 506.064 563.969C510.238 567.259 511.978 575.356 510.18 583.119C508.724 589.403 502.412 600.511 496.855 606.567C487.217 617.074 471.687 621.286 461.984 616.026ZM472.976 585.218C463.178 593.058 459.417 596.865 458.24 600.136C455.798 606.919 457.397 612.395 462.663 615.286C472.659 620.775 488.215 615.691 498.112 603.703C500.853 600.383 506.085 591.499 508.079 586.779C509.347 583.777 509.503 582.759 509.532 577.318C509.542 575.14 509.461 573.171 509.31 571.698C509.204 570.668 509.065 569.881 508.899 569.436C507.383 565.359 503.575 562.497 500.151 562.864C497.167 563.184 495.522 564.394 488.919 571.129C486.938 573.15 484.175 575.715 481.114 578.399C478.518 580.672 475.709 583.032 472.976 585.218Z" fill="url(#paint40_linear_9561_103378)"/>
<path fill-rule="evenodd" clip-rule="evenodd" d="M469.993 450.577C467.079 451.101 464.928 449.564 463.907 446.228C463.813 445.923 463.761 444.941 463.759 443.712C463.759 443.008 463.776 442.222 463.809 441.437C464.162 433.329 468.863 426.526 473.46 427.471C475.327 427.855 476.554 431.621 476.521 436.864C476.498 440.201 476.205 441.701 475.007 444.619C473.275 448.835 472.133 450.192 469.993 450.577ZM472.671 428.154C470.117 428.154 466.984 431.87 465.437 436.731C464.488 439.717 464.465 445.2 465.395 447.317C466.276 449.325 468.296 450.293 470.157 449.599C472.059 448.89 474.011 445.485 475.084 441.01C475.584 438.922 475.778 437.705 475.711 436.247C475.676 435.478 475.568 434.641 475.393 433.574C474.717 429.433 474.075 428.154 472.671 428.154Z" fill="url(#paint41_linear_9561_103378)"/>
</g>
<defs>
<linearGradient id="paint0_linear_9561_103378" x1="4.31449e-05" y1="9.47714e-06" x2="538" y2="697" gradientUnits="userSpaceOnUse">
<stop offset="0.0833333" stop-opacity="0.1"/>
<stop offset="0.4375" stop-color="#FF9933" stop-opacity="0.12"/>
<stop offset="0.505108" stop-color="#FF9933" stop-opacity="0.17"/>
<stop offset="0.572917" stop-color="#FF9933" stop-opacity="0.12"/>
<stop offset="0.9375" stop-opacity="0.1"/>
</linearGradient>
<linearGradient id="paint1_linear_9561_103378" x1="4.31449e-05" y1="9.47714e-06" x2="538" y2="697" gradientUnits="userSpaceOnUse">
<stop offset="0.0833333" stop-opacity="0.1"/>
<stop offset="0.4375" stop-color="#FF9933" stop-opacity="0.12"/>
<stop offset="0.505108" stop-color="#FF9933" stop-opacity="0.17"/>
<stop offset="0.572917" stop-color="#FF9933" stop-opacity="0.12"/>
<stop offset="0.9375" stop-opacity="0.1"/>
</linearGradient>
<linearGradient id="paint2_linear_9561_103378" x1="4.31449e-05" y1="9.47714e-06" x2="538" y2="697" gradientUnits="userSpaceOnUse">
<stop offset="0.0833333" stop-opacity="0.1"/>
<stop offset="0.4375" stop-color="#FF9933" stop-opacity="0.12"/>
<stop offset="0.505108" stop-color="#FF9933" stop-opacity="0.17"/>
<stop offset="0.572917" stop-color="#FF9933" stop-opacity="0.12"/>
<stop offset="0.9375" stop-opacity="0.1"/>
</linearGradient>
<linearGradient id="paint3_linear_9561_103378" x1="4.31449e-05" y1="9.47714e-06" x2="538" y2="697" gradientUnits="userSpaceOnUse">
<stop offset="0.0833333" stop-opacity="0.1"/>
<stop offset="0.4375" stop-color="#FF9933" stop-opacity="0.12"/>
<stop offset="0.505108" stop-color="#FF9933" stop-opacity="0.17"/>
<stop offset="0.572917" stop-color="#FF9933" stop-opacity="0.12"/>
<stop offset="0.9375" stop-opacity="0.1"/>
</linearGradient>
<linearGradient id="paint4_linear_9561_103378" x1="4.31449e-05" y1="9.47714e-06" x2="538" y2="697" gradientUnits="userSpaceOnUse">
<stop offset="0.0833333" stop-opacity="0.1"/>
<stop offset="0.4375" stop-color="#FF9933" stop-opacity="0.12"/>
<stop offset="0.505108" stop-color="#FF9933" stop-opacity="0.17"/>
<stop offset="0.572917" stop-color="#FF9933" stop-opacity="0.12"/>
<stop offset="0.9375" stop-opacity="0.1"/>
</linearGradient>
<linearGradient id="paint5_linear_9561_103378" x1="4.31449e-05" y1="9.47714e-06" x2="538" y2="697" gradientUnits="userSpaceOnUse">
<stop offset="0.0833333" stop-opacity="0.1"/>
<stop offset="0.4375" stop-color="#FF9933" stop-opacity="0.12"/>
<stop offset="0.505108" stop-color="#FF9933" stop-opacity="0.17"/>
<stop offset="0.572917" stop-color="#FF9933" stop-opacity="0.12"/>
<stop offset="0.9375" stop-opacity="0.1"/>
</linearGradient>
<linearGradient id="paint6_linear_9561_103378" x1="4.31449e-05" y1="9.47714e-06" x2="538" y2="697" gradientUnits="userSpaceOnUse">
<stop offset="0.0833333" stop-opacity="0.1"/>
<stop offset="0.4375" stop-color="#FF9933" stop-opacity="0.12"/>
<stop offset="0.505108" stop-color="#FF9933" stop-opacity="0.17"/>
<stop offset="0.572917" stop-color="#FF9933" stop-opacity="0.12"/>
<stop offset="0.9375" stop-opacity="0.1"/>
</linearGradient>
<linearGradient id="paint7_linear_9561_103378" x1="4.31449e-05" y1="9.47714e-06" x2="538" y2="697" gradientUnits="userSpaceOnUse">
<stop offset="0.0833333" stop-opacity="0.1"/>
<stop offset="0.4375" stop-color="#FF9933" stop-opacity="0.12"/>
<stop offset="0.505108" stop-color="#FF9933" stop-opacity="0.17"/>
<stop offset="0.572917" stop-color="#FF9933" stop-opacity="0.12"/>
<stop offset="0.9375" stop-opacity="0.1"/>
</linearGradient>
<linearGradient id="paint8_linear_9561_103378" x1="4.31449e-05" y1="9.47714e-06" x2="538" y2="697" gradientUnits="userSpaceOnUse">
<stop offset="0.0833333" stop-opacity="0.1"/>
<stop offset="0.4375" stop-color="#FF9933" stop-opacity="0.12"/>
<stop offset="0.505108" stop-color="#FF9933" stop-opacity="0.17"/>
<stop offset="0.572917" stop-color="#FF9933" stop-opacity="0.12"/>
<stop offset="0.9375" stop-opacity="0.1"/>
</linearGradient>
<linearGradient id="paint9_linear_9561_103378" x1="4.31449e-05" y1="9.47714e-06" x2="538" y2="697" gradientUnits="userSpaceOnUse">
<stop offset="0.0833333" stop-opacity="0.1"/>
<stop offset="0.4375" stop-color="#FF9933" stop-opacity="0.12"/>
<stop offset="0.505108" stop-color="#FF9933" stop-opacity="0.17"/>
<stop offset="0.572917" stop-color="#FF9933" stop-opacity="0.12"/>
<stop offset="0.9375" stop-opacity="0.1"/>
</linearGradient>
<linearGradient id="paint10_linear_9561_103378" x1="4.31449e-05" y1="9.47714e-06" x2="538" y2="697" gradientUnits="userSpaceOnUse">
<stop offset="0.0833333" stop-opacity="0.1"/>
<stop offset="0.4375" stop-color="#FF9933" stop-opacity="0.12"/>
<stop offset="0.505108" stop-color="#FF9933" stop-opacity="0.17"/>
<stop offset="0.572917" stop-color="#FF9933" stop-opacity="0.12"/>
<stop offset="0.9375" stop-opacity="0.1"/>
</linearGradient>
<linearGradient id="paint11_linear_9561_103378" x1="4.31449e-05" y1="9.47714e-06" x2="538" y2="697" gradientUnits="userSpaceOnUse">
<stop offset="0.0833333" stop-opacity="0.1"/>
<stop offset="0.4375" stop-color="#FF9933" stop-opacity="0.12"/>
<stop offset="0.505108" stop-color="#FF9933" stop-opacity="0.17"/>
<stop offset="0.572917" stop-color="#FF9933" stop-opacity="0.12"/>
<stop offset="0.9375" stop-opacity="0.1"/>
</linearGradient>
<linearGradient id="paint12_linear_9561_103378" x1="4.31449e-05" y1="9.47714e-06" x2="538" y2="697" gradientUnits="userSpaceOnUse">
<stop offset="0.0833333" stop-opacity="0.1"/>
<stop offset="0.4375" stop-color="#FF9933" stop-opacity="0.12"/>
<stop offset="0.505108" stop-color="#FF9933" stop-opacity="0.17"/>
<stop offset="0.572917" stop-color="#FF9933" stop-opacity="0.12"/>
<stop offset="0.9375" stop-opacity="0.1"/>
</linearGradient>
<linearGradient id="paint13_linear_9561_103378" x1="4.31449e-05" y1="9.47714e-06" x2="538" y2="697" gradientUnits="userSpaceOnUse">
<stop offset="0.0833333" stop-opacity="0.1"/>
<stop offset="0.4375" stop-color="#FF9933" stop-opacity="0.12"/>
<stop offset="0.505108" stop-color="#FF9933" stop-opacity="0.17"/>
<stop offset="0.572917" stop-color="#FF9933" stop-opacity="0.12"/>
<stop offset="0.9375" stop-opacity="0.1"/>
</linearGradient>
<linearGradient id="paint14_linear_9561_103378" x1="4.31449e-05" y1="9.47714e-06" x2="538" y2="697" gradientUnits="userSpaceOnUse">
<stop offset="0.0833333" stop-opacity="0.1"/>
<stop offset="0.4375" stop-color="#FF9933" stop-opacity="0.12"/>
<stop offset="0.505108" stop-color="#FF9933" stop-opacity="0.17"/>
<stop offset="0.572917" stop-color="#FF9933" stop-opacity="0.12"/>
<stop offset="0.9375" stop-opacity="0.1"/>
</linearGradient>
<linearGradient id="paint15_linear_9561_103378" x1="4.31449e-05" y1="9.47714e-06" x2="538" y2="697" gradientUnits="userSpaceOnUse">
<stop offset="0.0833333" stop-opacity="0.1"/>
<stop offset="0.4375" stop-color="#FF9933" stop-opacity="0.12"/>
<stop offset="0.505108" stop-color="#FF9933" stop-opacity="0.17"/>
<stop offset="0.572917" stop-color="#FF9933" stop-opacity="0.12"/>
<stop offset="0.9375" stop-opacity="0.1"/>
</linearGradient>
<linearGradient id="paint16_linear_9561_103378" x1="4.31449e-05" y1="9.47714e-06" x2="538" y2="697" gradientUnits="userSpaceOnUse">
<stop offset="0.0833333" stop-opacity="0.1"/>
<stop offset="0.4375" stop-color="#FF9933" stop-opacity="0.12"/>
<stop offset="0.505108" stop-color="#FF9933" stop-opacity="0.17"/>
<stop offset="0.572917" stop-color="#FF9933" stop-opacity="0.12"/>
<stop offset="0.9375" stop-opacity="0.1"/>
</linearGradient>
<linearGradient id="paint17_linear_9561_103378" x1="4.31449e-05" y1="9.47714e-06" x2="538" y2="697" gradientUnits="userSpaceOnUse">
<stop offset="0.0833333" stop-opacity="0.1"/>
<stop offset="0.4375" stop-color="#FF9933" stop-opacity="0.12"/>
<stop offset="0.505108" stop-color="#FF9933" stop-opacity="0.17"/>
<stop offset="0.572917" stop-color="#FF9933" stop-opacity="0.12"/>
<stop offset="0.9375" stop-opacity="0.1"/>
</linearGradient>
<linearGradient id="paint18_linear_9561_103378" x1="4.31449e-05" y1="9.47714e-06" x2="538" y2="697" gradientUnits="userSpaceOnUse">
<stop offset="0.0833333" stop-opacity="0.1"/>
<stop offset="0.4375" stop-color="#FF9933" stop-opacity="0.12"/>
<stop offset="0.505108" stop-color="#FF9933" stop-opacity="0.17"/>
<stop offset="0.572917" stop-color="#FF9933" stop-opacity="0.12"/>
<stop offset="0.9375" stop-opacity="0.1"/>
</linearGradient>
<linearGradient id="paint19_linear_9561_103378" x1="4.31449e-05" y1="9.47714e-06" x2="538" y2="697" gradientUnits="userSpaceOnUse">
<stop offset="0.0833333" stop-opacity="0.1"/>
<stop offset="0.4375" stop-color="#FF9933" stop-opacity="0.12"/>
<stop offset="0.505108" stop-color="#FF9933" stop-opacity="0.17"/>
<stop offset="0.572917" stop-color="#FF9933" stop-opacity="0.12"/>
<stop offset="0.9375" stop-opacity="0.1"/>
</linearGradient>
<linearGradient id="paint20_linear_9561_103378" x1="4.31449e-05" y1="9.47714e-06" x2="538" y2="697" gradientUnits="userSpaceOnUse">
<stop offset="0.0833333" stop-opacity="0.1"/>
<stop offset="0.4375" stop-color="#FF9933" stop-opacity="0.12"/>
<stop offset="0.505108" stop-color="#FF9933" stop-opacity="0.17"/>
<stop offset="0.572917" stop-color="#FF9933" stop-opacity="0.12"/>
<stop offset="0.9375" stop-opacity="0.1"/>
</linearGradient>
<linearGradient id="paint21_linear_9561_103378" x1="4.31449e-05" y1="9.47714e-06" x2="538" y2="697" gradientUnits="userSpaceOnUse">
<stop offset="0.0833333" stop-opacity="0.1"/>
<stop offset="0.4375" stop-color="#FF9933" stop-opacity="0.12"/>
<stop offset="0.505108" stop-color="#FF9933" stop-opacity="0.17"/>
<stop offset="0.572917" stop-color="#FF9933" stop-opacity="0.12"/>
<stop offset="0.9375" stop-opacity="0.1"/>
</linearGradient>
<linearGradient id="paint22_linear_9561_103378" x1="4.31449e-05" y1="9.47714e-06" x2="538" y2="697" gradientUnits="userSpaceOnUse">
<stop offset="0.0833333" stop-opacity="0.1"/>
<stop offset="0.4375" stop-color="#FF9933" stop-opacity="0.12"/>
<stop offset="0.505108" stop-color="#FF9933" stop-opacity="0.17"/>
<stop offset="0.572917" stop-color="#FF9933" stop-opacity="0.12"/>
<stop offset="0.9375" stop-opacity="0.1"/>
</linearGradient>
<linearGradient id="paint23_linear_9561_103378" x1="4.31449e-05" y1="9.47714e-06" x2="538" y2="697" gradientUnits="userSpaceOnUse">
<stop offset="0.0833333" stop-opacity="0.1"/>
<stop offset="0.4375" stop-color="#FF9933" stop-opacity="0.12"/>
<stop offset="0.505108" stop-color="#FF9933" stop-opacity="0.17"/>
<stop offset="0.572917" stop-color="#FF9933" stop-opacity="0.12"/>
<stop offset="0.9375" stop-opacity="0.1"/>
</linearGradient>
<linearGradient id="paint24_linear_9561_103378" x1="4.31449e-05" y1="9.47714e-06" x2="538" y2="697" gradientUnits="userSpaceOnUse">
<stop offset="0.0833333" stop-opacity="0.1"/>
<stop offset="0.4375" stop-color="#FF9933" stop-opacity="0.12"/>
<stop offset="0.505108" stop-color="#FF9933" stop-opacity="0.17"/>
<stop offset="0.572917" stop-color="#FF9933" stop-opacity="0.12"/>
<stop offset="0.9375" stop-opacity="0.1"/>
</linearGradient>
<linearGradient id="paint25_linear_9561_103378" x1="4.31449e-05" y1="9.47714e-06" x2="538" y2="697" gradientUnits="userSpaceOnUse">
<stop offset="0.0833333" stop-opacity="0.1"/>
<stop offset="0.4375" stop-color="#FF9933" stop-opacity="0.12"/>
<stop offset="0.505108" stop-color="#FF9933" stop-opacity="0.17"/>
<stop offset="0.572917" stop-color="#FF9933" stop-opacity="0.12"/>
<stop offset="0.9375" stop-opacity="0.1"/>
</linearGradient>
<linearGradient id="paint26_linear_9561_103378" x1="4.31449e-05" y1="9.47714e-06" x2="538" y2="697" gradientUnits="userSpaceOnUse">
<stop offset="0.0833333" stop-opacity="0.1"/>
<stop offset="0.4375" stop-color="#FF9933" stop-opacity="0.12"/>
<stop offset="0.505108" stop-color="#FF9933" stop-opacity="0.17"/>
<stop offset="0.572917" stop-color="#FF9933" stop-opacity="0.12"/>
<stop offset="0.9375" stop-opacity="0.1"/>
</linearGradient>
<linearGradient id="paint27_linear_9561_103378" x1="4.31449e-05" y1="9.47714e-06" x2="538" y2="697" gradientUnits="userSpaceOnUse">
<stop offset="0.0833333" stop-opacity="0.1"/>
<stop offset="0.4375" stop-color="#FF9933" stop-opacity="0.12"/>
<stop offset="0.505108" stop-color="#FF9933" stop-opacity="0.17"/>
<stop offset="0.572917" stop-color="#FF9933" stop-opacity="0.12"/>
<stop offset="0.9375" stop-opacity="0.1"/>
</linearGradient>
<linearGradient id="paint28_linear_9561_103378" x1="4.31449e-05" y1="9.47714e-06" x2="538" y2="697" gradientUnits="userSpaceOnUse">
<stop offset="0.0833333" stop-opacity="0.1"/>
<stop offset="0.4375" stop-color="#FF9933" stop-opacity="0.12"/>
<stop offset="0.505108" stop-color="#FF9933" stop-opacity="0.17"/>
<stop offset="0.572917" stop-color="#FF9933" stop-opacity="0.12"/>
<stop offset="0.9375" stop-opacity="0.1"/>
</linearGradient>
<linearGradient id="paint29_linear_9561_103378" x1="4.31449e-05" y1="9.47714e-06" x2="538" y2="697" gradientUnits="userSpaceOnUse">
<stop offset="0.0833333" stop-opacity="0.1"/>
<stop offset="0.4375" stop-color="#FF9933" stop-opacity="0.12"/>
<stop offset="0.505108" stop-color="#FF9933" stop-opacity="0.17"/>
<stop offset="0.572917" stop-color="#FF9933" stop-opacity="0.12"/>
<stop offset="0.9375" stop-opacity="0.1"/>
</linearGradient>
<linearGradient id="paint30_linear_9561_103378" x1="4.31449e-05" y1="9.47714e-06" x2="538" y2="697" gradientUnits="userSpaceOnUse">
<stop offset="0.0833333" stop-opacity="0.1"/>
<stop offset="0.4375" stop-color="#FF9933" stop-opacity="0.12"/>
<stop offset="0.505108" stop-color="#FF9933" stop-opacity="0.17"/>
<stop offset="0.572917" stop-color="#FF9933" stop-opacity="0.12"/>
<stop offset="0.9375" stop-opacity="0.1"/>
</linearGradient>
<linearGradient id="paint31_linear_9561_103378" x1="4.31449e-05" y1="9.47714e-06" x2="538" y2="697" gradientUnits="userSpaceOnUse">
<stop offset="0.0833333" stop-opacity="0.1"/>
<stop offset="0.4375" stop-color="#FF9933" stop-opacity="0.12"/>
<stop offset="0.505108" stop-color="#FF9933" stop-opacity="0.17"/>
<stop offset="0.572917" stop-color="#FF9933" stop-opacity="0.12"/>
<stop offset="0.9375" stop-opacity="0.1"/>
</linearGradient>
<linearGradient id="paint32_linear_9561_103378" x1="4.31449e-05" y1="9.47714e-06" x2="538" y2="697" gradientUnits="userSpaceOnUse">
<stop offset="0.0833333" stop-opacity="0.1"/>
<stop offset="0.4375" stop-color="#FF9933" stop-opacity="0.12"/>
<stop offset="0.505108" stop-color="#FF9933" stop-opacity="0.17"/>
<stop offset="0.572917" stop-color="#FF9933" stop-opacity="0.12"/>
<stop offset="0.9375" stop-opacity="0.1"/>
</linearGradient>
<linearGradient id="paint33_linear_9561_103378" x1="4.31449e-05" y1="9.47714e-06" x2="538" y2="697" gradientUnits="userSpaceOnUse">
<stop offset="0.0833333" stop-opacity="0.1"/>
<stop offset="0.4375" stop-color="#FF9933" stop-opacity="0.12"/>
<stop offset="0.505108" stop-color="#FF9933" stop-opacity="0.17"/>
<stop offset="0.572917" stop-color="#FF9933" stop-opacity="0.12"/>
<stop offset="0.9375" stop-opacity="0.1"/>
</linearGradient>
<linearGradient id="paint34_linear_9561_103378" x1="4.31449e-05" y1="9.47714e-06" x2="538" y2="697" gradientUnits="userSpaceOnUse">
<stop offset="0.0833333" stop-opacity="0.1"/>
<stop offset="0.4375" stop-color="#FF9933" stop-opacity="0.12"/>
<stop offset="0.505108" stop-color="#FF9933" stop-opacity="0.17"/>
<stop offset="0.572917" stop-color="#FF9933" stop-opacity="0.12"/>
<stop offset="0.9375" stop-opacity="0.1"/>
</linearGradient>
<linearGradient id="paint35_linear_9561_103378" x1="4.31449e-05" y1="9.47714e-06" x2="538" y2="697" gradientUnits="userSpaceOnUse">
<stop offset="0.0833333" stop-opacity="0.1"/>
<stop offset="0.4375" stop-color="#FF9933" stop-opacity="0.12"/>
<stop offset="0.505108" stop-color="#FF9933" stop-opacity="0.17"/>
<stop offset="0.572917" stop-color="#FF9933" stop-opacity="0.12"/>
<stop offset="0.9375" stop-opacity="0.1"/>
</linearGradient>
<linearGradient id="paint36_linear_9561_103378" x1="4.31449e-05" y1="9.47714e-06" x2="538" y2="697" gradientUnits="userSpaceOnUse">
<stop offset="0.0833333" stop-opacity="0.1"/>
<stop offset="0.4375" stop-color="#FF9933" stop-opacity="0.12"/>
<stop offset="0.505108" stop-color="#FF9933" stop-opacity="0.17"/>
<stop offset="0.572917" stop-color="#FF9933" stop-opacity="0.12"/>
<stop offset="0.9375" stop-opacity="0.1"/>
</linearGradient>
<linearGradient id="paint37_linear_9561_103378" x1="4.31449e-05" y1="9.47714e-06" x2="538" y2="697" gradientUnits="userSpaceOnUse">
<stop offset="0.0833333" stop-opacity="0.1"/>
<stop offset="0.4375" stop-color="#FF9933" stop-opacity="0.12"/>
<stop offset="0.505108" stop-color="#FF9933" stop-opacity="0.17"/>
<stop offset="0.572917" stop-color="#FF9933" stop-opacity="0.12"/>
<stop offset="0.9375" stop-opacity="0.1"/>
</linearGradient>
<linearGradient id="paint38_linear_9561_103378" x1="4.31449e-05" y1="9.47714e-06" x2="538" y2="697" gradientUnits="userSpaceOnUse">
<stop offset="0.0833333" stop-opacity="0.1"/>
<stop offset="0.4375" stop-color="#FF9933" stop-opacity="0.12"/>
<stop offset="0.505108" stop-color="#FF9933" stop-opacity="0.17"/>
<stop offset="0.572917" stop-color="#FF9933" stop-opacity="0.12"/>
<stop offset="0.9375" stop-opacity="0.1"/>
</linearGradient>
<linearGradient id="paint39_linear_9561_103378" x1="4.31449e-05" y1="9.47714e-06" x2="538" y2="697" gradientUnits="userSpaceOnUse">
<stop offset="0.0833333" stop-opacity="0.1"/>
<stop offset="0.4375" stop-color="#FF9933" stop-opacity="0.12"/>
<stop offset="0.505108" stop-color="#FF9933" stop-opacity="0.17"/>
<stop offset="0.572917" stop-color="#FF9933" stop-opacity="0.12"/>
<stop offset="0.9375" stop-opacity="0.1"/>
</linearGradient>
<linearGradient id="paint40_linear_9561_103378" x1="4.31449e-05" y1="9.47714e-06" x2="538" y2="697" gradientUnits="userSpaceOnUse">
<stop offset="0.0833333" stop-opacity="0.1"/>
<stop offset="0.4375" stop-color="#FF9933" stop-opacity="0.12"/>
<stop offset="0.505108" stop-color="#FF9933" stop-opacity="0.17"/>
<stop offset="0.572917" stop-color="#FF9933" stop-opacity="0.12"/>
<stop offset="0.9375" stop-opacity="0.1"/>
</linearGradient>
<linearGradient id="paint41_linear_9561_103378" x1="4.31449e-05" y1="9.47714e-06" x2="538" y2="697" gradientUnits="userSpaceOnUse">
<stop offset="0.0833333" stop-opacity="0.1"/>
<stop offset="0.4375" stop-color="#FF9933" stop-opacity="0.12"/>
<stop offset="0.505108" stop-color="#FF9933" stop-opacity="0.17"/>
<stop offset="0.572917" stop-color="#FF9933" stop-opacity="0.12"/>
<stop offset="0.9375" stop-opacity="0.1"/>
</linearGradient>
<clipPath id="clip0_9561_103378">
<path d="M0 0H518C529.046 0 538 8.9543 538 20V677C538 688.046 529.046 697 518 697H0V0Z" fill="white"/>
</clipPath>
</defs>
</svg>
