<svg width="64" height="33" viewBox="0 0 64 33" fill="none" xmlns="http://www.w3.org/2000/svg">
<path id="image 338 (Traced)" fill-rule="evenodd" clip-rule="evenodd" d="M33.9465 6.84835C33.9465 14.1493 33.9503 14.213 34.4187 14.6776C34.8892 15.1444 35.2043 15.2124 37.0911 15.2552L38.8434 15.2949V14.1061V12.9171H38.1842C37.6628 12.9171 37.4722 12.8763 37.2721 12.7217L37.0191 12.5263V9.0568V5.58737L37.4621 5.53834C38.2925 5.44641 38.7673 4.91313 38.8261 4.00611L38.8658 3.39429H37.9521H37.0384L37.0047 2.18469C36.9726 1.02913 36.9591 0.959545 36.702 0.628886C36.2883 0.0963598 36.014 0 34.9115 0H33.9465V6.84835ZM49.7894 1.18093V2.36195L51.3017 2.33593L52.814 2.31L52.8433 1.74815C52.8816 1.01866 52.6567 0.424003 52.2508 0.180935C52.0016 0.0317749 51.7637 0.000659793 50.8696 0.000376936L49.7894 0V1.18093ZM4.61314 3.26474C4.50752 3.2851 4.18346 3.3478 3.89301 3.4039C2.06205 3.75766 0.731436 5.07087 0.176935 7.07143C-0.0330557 7.82911 -0.0644528 10.5904 0.127678 11.4086C0.762643 14.1132 2.39916 15.4673 5.21277 15.6162C6.83441 15.702 8.15091 15.3467 9.12971 14.559C9.66309 14.1298 10.3416 13.1327 10.5676 12.4457C10.6615 12.1605 10.7582 11.8742 10.7826 11.8093C10.8166 11.7184 10.5088 11.6914 9.43869 11.6914H8.05057L7.6761 11.9742C7.47014 12.1297 7.13648 12.3819 6.93475 12.5346C6.45303 12.8991 5.73606 13.0458 5.05549 12.919C4.77137 12.8661 4.52336 12.8229 4.50425 12.8229C4.48524 12.8229 4.29359 12.6666 4.07832 12.4757C3.33745 11.8184 3.07522 10.9725 3.09001 9.28714C3.10902 7.13271 3.76281 6.07021 5.18761 5.87843C5.80952 5.7948 6.45408 6.00204 6.94012 6.44188C7.16538 6.64573 7.34964 6.87079 7.34964 6.94197C7.34964 7.04691 7.67725 7.07143 9.07978 7.07143H10.8099L10.7472 6.81214C10.6276 6.31771 10.2482 5.48121 9.95143 5.05758C9.12232 3.8742 7.52698 3.19657 5.62132 3.21825C5.17244 3.22344 4.71876 3.24428 4.61314 3.26474ZM14.7631 3.34328C13.0512 3.72589 11.9332 4.74304 11.6241 6.19929L11.5591 6.50571H13.0615H14.5638L14.8697 6.18722C15.2888 5.75096 16.0445 5.59086 17.0356 5.72842C18.1453 5.88249 18.6317 6.36183 18.35 7.02381C18.1712 7.44414 17.6037 7.71389 16.6235 7.84485C14.1781 8.17127 12.9094 8.58905 12.1762 9.30911C10.857 10.6045 10.8836 13.1604 12.2296 14.4536C13.1093 15.2986 14.5104 15.7207 16.0392 15.6012C19.1052 15.3613 20.7962 14.2265 21.3164 12.0598C21.5375 11.1388 21.5282 6.15591 21.3041 5.4747C20.9874 4.51195 20.1188 3.81876 18.8001 3.47622C17.816 3.22071 15.6332 3.14877 14.7631 3.34328ZM42.4538 3.35431C40.7831 3.72174 39.6342 4.76388 39.3695 6.15214L39.3021 6.50571H40.8113C42.3098 6.50571 42.3217 6.50402 42.5107 6.26811C42.9246 5.75143 43.8717 5.55343 44.9624 5.75548C45.7556 5.90247 46.1407 6.21814 46.1407 6.72135C46.1407 7.37748 45.4712 7.72803 43.846 7.92292C41.2306 8.23661 39.9527 8.86625 39.3035 10.1613C39.0006 10.7654 38.9875 10.8371 38.9907 11.878C38.9936 12.8494 39.0207 13.0211 39.2472 13.5016C39.9091 14.9053 41.2672 15.5941 43.3562 15.5858C46.331 15.5739 48.2937 14.4598 48.95 12.4107C49.1542 11.7729 49.1653 11.5844 49.1653 8.72143V5.70429L48.8974 5.16855C48.4666 4.30716 47.7065 3.7769 46.4288 3.44671C45.534 3.21543 43.3195 3.16395 42.4538 3.35431ZM57.2308 3.36157C55.3453 3.75568 54.1714 4.90832 53.7725 6.75698C53.6638 7.26056 53.6331 8.27197 53.6317 11.385L53.6301 15.3686H55.1664C56.3306 15.3686 56.7031 15.34 56.7043 15.2507C56.7052 15.1859 56.7184 13.3296 56.7337 11.1257C56.7634 6.84486 56.755 6.91991 57.2626 6.38559C57.5341 6.09991 58.265 5.84571 58.8151 5.84571C59.3651 5.84571 60.096 6.09991 60.3675 6.38559C60.8845 6.92981 60.8761 6.86362 60.9274 10.8126C60.9737 14.3734 60.9827 14.5162 61.1761 14.7726C61.5059 15.2098 61.8385 15.3175 62.9678 15.3529L64 15.3853V11.2905C64 7.51957 63.985 7.13818 63.8101 6.46659C63.4593 5.12019 62.7693 4.24946 61.6356 3.72278C60.5632 3.22466 58.6401 3.06693 57.2308 3.36157ZM26.1691 3.35987C24.6322 3.64631 23.4004 4.47216 22.7825 5.63027C22.0802 6.94669 22.1029 6.69174 22.0652 13.6631C22.0435 17.6745 22.0651 19.9453 22.1251 19.9818C22.1768 20.0131 22.6557 20.0303 23.1895 20.0203C24.3084 19.9988 24.6728 19.8546 24.9447 19.3254C25.0923 19.0381 25.1126 18.6873 25.1127 16.4216L25.1129 13.8448L25.6005 14.3687C26.3299 15.1524 27.0948 15.4915 28.2438 15.5409C30.2541 15.6272 31.8171 14.8215 32.6018 13.2943C33.4554 11.6332 33.6853 8.75132 33.1198 6.80356C32.645 5.16837 31.5499 4.0425 29.9233 3.51686C29.4858 3.37552 26.7082 3.25936 26.1691 3.35987ZM49.7894 9.38143V15.3686H51.3257H52.862L52.8614 10.0179C52.8611 6.73662 52.8237 4.53571 52.7647 4.32724C52.5501 3.56843 52.1818 3.39429 50.7913 3.39429H49.7894V9.38143ZM29.022 6.18712C30.6377 7.16675 30.7093 11.3226 29.1297 12.4462C27.9909 13.2562 26.2446 12.88 25.6219 11.6906C25.259 10.9974 25.0859 9.98693 25.1456 8.91C25.2117 7.717 25.4219 7.07567 25.9231 6.53739C26.4327 5.98988 26.8807 5.83374 27.8217 5.87551C28.4397 5.90295 28.6382 5.95452 29.022 6.18712ZM18.4877 10.2192C18.4877 11.2803 18.2761 11.9064 17.7464 12.413C17.2553 12.8827 16.6459 13.1058 15.8541 13.1055C14.8067 13.1053 14.263 12.6218 14.2634 11.6914C14.2639 10.8018 14.7783 10.3926 16.4039 9.98919C16.9955 9.8423 17.6523 9.6591 17.8636 9.58197C18.4929 9.35239 18.4877 9.34702 18.4877 10.2192ZM46.2153 10.3479C46.1869 10.9024 46.1037 11.4168 46.0055 11.6443C45.8011 12.1184 45.3419 12.5935 44.8445 12.8452C44.4423 13.0489 43.367 13.1761 42.9393 13.0707C42.2092 12.8907 41.761 11.9553 42.0639 11.2435C42.3472 10.5777 42.8176 10.2721 43.9062 10.0463C44.2639 9.97222 44.8805 9.80703 45.2766 9.67937C46.3377 9.33721 46.2696 9.28875 46.2153 10.3479ZM17.3334 17.3408C15.6231 17.575 14.7113 18.4232 14.6392 19.8471C14.6287 20.0546 14.6261 23.0575 14.6335 26.5202L14.647 32.8162L16.1593 32.7902L17.6715 32.7643L17.6965 28.274L17.7214 23.7839L18.2077 23.7379C18.8052 23.6816 19.141 23.4524 19.427 22.9059C19.5872 22.5997 19.6388 22.3604 19.6191 22.0157L19.5919 21.5443L18.6077 21.5174L17.6235 21.4905V21.074C17.6235 20.2154 18 19.8943 19.0066 19.8943H19.6399V18.6214V17.3486H19.3179C19.1408 17.3486 18.7412 17.3305 18.4298 17.3084C18.1184 17.2862 17.625 17.3009 17.3334 17.3408ZM27.8974 17.3755C27.3896 17.6294 27.3025 18.2797 27.7247 18.6659C27.9316 18.8553 28.0239 18.8571 37.0612 18.8558C42.0813 18.8552 46.2877 18.8286 46.4086 18.7967C46.6451 18.7345 46.9089 18.3242 46.9089 18.0185C46.9089 17.9151 46.8046 17.7115 46.6772 17.566L46.4455 17.3014L37.2915 17.2785C30.0339 17.2603 28.0877 17.2804 27.8974 17.3755ZM49.7376 17.4664C49.7124 17.5313 49.703 20.9998 49.7166 25.1743L49.7414 32.7643L51.2448 32.7902L52.7484 32.8161L52.7893 29.2545C52.8235 26.2847 52.8565 25.6138 52.988 25.2172C53.393 23.996 54.2076 23.3541 55.3494 23.3564C56.7774 23.3593 57.5819 24.1284 57.8492 25.7462C57.9048 26.0824 57.9497 27.7934 57.9501 29.5845L57.9509 32.8162L59.4632 32.7902L60.9754 32.7643L60.9747 28.5214C60.974 24.8063 60.9535 24.2056 60.8092 23.6916C60.5774 22.8651 60.136 22.0508 59.7302 21.7009C58.6573 20.776 56.6894 20.3966 55.2416 20.8357C54.5632 21.0416 53.643 21.5899 53.2041 22.05C53.049 22.2127 52.8892 22.3457 52.8491 22.3457C52.809 22.3457 52.7631 21.3918 52.747 20.2259L52.7179 18.1061L52.4214 17.8151C52.0629 17.4633 51.6282 17.3538 50.5786 17.3508C50.0291 17.3492 49.7692 17.385 49.7376 17.4664ZM31.5461 20.7137C31.414 20.7354 31.09 20.8204 30.8259 20.9025C29.1234 21.432 28.1162 22.5211 27.5854 24.4064C27.2899 25.4561 27.2933 28.0903 27.5915 29.1626C28.3021 31.7179 30.0783 33 32.9077 33C34.7295 33 35.7735 32.6378 36.7691 31.66C37.355 31.0847 37.9539 30.0755 38.114 29.3936L38.1749 29.1343H36.8225C35.415 29.1343 35.2539 29.1699 34.8161 29.5777C34.3056 30.0534 33.7678 30.2899 33.0888 30.3377C32.2923 30.3937 31.8378 30.2593 31.3456 29.8228C30.9515 29.4731 30.6508 28.822 30.5359 28.0699L30.4681 27.6257H34.4289H38.3898L38.3364 26.2821C38.2542 24.211 37.8088 22.9657 36.7938 21.9698C36.2168 21.4037 35.2192 20.8985 34.3849 20.75C33.8412 20.6532 32.0532 20.6304 31.5461 20.7137ZM42.1137 20.7895C40.8535 21.0695 39.7339 21.8346 39.2706 22.7324C39.1463 22.973 38.9915 23.4541 38.9263 23.8015C38.71 24.954 39.0752 26.0034 39.9582 26.7666C40.7128 27.4188 41.2541 27.6182 43.8363 28.1945C45.4992 28.5657 46.2245 29.0294 46.0997 29.6419C46.0223 30.0219 45.7032 30.3394 45.2837 30.4539C44.7477 30.6001 43.3551 30.5688 42.8481 30.3992C42.3532 30.2337 41.8554 29.7488 41.7653 29.3447C41.7337 29.203 41.6913 29.0342 41.6709 28.9693C41.6434 28.8813 41.2397 28.8514 40.0814 28.8514H38.529L38.5797 29.4407C38.7213 31.0868 39.8128 32.2816 41.6279 32.7776C42.5668 33.034 45.1419 33.0121 46.1555 32.7389C48.2347 32.1787 49.1828 31.115 49.2845 29.2286C49.3199 28.5722 49.2912 28.3319 49.1257 27.9011C48.6238 26.5942 47.6877 26.063 44.6525 25.363C42.6152 24.893 42.012 24.564 42.012 23.9224C42.012 23.2966 42.8045 22.9416 44.0124 23.0265C44.865 23.0864 45.3134 23.3034 45.5871 23.7888C45.9422 24.4184 46.2588 24.5391 47.6895 24.5898L48.9252 24.6336V24.4052C48.9252 24.0164 48.6385 23.0719 48.3983 22.6692C47.9283 21.8815 47.1801 21.3235 46.0927 20.9496C45.5315 20.7567 45.1988 20.7132 44.0764 20.6854C43.1359 20.6621 42.5463 20.6935 42.1137 20.7895ZM24.6394 20.9397C22.4098 21.3692 21.0774 22.5508 20.449 24.6557C20.3037 25.1429 20.2748 25.7482 20.2413 29.0164L20.2025 32.8114H21.7455H23.2886L23.2893 29.6764C23.2901 26.2272 23.3576 25.5256 23.7493 24.8966C24.1551 24.2451 24.7134 24.0081 25.9471 23.9632L26.9372 23.9272V22.3822V20.8371L26.0011 20.8475C25.4861 20.8532 24.8734 20.8947 24.6394 20.9397ZM34.0768 23.4473C34.5057 23.7433 34.9507 24.4945 35.0578 25.1036L35.1201 25.4571H32.8404H30.5607L30.6188 25.1036C30.6982 24.6203 31.1569 23.7699 31.4556 23.5521C32.1887 23.0177 33.385 22.9699 34.0768 23.4473Z" fill="white"/>
</svg>
