<svg width="53" height="27" viewBox="0 0 53 27" fill="none" xmlns="http://www.w3.org/2000/svg">
<path id="image 426 (Traced)" fill-rule="evenodd" clip-rule="evenodd" d="M48.6886 0.181137C47.2739 0.835615 47.2069 2.80446 48.5741 3.54379C49.0637 3.80852 49.4907 3.85702 50.0099 3.70706C50.826 3.47137 51.378 2.73043 51.3794 1.86886C51.3817 0.494953 49.9506 -0.402676 48.6886 0.181137ZM5.69504 6.26865C2.23385 7.03819 -0.161502 10.3758 0.00850524 14.1921C0.147442 17.3124 1.90281 19.7226 4.66306 20.583C7.25647 21.3913 10.1562 20.6797 11.9573 18.793C12.4185 18.3099 12.9562 17.5941 13.0601 17.3252C13.0972 17.2291 12.5939 16.8254 12.4508 16.8365C12.4196 16.839 12.2781 16.9867 12.1363 17.1648C11.9946 17.3428 11.6387 17.6846 11.3456 17.9243C10.3845 18.71 9.42276 19.0444 8.12359 19.0447C7.22621 19.0449 6.64189 18.9087 5.8043 18.5041C5.29008 18.2557 5.05977 18.0828 4.51308 17.5352C3.56674 16.5872 3.04501 15.5424 2.78274 14.0702C2.73076 13.7783 2.70286 13.525 2.72082 13.5071C2.73879 13.4893 5.00345 13.1583 7.75339 12.7717C10.5033 12.3851 12.7748 12.0557 12.8009 12.0396C12.8661 11.9995 12.8101 11.2786 12.6894 10.6041C12.4821 9.44667 11.9414 8.4478 11.0854 7.64102C10.4629 7.05428 9.78413 6.67792 8.85715 6.40536C8.00623 6.15526 6.49832 6.09001 5.69504 6.26865ZM20.4496 6.26097C18.9017 6.55284 17.5365 7.29414 16.4286 8.44451C15.116 9.80745 14.4008 11.4234 14.1883 13.5068C13.9175 16.1597 15.01 18.7257 16.9569 20.0095C18.8049 21.2283 21.1648 21.2087 23.0921 19.9587C23.6917 19.5698 24.4038 18.904 24.7922 18.3692L25.0305 18.041L25.0068 21.5147C24.985 24.714 24.9722 25.0132 24.8456 25.3025C24.6618 25.7225 24.3184 25.8902 23.4107 26.0031L22.702 26.0913L22.68 26.5457L22.6582 27H26.457H30.2559L30.234 26.5428L30.2121 26.0856L29.6994 26.0294C28.6911 25.9188 28.2747 25.6989 28.1 25.1848C28.0293 24.9768 28.0029 22.7724 27.9847 15.5337L27.9611 6.15212L27.7613 6.1527C27.6513 6.153 27.1142 6.39651 26.5675 6.69387L25.5735 7.23452L25.3295 7.08676C24.844 6.79284 24.3342 6.58158 23.6717 6.39988C22.8137 6.16448 21.3058 6.09952 20.4496 6.26097ZM31.611 6.76329L29.3285 7.36437V7.68659V8.00875L29.7335 8.12894C29.9562 8.19499 30.2412 8.3023 30.3668 8.36726C30.6921 8.53565 31.0448 8.96109 31.0911 9.24119C31.1129 9.37279 31.1418 11.2251 31.1555 13.3574C31.1791 17.0574 31.1875 17.2605 31.3386 17.806C31.7602 19.3277 32.7703 20.3593 34.2248 20.7532C34.9615 20.9528 36.2415 20.9367 36.9459 20.719C38.1425 20.3492 39.2202 19.6263 39.9675 18.6919L40.396 18.1562L40.446 18.6097C40.5547 19.5956 40.9647 20.9285 41.1593 20.9285C41.2574 20.9285 44.834 19.9138 45.0339 19.8293C45.1784 19.7682 45.2005 19.7124 45.1812 19.4566L45.1586 19.1558L44.6028 18.9969C44.297 18.9095 43.9449 18.7659 43.8203 18.6777C43.3333 18.3331 43.3547 18.6354 43.3547 12.1188C43.3547 7.467 43.3353 6.21356 43.2627 6.18708C43.2121 6.16865 42.1435 6.42482 40.8882 6.75634L38.6057 7.3591L38.5836 7.69771L38.5615 8.0364L38.8413 8.08841C39.2657 8.16734 39.8652 8.47428 40.072 8.71838C40.1736 8.83828 40.2909 9.05882 40.3327 9.20842C40.3806 9.37995 40.4089 10.9361 40.4091 13.4209L40.4096 17.3615L39.949 17.81C39.1457 18.5922 38.0546 19.0481 36.9859 19.0481C35.5958 19.0481 34.6457 18.4232 34.2453 17.2455C34.1291 16.9036 34.1151 16.3718 34.0946 11.5104C34.0772 7.3681 34.0518 6.15329 33.9828 6.15716C33.9337 6.15987 32.8664 6.43265 31.611 6.76329ZM48.5823 6.73973C47.4687 7.05531 46.4829 7.33262 46.3919 7.35595C46.2519 7.39187 46.2262 7.44798 46.2262 7.71754C46.2262 8.03596 46.2269 8.03684 46.5666 8.12184C47.0449 8.24144 47.583 8.52643 47.7652 8.75642C48.069 9.14024 48.0775 9.29722 48.0534 14.0889C48.0314 18.4303 48.0221 18.7135 47.8913 18.975C47.815 19.1276 47.652 19.3041 47.5292 19.3673C47.3391 19.4649 46.3875 19.6743 46.0974 19.6824C46.0334 19.6841 46.0053 19.8302 46.0053 20.1604V20.6359H49.5027H53V20.1637V19.6916L52.7239 19.6488C52.1559 19.5607 51.5028 19.39 51.3951 19.3013C51.3339 19.2508 51.2309 19.0943 51.1663 18.9534C51.0627 18.7276 51.0445 17.9609 51.012 12.4431L50.9752 6.18869L50.7912 6.17728C50.6899 6.17106 49.6959 6.42409 48.5823 6.73973ZM7.81722 7.32421C8.91605 7.66136 9.7066 8.86183 9.7066 10.1931C9.7066 10.9616 9.45251 11.293 8.69134 11.5174C8.27011 11.6416 2.72421 12.4796 2.67134 12.4271C2.59227 12.3486 2.8144 11.1014 3.01364 10.5046C3.55341 8.88794 4.73058 7.62588 6.02518 7.27571C6.53742 7.13716 7.27259 7.15706 7.81722 7.32421ZM22.5276 7.35471C23.4516 7.54929 24.2189 8.0732 24.6006 8.76988C25.0081 9.51375 25.0213 9.66641 25.0213 13.657V17.3274L24.5417 17.773C24.0112 18.2661 23.1153 18.7396 22.4591 18.8737C21.8659 18.9949 20.9946 18.9708 20.4391 18.8178C18.2216 18.2068 16.8755 15.5249 17.2095 12.3832C17.4959 9.68953 18.7416 7.90488 20.6891 7.39802C21.3379 7.22918 21.8717 7.2166 22.5276 7.35471Z" fill="#999999"/>
</svg>
