<svg width="120" height="23" viewBox="0 0 120 23" fill="none" xmlns="http://www.w3.org/2000/svg">
<g id="Group 11980">
<g id="Subtract">
<path fill-rule="evenodd" clip-rule="evenodd" d="M15.7809 1.51166C15.5839 1.13128 15.6175 0.435932 15.8462 0.160905C15.9354 0.0534378 16.4048 1.31966e-05 16.9611 0H6.90319C3.3509 0 0.471191 2.8797 0.471191 6.432V16.5706C0.471191 20.1229 3.3509 23.0026 6.90319 23.0026H17.0418C20.5941 23.0026 23.4738 20.1229 23.4738 16.5706V6.71148C23.4735 7.70746 23.4497 7.8432 23.2629 7.94306C22.9787 8.09489 22.2759 8.079 21.9786 7.914C21.6002 7.70406 15.9825 1.90085 15.7809 1.51166ZM10.1687 4.63251C11.2883 4.53565 12.4735 4.16289 13.7966 3.49137C14.4721 3.14854 15.1401 2.8598 15.2809 2.84979C15.481 2.83553 16.0418 3.34782 17.852 5.19878C19.1253 6.50078 20.3291 7.75129 20.5269 7.97789L20.8867 8.38983L20.3842 9.39275C19.4883 11.1811 19.1195 12.4228 18.9483 14.2275C18.9074 14.6591 18.8156 15.0604 18.7443 15.1194C18.5586 15.2732 7.09855 18.6127 6.75635 18.6127C6.53766 18.6127 6.45415 18.5444 6.39746 18.3191C6.32933 18.0481 6.50713 17.8473 8.712 15.7058C12.5384 11.9894 12.5838 11.9514 13.2508 11.9019C13.5622 11.879 13.9286 11.787 14.0651 11.6978C14.6663 11.3045 14.8911 10.5026 14.5822 9.85301C13.9234 8.46699 11.9392 8.96698 11.9103 10.5263C11.9061 10.7537 11.8694 11.021 11.8286 11.1204C11.7249 11.3729 6.17256 17.3905 5.91746 17.5269C5.75557 17.6133 5.66094 17.5902 5.49393 17.4235C5.27982 17.2097 5.27982 17.2052 5.49884 16.4143C6.60819 12.4076 8.65302 5.12042 8.70819 4.97697C8.78101 4.7876 9.01474 4.73242 10.1687 4.63251Z" fill="#999999"/>
<path d="M23.4738 6.68796V6.432C23.4738 6.29154 23.4693 6.15214 23.4604 6.01392C23.4697 6.21923 23.4737 6.44171 23.4738 6.68796Z" fill="#999999"/>
<path d="M17.4665 0.0138009C17.3261 0.00464799 17.1845 0 17.0418 0H16.9615C17.1249 3.87352e-06 17.2956 0.00460948 17.4665 0.0138009Z" fill="#999999"/>
</g>
<path id="image 429 (Traced)" fill-rule="evenodd" clip-rule="evenodd" d="M41.4135 0.702128C40.5224 1.03255 40.0445 1.64943 40.0445 2.46929C40.0445 3.05079 40.1995 3.45816 40.5693 3.84823C41.0337 4.33831 41.378 4.46435 42.2526 4.46435C42.9477 4.46435 43.1197 4.42288 43.5468 4.15253C44.2033 3.73689 44.4442 3.22624 44.3829 2.38048C44.3529 1.9669 44.2584 1.63517 44.1159 1.44275C43.5929 0.736629 42.2863 0.378561 41.4135 0.702128ZM84.2509 5.7375C82.5531 5.96224 80.8135 7.03068 79.945 8.38198C79.3179 9.35747 79.0503 10.3436 79.0438 11.7019C79.0343 13.6827 79.6133 15.2329 80.7709 16.3259C82.6545 18.1043 85.9915 18.3346 88.202 16.8387C88.3964 16.7071 88.5558 16.5606 88.5563 16.5131C88.5567 16.4656 88.2353 15.8719 87.8421 15.1938L87.1272 13.9608L86.5066 14.2977C84.9985 15.1166 83.593 14.4629 83.1519 12.7375C82.9284 11.8632 83.0033 10.9664 83.3657 10.1759C83.688 9.47327 84.2062 9.06753 84.9913 8.90308C85.5604 8.78391 85.6263 8.79348 86.1644 9.07221C86.478 9.23459 86.7435 9.35399 86.7544 9.33744C86.7654 9.32101 87.1509 8.78075 87.6112 8.13699C88.0715 7.49323 88.448 6.93545 88.448 6.89736C88.448 6.79016 88.1154 6.55268 87.5507 6.25675C86.6325 5.7757 85.4124 5.58361 84.2509 5.7375ZM93.7081 5.81945C90.9525 6.44591 89.2149 8.74168 89.2149 11.7563C89.2149 14.7644 90.9866 17.1272 93.6675 17.6946C96.714 18.3392 99.4937 16.6272 100.393 13.5521C100.652 12.6669 100.652 10.845 100.394 9.96619C100.083 8.9119 99.5857 8.05373 98.8708 7.33999C97.5254 5.99685 95.5227 5.40697 93.7081 5.81945ZM108.26 5.77298C107.659 5.92459 107.121 6.22813 106.358 6.84642C105.986 7.14833 105.661 7.36034 105.637 7.31757C105.612 7.27469 105.559 7.04374 105.518 6.8043C105.367 5.92404 105.505 5.98804 103.758 5.98804H102.184V11.7563V17.5246H104.146H106.109V13.7357V9.94681L106.409 9.66678C107.114 9.00789 107.955 8.84845 108.447 9.28031C108.873 9.65426 108.943 10.3382 108.943 14.1111V17.5246H110.906H112.868V13.6814V9.8382L113.168 9.61693C114.226 8.83604 115.035 8.83365 115.452 9.61008C115.617 9.91775 115.645 10.4221 115.683 13.7426L115.725 17.5246H117.627H119.529L119.496 13.0351C119.463 8.65233 119.457 8.53108 119.214 7.93042C118.836 6.99531 118.31 6.37963 117.589 6.02766C117.047 5.76242 116.838 5.72292 115.98 5.72259C115.13 5.72226 114.91 5.76286 114.387 6.01655C114.054 6.17839 113.472 6.59001 113.095 6.9311C112.476 7.48986 112.397 7.53176 112.297 7.35338C112.037 6.88974 111.391 6.30127 110.852 6.0381C110.202 5.72052 108.969 5.59449 108.26 5.77298ZM32.3851 5.94037C30.8369 6.31487 29.8718 7.21287 29.5125 8.61304C29.2954 9.45901 29.3779 10.1979 29.7701 10.9171C30.281 11.8544 30.9661 12.3338 32.9161 13.1186C34.3432 13.693 34.7589 14.0744 34.4949 14.567C34.1073 15.29 32.267 15.0228 30.8898 14.0437C30.531 13.7887 30.6126 13.718 29.526 15.2288L28.7898 16.2525L29.0481 16.4561C29.5573 16.8575 31.0663 17.5099 31.908 17.6925C32.5281 17.827 33.0713 17.8644 33.8703 17.8274C35.4033 17.7563 36.406 17.343 37.2479 16.4354C37.955 15.6729 38.1916 15.0601 38.1901 13.9953C38.1878 12.2973 37.2171 11.264 34.8159 10.4034C34.3685 10.2431 33.8152 10.0067 33.586 9.87814C32.7382 9.40242 33.0044 8.71371 34.0701 8.62544C34.5903 8.58245 34.7467 8.62729 35.5934 9.06231L36.5371 9.54706L37.3758 8.40255L38.2144 7.25804L37.9576 7.06072C37.4302 6.65564 36.2382 6.09644 35.5636 5.93765C34.7061 5.73587 33.225 5.73717 32.3851 5.94037ZM49.8849 5.93493C48.5089 6.3127 47.449 7.14485 46.9336 8.25225C46.6899 8.77585 46.6447 9.02443 46.6425 9.85169C46.6395 11.0287 46.8504 11.5754 47.6278 12.4052L48.1405 12.9524L47.6818 13.4492C47.1118 14.0666 46.9126 14.5302 46.9126 15.239C46.9126 15.9216 47.1061 16.4007 47.5511 16.8201C47.7396 16.9977 47.8937 17.1775 47.8937 17.2197C47.8937 17.262 47.6742 17.4473 47.4056 17.6317C46.7179 18.1041 46.3675 18.7427 46.3675 19.5239C46.3675 20.3444 46.5576 20.7596 47.1862 21.312C48.6797 22.6245 52.9548 22.7434 55.4858 21.5428C56.3943 21.1118 57.1903 20.373 57.5635 19.6145C57.8222 19.0885 57.8685 18.8593 57.8672 18.1123C57.8659 17.324 57.8314 17.1754 57.5402 16.709C57.3232 16.3612 57.0329 16.0853 56.6696 15.8817C55.7354 15.3581 55.0159 15.2304 52.5454 15.1499C50.4715 15.0822 50.261 15.0575 50.1197 14.8645C49.9206 14.5926 49.9212 14.1012 50.121 13.9016C50.2471 13.7757 50.3983 13.7666 50.9069 13.8541C51.3383 13.9283 51.8427 13.9248 52.5083 13.843C54.8334 13.5572 56.1708 12.2526 56.2019 10.2399C56.208 9.84679 56.1769 9.36596 56.1328 9.17147L56.0526 8.81776H56.879H57.7052V7.41041V6.00295L55.2796 5.9408C53.9455 5.90663 52.3143 5.85613 51.6548 5.82849C50.8097 5.79301 50.2871 5.82446 49.8849 5.93493ZM65.4851 5.97944C64.9158 6.18416 63.7566 6.91064 63.4926 7.22822C63.2535 7.51587 63.1871 7.43653 63.0471 6.69547L62.9134 5.98804H61.2905H59.6675V11.8107V17.6334H61.6298H63.5921V13.8315V10.0295L64.0801 9.63032C64.9637 8.90755 66.0095 8.90101 66.4012 9.61584C66.5683 9.92069 66.594 10.4035 66.6237 13.797L66.6574 17.6334H68.6132H70.5692V13.5151C70.5692 9.75232 70.5504 9.32319 70.3511 8.54523C69.983 7.1085 69.3393 6.29234 68.2938 5.93667C67.6101 5.70409 66.1911 5.72575 65.4851 5.97944ZM40.2625 11.8107V17.6334H42.2248H44.1871V11.8107V5.98804H42.2248H40.2625V11.8107ZM52.3889 8.7C52.7391 9.01235 52.745 9.03314 52.745 9.96053C52.745 10.8879 52.7391 10.9087 52.3889 11.2211C51.9733 11.5917 51.2711 11.6556 50.8499 11.3611C50.0955 10.8337 50.1023 9.08266 50.8608 8.55231C51.272 8.26466 51.9774 8.33289 52.3889 8.7ZM95.7496 9.1238C96.8266 9.91797 96.897 13.3231 95.8571 14.3179C95.5856 14.5775 95.4365 14.6299 94.9561 14.6347C93.8054 14.6462 93.3509 13.9654 93.2664 12.104C93.1852 10.3111 93.6532 9.06318 94.4721 8.8897C94.8801 8.80339 95.4589 8.90939 95.7496 9.1238ZM74.2657 13.3157C72.9004 14.0355 72.6631 16.1783 73.8319 17.2325C74.3672 17.7153 74.9206 17.8954 75.6163 17.8131C76.3243 17.7294 76.9113 17.3356 77.2902 16.6901C77.838 15.7569 77.6475 14.3591 76.8741 13.6389C76.2162 13.0262 75.0813 12.8856 74.2657 13.3157ZM53.7793 18.3276C54.3279 18.5779 54.1959 19.2679 53.5336 19.6119C52.9729 19.9031 51.2791 20.0169 50.5248 19.8141C49.6575 19.5809 49.2828 18.9033 49.6959 18.3147C49.8593 18.0817 49.8996 18.0782 51.6854 18.1404C52.6878 18.1753 53.6301 18.2595 53.7793 18.3276Z" fill="#999999"/>
</g>
</svg>
