<svg width="120" height="23" viewBox="0 0 120 23" fill="none" xmlns="http://www.w3.org/2000/svg">
<g id="Group 11980">
<g id="Subtract">
<path fill-rule="evenodd" clip-rule="evenodd" d="M15.3097 1.51166C15.1127 1.13128 15.1463 0.435932 15.375 0.160905C15.4643 0.0534378 15.9336 1.31966e-05 16.4899 0H6.432C2.8797 0 0 2.8797 0 6.432V16.5706C0 20.1229 2.8797 23.0026 6.432 23.0026H16.5706C20.1229 23.0026 23.0026 20.1229 23.0026 16.5706V6.71148C23.0023 7.70746 22.9785 7.8432 22.7917 7.94306C22.5075 8.09489 21.8047 8.079 21.5074 7.914C21.129 7.70406 15.5113 1.90085 15.3097 1.51166ZM9.69749 4.63251C10.8171 4.53565 12.0023 4.16289 13.3254 3.49137C14.0009 3.14854 14.6689 2.8598 14.8097 2.84979C15.0098 2.83553 15.5706 3.34782 17.3808 5.19878C18.6541 6.50078 19.8579 7.75129 20.0557 7.97789L20.4155 8.38983L19.913 9.39275C19.0171 11.1811 18.6483 12.4228 18.4771 14.2275C18.4362 14.6591 18.3444 15.0604 18.2731 15.1194C18.0874 15.2732 6.62736 18.6127 6.28516 18.6127C6.06647 18.6127 5.98296 18.5444 5.92627 18.3191C5.85814 18.0481 6.03594 17.8473 8.24081 15.7058C12.0672 11.9894 12.1127 11.9514 12.7796 11.9019C13.091 11.879 13.4574 11.787 13.5939 11.6978C14.1951 11.3045 14.4199 10.5026 14.111 9.85301C13.4523 8.46699 11.468 8.96698 11.4391 10.5263C11.4349 10.7537 11.3982 11.021 11.3574 11.1204C11.2537 11.3729 5.70137 17.3905 5.44627 17.5269C5.28438 17.6133 5.18975 17.5902 5.02274 17.4235C4.80863 17.2097 4.80863 17.2052 5.02764 16.4143C6.137 12.4076 8.18183 5.12042 8.23699 4.97697C8.30982 4.7876 8.54355 4.73242 9.69749 4.63251Z" fill="white"/>
<path d="M23.0026 6.68796V6.432C23.0026 6.29154 22.9981 6.15214 22.9892 6.01392C22.9985 6.21923 23.0025 6.44171 23.0026 6.68796Z" fill="white"/>
<path d="M16.9953 0.0138009C16.8549 0.00464799 16.7133 0 16.5706 0H16.4904C16.6537 3.87352e-06 16.8245 0.00460948 16.9953 0.0138009Z" fill="white"/>
</g>
<path id="image 429 (Traced)" fill-rule="evenodd" clip-rule="evenodd" d="M40.9422 0.702128C40.0511 1.03255 39.5732 1.64943 39.5732 2.46929C39.5732 3.05079 39.7282 3.45816 40.098 3.84823C40.5624 4.33831 40.9067 4.46435 41.7813 4.46435C42.4764 4.46435 42.6484 4.42288 43.0755 4.15253C43.732 3.73689 43.9729 3.22624 43.9116 2.38048C43.8816 1.9669 43.7871 1.63517 43.6446 1.44275C43.1216 0.736629 41.815 0.378561 40.9422 0.702128ZM83.7795 5.7375C82.0818 5.96224 80.3422 7.03068 79.4737 8.38198C78.8466 9.35747 78.579 10.3436 78.5725 11.7019C78.563 13.6827 79.142 15.2329 80.2996 16.3259C82.1832 18.1043 85.5202 18.3346 87.7306 16.8387C87.9251 16.7071 88.0845 16.5606 88.0849 16.5131C88.0854 16.4656 87.764 15.8719 87.3708 15.1938L86.6558 13.9608L86.0353 14.2977C84.5272 15.1166 83.1217 14.4629 82.6805 12.7375C82.4571 11.8632 82.532 10.9664 82.8944 10.1759C83.2167 9.47327 83.7348 9.06753 84.52 8.90308C85.0891 8.78391 85.155 8.79348 85.6931 9.07221C86.0066 9.23459 86.2722 9.35399 86.2831 9.33744C86.2941 9.32101 86.6796 8.78075 87.1399 8.13699C87.6001 7.49323 87.9767 6.93545 87.9767 6.89736C87.9767 6.79016 87.6441 6.55268 87.0794 6.25675C86.1612 5.7757 84.9411 5.58361 83.7795 5.7375ZM93.2368 5.81945C90.4811 6.44591 88.7436 8.74168 88.7436 11.7563C88.7436 14.7644 90.5153 17.1272 93.1962 17.6946C96.2427 18.3392 99.0224 16.6272 99.922 13.5521C100.181 12.6669 100.181 10.845 99.9224 9.96619C99.6121 8.9119 99.1144 8.05373 98.3995 7.33999C97.0541 5.99685 95.0514 5.40697 93.2368 5.81945ZM107.789 5.77298C107.188 5.92459 106.65 6.22813 105.887 6.84642C105.514 7.14833 105.19 7.36034 105.165 7.31757C105.141 7.27469 105.087 7.04374 105.046 6.8043C104.895 5.92404 105.033 5.98804 103.286 5.98804H101.713V11.7563V17.5246H103.675H105.637V13.7357V9.94681L105.937 9.66678C106.643 9.00789 107.484 8.84845 107.976 9.28031C108.402 9.65426 108.472 10.3382 108.472 14.1111V17.5246H110.434H112.396V13.6814V9.8382L112.696 9.61693C113.754 8.83604 114.564 8.83365 114.981 9.61008C115.146 9.91775 115.174 10.4221 115.211 13.7426L115.254 17.5246H117.156H119.058L119.024 13.0351C118.992 8.65233 118.985 8.53108 118.742 7.93042C118.364 6.99531 117.839 6.37963 117.118 6.02766C116.575 5.76242 116.367 5.72292 115.508 5.72259C114.658 5.72226 114.439 5.76286 113.916 6.01655C113.583 6.17839 113.001 6.59001 112.623 6.9311C112.005 7.48986 111.926 7.53176 111.826 7.35338C111.566 6.88974 110.919 6.30127 110.381 6.0381C109.73 5.72052 108.497 5.59449 107.789 5.77298ZM31.9138 5.94037C30.3656 6.31487 29.4005 7.21287 29.0412 8.61304C28.8241 9.45901 28.9066 10.1979 29.2988 10.9171C29.8097 11.8544 30.4948 12.3338 32.4448 13.1186C33.8719 13.693 34.2876 14.0744 34.0236 14.567C33.636 15.29 31.7957 15.0228 30.4185 14.0437C30.0597 13.7887 30.1412 13.718 29.0547 15.2288L28.3185 16.2525L28.5767 16.4561C29.086 16.8575 30.595 17.5099 31.4367 17.6925C32.0568 17.827 32.6 17.8644 33.399 17.8274C34.932 17.7563 35.9347 17.343 36.7766 16.4354C37.4836 15.6729 37.7203 15.0601 37.7188 13.9953C37.7165 12.2973 36.7458 11.264 34.3446 10.4034C33.8972 10.2431 33.3438 10.0067 33.1147 9.87814C32.2669 9.40242 32.5331 8.71371 33.5988 8.62544C34.1189 8.58245 34.2754 8.62729 35.1221 9.06231L36.0658 9.54706L36.9044 8.40255L37.7431 7.25804L37.4863 7.06072C36.9588 6.65564 35.7668 6.09644 35.0923 5.93765C34.2348 5.73587 32.7537 5.73717 31.9138 5.94037ZM49.4136 5.93493C48.0376 6.3127 46.9777 7.14485 46.4623 8.25225C46.2186 8.77585 46.1734 9.02443 46.1712 9.85169C46.1682 11.0287 46.3791 11.5754 47.1565 12.4052L47.6692 12.9524L47.2105 13.4492C46.6405 14.0666 46.4412 14.5302 46.4412 15.239C46.4412 15.9216 46.6347 16.4007 47.0798 16.8201C47.2682 16.9977 47.4224 17.1775 47.4224 17.2197C47.4224 17.262 47.2028 17.4473 46.9343 17.6317C46.2465 18.1041 45.8962 18.7427 45.8962 19.5239C45.8962 20.3444 46.0863 20.7596 46.7149 21.312C48.2084 22.6245 52.4835 22.7434 55.0144 21.5428C55.923 21.1118 56.719 20.373 57.0922 19.6145C57.3509 19.0885 57.3972 18.8593 57.3959 18.1123C57.3946 17.324 57.3601 17.1754 57.0689 16.709C56.8519 16.3612 56.5616 16.0853 56.1983 15.8817C55.2641 15.3581 54.5446 15.2304 52.074 15.1499C50.0002 15.0822 49.7897 15.0575 49.6484 14.8645C49.4492 14.5926 49.4499 14.1012 49.6497 13.9016C49.7757 13.7757 49.927 13.7666 50.4356 13.8541C50.867 13.9283 51.3714 13.9248 52.037 13.843C54.3621 13.5572 55.6995 12.2526 55.7306 10.2399C55.7367 9.84679 55.7056 9.36596 55.6615 9.17147L55.5813 8.81776H56.4077H57.2339V7.41041V6.00295L54.8083 5.9408C53.4741 5.90663 51.843 5.85613 51.1835 5.82849C50.3384 5.79301 49.8158 5.82446 49.4136 5.93493ZM65.0138 5.97944C64.4445 6.18416 63.2853 6.91064 63.0213 7.22822C62.7822 7.51587 62.7158 7.43653 62.5757 6.69547L62.4421 5.98804H60.8192H59.1962V11.8107V17.6334H61.1585H63.1208V13.8315V10.0295L63.6088 9.63032C64.4924 8.90755 65.5382 8.90101 65.9299 9.61584C66.097 9.92069 66.1227 10.4035 66.1524 13.797L66.1861 17.6334H68.1419H70.0979V13.5151C70.0979 9.75232 70.0791 9.32319 69.8798 8.54523C69.5117 7.1085 68.868 6.29234 67.8225 5.93667C67.1388 5.70409 65.7198 5.72575 65.0138 5.97944ZM39.7912 11.8107V17.6334H41.7535H43.7158V11.8107V5.98804H41.7535H39.7912V11.8107ZM51.9176 8.7C52.2678 9.01235 52.2736 9.03314 52.2736 9.96053C52.2736 10.8879 52.2678 10.9087 51.9176 11.2211C51.502 11.5917 50.7997 11.6556 50.3786 11.3611C49.6242 10.8337 49.631 9.08266 50.3895 8.55231C50.8007 8.26466 51.5061 8.33289 51.9176 8.7ZM95.2783 9.1238C96.3553 9.91797 96.4257 13.3231 95.3858 14.3179C95.1143 14.5775 94.9652 14.6299 94.4848 14.6347C93.3341 14.6462 92.8796 13.9654 92.7951 12.104C92.7139 10.3111 93.1819 9.06318 94.0008 8.8897C94.4088 8.80339 94.9876 8.90939 95.2783 9.1238ZM73.7943 13.3157C72.4291 14.0355 72.1918 16.1783 73.3606 17.2325C73.8958 17.7153 74.4493 17.8954 75.145 17.8131C75.853 17.7294 76.44 17.3356 76.8189 16.6901C77.3667 15.7569 77.1762 14.3591 76.4028 13.6389C75.7449 13.0262 74.61 12.8856 73.7943 13.3157ZM53.308 18.3276C53.8566 18.5779 53.7246 19.2679 53.0623 19.6119C52.5016 19.9031 50.8078 20.0169 50.0535 19.8141C49.1862 19.5809 48.8115 18.9033 49.2246 18.3147C49.388 18.0817 49.4283 18.0782 51.2141 18.1404C52.2165 18.1753 53.1588 18.2595 53.308 18.3276Z" fill="white"/>
</g>
</svg>
