<svg width="46" height="25" viewBox="0 0 46 25" fill="none" xmlns="http://www.w3.org/2000/svg">
<path id="image 427 (Traced)" fill-rule="evenodd" clip-rule="evenodd" d="M27.7624 0.529774C26.3981 0.671368 24.9271 1.25856 23.6985 2.15204C22.7808 2.81944 21.6232 4.02627 20.9086 5.06053C19.9987 6.37763 19.3317 7.60185 17.3757 11.5451C15.6459 15.0322 14.7691 16.5482 13.7326 17.8442C13.3501 18.3224 12.7515 18.9697 12.6925 18.969C12.6497 18.9685 12.606 18.8926 11.5286 16.9481C9.79788 13.8246 8.85818 12.4566 7.5704 11.186C6.69411 10.3214 5.9489 9.86018 4.83097 9.49068C3.41623 9.02305 1.96026 8.95387 0.743813 9.29654C0.224387 9.44283 0 9.54678 0 9.64112C0 9.67867 0.21638 9.88035 0.480903 10.0893C1.39893 10.8144 2.52388 12.0077 3.36211 13.1455C4.13457 14.194 5.0384 15.8568 5.62136 17.3018C6.81754 20.2669 7.97565 21.973 9.59206 23.151C11.0717 24.2295 13.082 24.5911 14.8478 24.0965C16.5111 23.6306 17.828 22.4042 19.3491 19.9043C19.8827 19.0274 20.3773 18.0824 21.862 15.1036C24.3772 10.0571 25.9046 7.30588 27.4166 5.09803C28.7897 3.09322 29.8676 1.93141 30.8407 1.40769C31.2808 1.17079 31.3363 1.06174 31.0714 0.954152C30.2198 0.608302 28.7823 0.423957 27.7624 0.529774ZM41.2277 11.5246C39.3299 11.7124 38.0135 12.2699 36.9097 13.3529C35.8672 14.3759 35.0334 15.9742 34.6783 17.6303C34.5358 18.2951 34.4854 19.4503 34.5703 20.1062C34.7398 21.4148 35.2247 22.4477 36.0002 23.1516C36.8928 23.9619 38.0445 24.2911 40.0059 24.2964C40.7515 24.2984 41.1048 24.2773 41.4465 24.2102C42.8235 23.9398 43.9855 23.3214 44.9484 22.3465C45.3902 21.8993 46.0239 21.0215 45.9993 20.8911C45.9806 20.7923 45.2893 20.5681 44.7441 20.4839C44.2726 20.4111 43.648 20.4439 43.3127 20.5591C43.1871 20.6023 42.8114 20.7855 42.4778 20.9662C41.5169 21.4869 40.9582 21.6309 40.2402 21.5433C39.3474 21.4343 38.7527 20.9135 38.4469 19.9728C38.2397 19.335 38.2358 19.3434 38.7577 19.3022C39.3115 19.2586 40.2806 19.1012 40.8192 18.9675C43.7638 18.2368 45.3346 16.7536 45.4736 14.573C45.5103 13.9973 45.4264 13.6201 45.1464 13.1021C44.7626 12.3924 43.8437 11.7441 42.9693 11.5662C42.6366 11.4986 41.7138 11.4765 41.2277 11.5246ZM29.2181 11.7264C26.3398 12.0041 24.4829 13.3666 23.3105 16.0612C22.4507 18.0372 22.349 20.173 23.0352 21.8429C23.5149 23.0104 24.4506 23.863 25.6411 24.2173C26.558 24.4903 28.5019 24.5884 29.452 24.4097C30.8203 24.1524 31.9903 23.5577 32.9206 22.6468C33.397 22.1802 34.1197 21.1876 34.0716 21.0658C34.0075 20.9033 32.8877 20.6392 32.2574 20.6379C31.6676 20.6367 31.314 20.7425 30.5685 21.1435C29.6005 21.6641 29.4254 21.7166 28.6451 21.7203C28.0115 21.7234 27.9849 21.7191 27.6477 21.5577C27.0686 21.2805 26.6236 20.6874 26.4642 19.9801C26.4297 19.8272 26.3913 19.6654 26.3788 19.6203C26.3597 19.5517 26.4252 19.5329 26.7862 19.503C28.4888 19.3623 30.2824 18.8471 31.3904 18.1806C31.9989 17.8145 32.779 17.0305 33.058 16.5046C33.3683 15.9198 33.5332 15.2555 33.5332 14.5902C33.5332 13.7554 33.3044 13.2296 32.679 12.6272C31.9806 11.9544 31.2307 11.6871 30.0806 11.7007C29.7063 11.7052 29.3182 11.7167 29.2181 11.7264ZM41.5916 14.2962C41.7401 14.3706 41.9155 14.5472 42.001 14.7086C42.158 15.0049 42.0117 15.5672 41.703 15.8547C41.5147 16.03 40.7293 16.3608 40.1145 16.5237C39.6605 16.644 38.5242 16.753 38.5242 16.6763C38.5242 16.5935 38.8538 16.0195 39.139 15.6054C39.6383 14.8806 40.2783 14.3401 40.7857 14.2147C40.982 14.1662 41.4205 14.2106 41.5916 14.2962ZM29.4894 14.4236C29.7622 14.4973 29.9756 14.6897 30.0804 14.9564C30.1576 15.153 30.1615 15.2224 30.1081 15.4477C30.0078 15.8707 29.8324 16.0663 29.352 16.2912C28.8192 16.5407 28.2216 16.7293 27.6651 16.8236C27.1938 16.9035 26.5666 16.9226 26.5666 16.8571C26.5666 16.8348 26.6966 16.6028 26.8554 16.3415C27.7825 14.8166 28.6379 14.1938 29.4894 14.4236Z" fill="#999999"/>
</svg>
