<svg width="46" height="24" viewBox="0 0 46 24" fill="none" xmlns="http://www.w3.org/2000/svg">
<path id="image 427 (Traced)" fill-rule="evenodd" clip-rule="evenodd" d="M27.7624 0.0297735C26.3981 0.171368 24.9271 0.758564 23.6985 1.65204C22.7808 2.31944 21.6232 3.52627 20.9086 4.56053C19.9987 5.87763 19.3317 7.10185 17.3757 11.0451C15.6459 14.5322 14.7691 16.0482 13.7326 17.3442C13.3501 17.8224 12.7515 18.4697 12.6925 18.469C12.6497 18.4685 12.606 18.3926 11.5286 16.4481C9.79788 13.3246 8.85818 11.9566 7.5704 10.686C6.69411 9.82135 5.9489 9.36018 4.83097 8.99068C3.41623 8.52305 1.96026 8.45387 0.743813 8.79654C0.224387 8.94283 0 9.04678 0 9.14112C0 9.17867 0.21638 9.38035 0.480903 9.5893C1.39893 10.3144 2.52388 11.5077 3.36211 12.6455C4.13457 13.694 5.0384 15.3568 5.62136 16.8018C6.81754 19.7669 7.97565 21.473 9.59206 22.651C11.0717 23.7295 13.082 24.0911 14.8478 23.5965C16.5111 23.1306 17.828 21.9042 19.3491 19.4043C19.8827 18.5274 20.3773 17.5824 21.862 14.6036C24.3772 9.55706 25.9046 6.80588 27.4166 4.59803C28.7897 2.59322 29.8676 1.43141 30.8407 0.907688C31.2808 0.670788 31.3363 0.561737 31.0714 0.454152C30.2198 0.108302 28.7823 -0.0760431 27.7624 0.0297735ZM41.2277 11.0246C39.3299 11.2124 38.0135 11.7699 36.9097 12.8529C35.8672 13.8759 35.0334 15.4742 34.6783 17.1303C34.5358 17.7951 34.4854 18.9503 34.5703 19.6062C34.7398 20.9148 35.2247 21.9477 36.0002 22.6516C36.8928 23.4619 38.0445 23.7911 40.0059 23.7964C40.7515 23.7984 41.1048 23.7773 41.4465 23.7102C42.8235 23.4398 43.9855 22.8214 44.9484 21.8465C45.3902 21.3993 46.0239 20.5215 45.9993 20.3911C45.9806 20.2923 45.2893 20.0681 44.7441 19.9839C44.2726 19.9111 43.648 19.9439 43.3127 20.0591C43.1871 20.1023 42.8114 20.2855 42.4778 20.4662C41.5169 20.9869 40.9582 21.1309 40.2402 21.0433C39.3474 20.9343 38.7527 20.4135 38.4469 19.4728C38.2397 18.835 38.2358 18.8434 38.7577 18.8022C39.3115 18.7586 40.2806 18.6012 40.8192 18.4675C43.7638 17.7368 45.3346 16.2536 45.4736 14.073C45.5103 13.4973 45.4264 13.1201 45.1464 12.6021C44.7626 11.8924 43.8437 11.2441 42.9693 11.0662C42.6366 10.9986 41.7138 10.9765 41.2277 11.0246ZM29.2181 11.2264C26.3398 11.5041 24.4829 12.8666 23.3105 15.5612C22.4507 17.5372 22.349 19.673 23.0352 21.3429C23.5149 22.5104 24.4506 23.363 25.6411 23.7173C26.558 23.9903 28.5019 24.0884 29.452 23.9097C30.8203 23.6524 31.9903 23.0577 32.9206 22.1468C33.397 21.6802 34.1197 20.6876 34.0716 20.5658C34.0075 20.4033 32.8877 20.1392 32.2574 20.1379C31.6676 20.1367 31.314 20.2425 30.5685 20.6435C29.6005 21.1641 29.4254 21.2166 28.6451 21.2203C28.0115 21.2234 27.9849 21.2191 27.6477 21.0577C27.0686 20.7805 26.6236 20.1874 26.4642 19.4801C26.4297 19.3272 26.3913 19.1654 26.3788 19.1203C26.3597 19.0517 26.4252 19.0329 26.7862 19.003C28.4888 18.8623 30.2824 18.3471 31.3904 17.6806C31.9989 17.3145 32.779 16.5305 33.058 16.0046C33.3683 15.4198 33.5332 14.7555 33.5332 14.0902C33.5332 13.2554 33.3044 12.7296 32.679 12.1272C31.9806 11.4544 31.2307 11.1871 30.0806 11.2007C29.7063 11.2052 29.3182 11.2167 29.2181 11.2264ZM41.5916 13.7962C41.7401 13.8706 41.9155 14.0472 42.001 14.2086C42.158 14.5049 42.0117 15.0672 41.703 15.3547C41.5147 15.53 40.7293 15.8608 40.1145 16.0237C39.6605 16.144 38.5242 16.253 38.5242 16.1763C38.5242 16.0935 38.8538 15.5195 39.139 15.1054C39.6383 14.3806 40.2783 13.8401 40.7857 13.7147C40.982 13.6662 41.4205 13.7106 41.5916 13.7962ZM29.4894 13.9236C29.7622 13.9973 29.9756 14.1897 30.0804 14.4564C30.1576 14.653 30.1615 14.7224 30.1081 14.9477C30.0078 15.3707 29.8324 15.5663 29.352 15.7912C28.8192 16.0407 28.2216 16.2293 27.6651 16.3236C27.1938 16.4035 26.5666 16.4226 26.5666 16.3571C26.5666 16.3348 26.6966 16.1028 26.8554 15.8415C27.7825 14.3166 28.6379 13.6938 29.4894 13.9236Z" fill="white"/>
</svg>
